%TF.GenerationSoftware,KiCad,Pcbnew,(6.0.6)*%
%TF.CreationDate,2022-12-06T18:53:10+01:00*%
%TF.ProjectId,sa_amp,73615f61-6d70-42e6-9b69-6361645f7063,rev?*%
%TF.SameCoordinates,Original*%
%TF.FileFunction,Legend,Bot*%
%TF.FilePolarity,Positive*%
%FSLAX46Y46*%
G04 Gerber Fmt 4.6, Leading zero omitted, Abs format (unit mm)*
G04 Created by KiCad (PCBNEW (6.0.6)) date 2022-12-06 18:53:10*
%MOMM*%
%LPD*%
G01*
G04 APERTURE LIST*
%ADD10C,0.375000*%
G04 APERTURE END LIST*
D10*
X137778571Y-106856071D02*
X138492857Y-106856071D01*
X138492857Y-105356071D01*
X137064285Y-106856071D02*
X137207142Y-106784642D01*
X137278571Y-106713214D01*
X137350000Y-106570357D01*
X137350000Y-106141785D01*
X137278571Y-105998928D01*
X137207142Y-105927500D01*
X137064285Y-105856071D01*
X136850000Y-105856071D01*
X136707142Y-105927500D01*
X136635714Y-105998928D01*
X136564285Y-106141785D01*
X136564285Y-106570357D01*
X136635714Y-106713214D01*
X136707142Y-106784642D01*
X136850000Y-106856071D01*
X137064285Y-106856071D01*
X136064285Y-105856071D02*
X135778571Y-106856071D01*
X135492857Y-106141785D01*
X135207142Y-106856071D01*
X134921428Y-105856071D01*
X133207142Y-106856071D02*
X133207142Y-105356071D01*
X132350000Y-106856071D01*
X132350000Y-105356071D01*
X131421428Y-106856071D02*
X131564285Y-106784642D01*
X131635714Y-106713214D01*
X131707142Y-106570357D01*
X131707142Y-106141785D01*
X131635714Y-105998928D01*
X131564285Y-105927500D01*
X131421428Y-105856071D01*
X131207142Y-105856071D01*
X131064285Y-105927500D01*
X130992857Y-105998928D01*
X130921428Y-106141785D01*
X130921428Y-106570357D01*
X130992857Y-106713214D01*
X131064285Y-106784642D01*
X131207142Y-106856071D01*
X131421428Y-106856071D01*
X130278571Y-106856071D02*
X130278571Y-105856071D01*
X130278571Y-105356071D02*
X130350000Y-105427500D01*
X130278571Y-105498928D01*
X130207142Y-105427500D01*
X130278571Y-105356071D01*
X130278571Y-105498928D01*
X129635714Y-106784642D02*
X129492857Y-106856071D01*
X129207142Y-106856071D01*
X129064285Y-106784642D01*
X128992857Y-106641785D01*
X128992857Y-106570357D01*
X129064285Y-106427500D01*
X129207142Y-106356071D01*
X129421428Y-106356071D01*
X129564285Y-106284642D01*
X129635714Y-106141785D01*
X129635714Y-106070357D01*
X129564285Y-105927500D01*
X129421428Y-105856071D01*
X129207142Y-105856071D01*
X129064285Y-105927500D01*
X127778571Y-106784642D02*
X127921428Y-106856071D01*
X128207142Y-106856071D01*
X128350000Y-106784642D01*
X128421428Y-106641785D01*
X128421428Y-106070357D01*
X128350000Y-105927500D01*
X128207142Y-105856071D01*
X127921428Y-105856071D01*
X127778571Y-105927500D01*
X127707142Y-106070357D01*
X127707142Y-106213214D01*
X128421428Y-106356071D01*
X125992857Y-106427500D02*
X125278571Y-106427500D01*
X126135714Y-106856071D02*
X125635714Y-105356071D01*
X125135714Y-106856071D01*
X124635714Y-106856071D02*
X124635714Y-105856071D01*
X124635714Y-105998928D02*
X124564285Y-105927500D01*
X124421428Y-105856071D01*
X124207142Y-105856071D01*
X124064285Y-105927500D01*
X123992857Y-106070357D01*
X123992857Y-106856071D01*
X123992857Y-106070357D02*
X123921428Y-105927500D01*
X123778571Y-105856071D01*
X123564285Y-105856071D01*
X123421428Y-105927500D01*
X123350000Y-106070357D01*
X123350000Y-106856071D01*
X122635714Y-105856071D02*
X122635714Y-107356071D01*
X122635714Y-105927500D02*
X122492857Y-105856071D01*
X122207142Y-105856071D01*
X122064285Y-105927500D01*
X121992857Y-105998928D01*
X121921428Y-106141785D01*
X121921428Y-106570357D01*
X121992857Y-106713214D01*
X122064285Y-106784642D01*
X122207142Y-106856071D01*
X122492857Y-106856071D01*
X122635714Y-106784642D01*
X121064285Y-106856071D02*
X121207142Y-106784642D01*
X121278571Y-106641785D01*
X121278571Y-105356071D01*
X120492857Y-106856071D02*
X120492857Y-105856071D01*
X120492857Y-105356071D02*
X120564285Y-105427500D01*
X120492857Y-105498928D01*
X120421428Y-105427500D01*
X120492857Y-105356071D01*
X120492857Y-105498928D01*
X119992857Y-105856071D02*
X119421428Y-105856071D01*
X119778571Y-106856071D02*
X119778571Y-105570357D01*
X119707142Y-105427500D01*
X119564285Y-105356071D01*
X119421428Y-105356071D01*
X118921428Y-106856071D02*
X118921428Y-105856071D01*
X118921428Y-105356071D02*
X118992857Y-105427500D01*
X118921428Y-105498928D01*
X118850000Y-105427500D01*
X118921428Y-105356071D01*
X118921428Y-105498928D01*
X117635714Y-106784642D02*
X117778571Y-106856071D01*
X118064285Y-106856071D01*
X118207142Y-106784642D01*
X118278571Y-106641785D01*
X118278571Y-106070357D01*
X118207142Y-105927500D01*
X118064285Y-105856071D01*
X117778571Y-105856071D01*
X117635714Y-105927500D01*
X117564285Y-106070357D01*
X117564285Y-106213214D01*
X118278571Y-106356071D01*
X116921428Y-106856071D02*
X116921428Y-105856071D01*
X116921428Y-106141785D02*
X116850000Y-105998928D01*
X116778571Y-105927500D01*
X116635714Y-105856071D01*
X116492857Y-105856071D01*
X139528571Y-109271071D02*
X139528571Y-107771071D01*
X139028571Y-108842500D01*
X138528571Y-107771071D01*
X138528571Y-109271071D01*
X137814285Y-109128214D02*
X137742857Y-109199642D01*
X137814285Y-109271071D01*
X137885714Y-109199642D01*
X137814285Y-109128214D01*
X137814285Y-109271071D01*
X136028571Y-109199642D02*
X135814285Y-109271071D01*
X135457142Y-109271071D01*
X135314285Y-109199642D01*
X135242857Y-109128214D01*
X135171428Y-108985357D01*
X135171428Y-108842500D01*
X135242857Y-108699642D01*
X135314285Y-108628214D01*
X135457142Y-108556785D01*
X135742857Y-108485357D01*
X135885714Y-108413928D01*
X135957142Y-108342500D01*
X136028571Y-108199642D01*
X136028571Y-108056785D01*
X135957142Y-107913928D01*
X135885714Y-107842500D01*
X135742857Y-107771071D01*
X135385714Y-107771071D01*
X135171428Y-107842500D01*
X134742857Y-108271071D02*
X134171428Y-108271071D01*
X134528571Y-107771071D02*
X134528571Y-109056785D01*
X134457142Y-109199642D01*
X134314285Y-109271071D01*
X134171428Y-109271071D01*
X133100000Y-109199642D02*
X133242857Y-109271071D01*
X133528571Y-109271071D01*
X133671428Y-109199642D01*
X133742857Y-109056785D01*
X133742857Y-108485357D01*
X133671428Y-108342500D01*
X133528571Y-108271071D01*
X133242857Y-108271071D01*
X133100000Y-108342500D01*
X133028571Y-108485357D01*
X133028571Y-108628214D01*
X133742857Y-108771071D01*
X132385714Y-108271071D02*
X132385714Y-109771071D01*
X132385714Y-108342500D02*
X132242857Y-108271071D01*
X131957142Y-108271071D01*
X131814285Y-108342500D01*
X131742857Y-108413928D01*
X131671428Y-108556785D01*
X131671428Y-108985357D01*
X131742857Y-109128214D01*
X131814285Y-109199642D01*
X131957142Y-109271071D01*
X132242857Y-109271071D01*
X132385714Y-109199642D01*
X131028571Y-109271071D02*
X131028571Y-107771071D01*
X130385714Y-109271071D02*
X130385714Y-108485357D01*
X130457142Y-108342500D01*
X130600000Y-108271071D01*
X130814285Y-108271071D01*
X130957142Y-108342500D01*
X131028571Y-108413928D01*
X129028571Y-109271071D02*
X129028571Y-108485357D01*
X129100000Y-108342500D01*
X129242857Y-108271071D01*
X129528571Y-108271071D01*
X129671428Y-108342500D01*
X129028571Y-109199642D02*
X129171428Y-109271071D01*
X129528571Y-109271071D01*
X129671428Y-109199642D01*
X129742857Y-109056785D01*
X129742857Y-108913928D01*
X129671428Y-108771071D01*
X129528571Y-108699642D01*
X129171428Y-108699642D01*
X129028571Y-108628214D01*
X128314285Y-108271071D02*
X128314285Y-109271071D01*
X128314285Y-108413928D02*
X128242857Y-108342500D01*
X128100000Y-108271071D01*
X127885714Y-108271071D01*
X127742857Y-108342500D01*
X127671428Y-108485357D01*
X127671428Y-109271071D01*
X126885714Y-109199642D02*
X126885714Y-109271071D01*
X126957142Y-109413928D01*
X127028571Y-109485357D01*
X124314285Y-109271071D02*
X125171428Y-109271071D01*
X124742857Y-109271071D02*
X124742857Y-107771071D01*
X124885714Y-107985357D01*
X125028571Y-108128214D01*
X125171428Y-108199642D01*
X123742857Y-107913928D02*
X123671428Y-107842500D01*
X123528571Y-107771071D01*
X123171428Y-107771071D01*
X123028571Y-107842500D01*
X122957142Y-107913928D01*
X122885714Y-108056785D01*
X122885714Y-108199642D01*
X122957142Y-108413928D01*
X123814285Y-109271071D01*
X122885714Y-109271071D01*
X121171428Y-107699642D02*
X122457142Y-109628214D01*
X120742857Y-107913928D02*
X120671428Y-107842500D01*
X120528571Y-107771071D01*
X120171428Y-107771071D01*
X120028571Y-107842500D01*
X119957142Y-107913928D01*
X119885714Y-108056785D01*
X119885714Y-108199642D01*
X119957142Y-108413928D01*
X120814285Y-109271071D01*
X119885714Y-109271071D01*
X118957142Y-107771071D02*
X118814285Y-107771071D01*
X118671428Y-107842500D01*
X118600000Y-107913928D01*
X118528571Y-108056785D01*
X118457142Y-108342500D01*
X118457142Y-108699642D01*
X118528571Y-108985357D01*
X118600000Y-109128214D01*
X118671428Y-109199642D01*
X118814285Y-109271071D01*
X118957142Y-109271071D01*
X119100000Y-109199642D01*
X119171428Y-109128214D01*
X119242857Y-108985357D01*
X119314285Y-108699642D01*
X119314285Y-108342500D01*
X119242857Y-108056785D01*
X119171428Y-107913928D01*
X119100000Y-107842500D01*
X118957142Y-107771071D01*
X117885714Y-107913928D02*
X117814285Y-107842500D01*
X117671428Y-107771071D01*
X117314285Y-107771071D01*
X117171428Y-107842500D01*
X117100000Y-107913928D01*
X117028571Y-108056785D01*
X117028571Y-108199642D01*
X117100000Y-108413928D01*
X117957142Y-109271071D01*
X117028571Y-109271071D01*
X116457142Y-107913928D02*
X116385714Y-107842500D01*
X116242857Y-107771071D01*
X115885714Y-107771071D01*
X115742857Y-107842500D01*
X115671428Y-107913928D01*
X115600000Y-108056785D01*
X115600000Y-108199642D01*
X115671428Y-108413928D01*
X116528571Y-109271071D01*
X115600000Y-109271071D01*
X138600000Y-111614642D02*
X138385714Y-111686071D01*
X138028571Y-111686071D01*
X137885714Y-111614642D01*
X137814285Y-111543214D01*
X137742857Y-111400357D01*
X137742857Y-111257500D01*
X137814285Y-111114642D01*
X137885714Y-111043214D01*
X138028571Y-110971785D01*
X138314285Y-110900357D01*
X138457142Y-110828928D01*
X138528571Y-110757500D01*
X138600000Y-110614642D01*
X138600000Y-110471785D01*
X138528571Y-110328928D01*
X138457142Y-110257500D01*
X138314285Y-110186071D01*
X137957142Y-110186071D01*
X137742857Y-110257500D01*
X137314285Y-110686071D02*
X136742857Y-110686071D01*
X137100000Y-110186071D02*
X137100000Y-111471785D01*
X137028571Y-111614642D01*
X136885714Y-111686071D01*
X136742857Y-111686071D01*
X135671428Y-111614642D02*
X135814285Y-111686071D01*
X136100000Y-111686071D01*
X136242857Y-111614642D01*
X136314285Y-111471785D01*
X136314285Y-110900357D01*
X136242857Y-110757500D01*
X136100000Y-110686071D01*
X135814285Y-110686071D01*
X135671428Y-110757500D01*
X135600000Y-110900357D01*
X135600000Y-111043214D01*
X136314285Y-111186071D01*
X134957142Y-110686071D02*
X134957142Y-112186071D01*
X134957142Y-110757500D02*
X134814285Y-110686071D01*
X134528571Y-110686071D01*
X134385714Y-110757500D01*
X134314285Y-110828928D01*
X134242857Y-110971785D01*
X134242857Y-111400357D01*
X134314285Y-111543214D01*
X134385714Y-111614642D01*
X134528571Y-111686071D01*
X134814285Y-111686071D01*
X134957142Y-111614642D01*
X133600000Y-111686071D02*
X133600000Y-110186071D01*
X132957142Y-111686071D02*
X132957142Y-110900357D01*
X133028571Y-110757500D01*
X133171428Y-110686071D01*
X133385714Y-110686071D01*
X133528571Y-110757500D01*
X133600000Y-110828928D01*
X131600000Y-111686071D02*
X131600000Y-110900357D01*
X131671428Y-110757500D01*
X131814285Y-110686071D01*
X132100000Y-110686071D01*
X132242857Y-110757500D01*
X131600000Y-111614642D02*
X131742857Y-111686071D01*
X132100000Y-111686071D01*
X132242857Y-111614642D01*
X132314285Y-111471785D01*
X132314285Y-111328928D01*
X132242857Y-111186071D01*
X132100000Y-111114642D01*
X131742857Y-111114642D01*
X131600000Y-111043214D01*
X130885714Y-110686071D02*
X130885714Y-111686071D01*
X130885714Y-110828928D02*
X130814285Y-110757500D01*
X130671428Y-110686071D01*
X130457142Y-110686071D01*
X130314285Y-110757500D01*
X130242857Y-110900357D01*
X130242857Y-111686071D01*
X128385714Y-110900357D02*
X127885714Y-110900357D01*
X127671428Y-111686071D02*
X128385714Y-111686071D01*
X128385714Y-110186071D01*
X127671428Y-110186071D01*
X126814285Y-111686071D02*
X126957142Y-111614642D01*
X127028571Y-111471785D01*
X127028571Y-110186071D01*
X125671428Y-111614642D02*
X125814285Y-111686071D01*
X126100000Y-111686071D01*
X126242857Y-111614642D01*
X126314285Y-111471785D01*
X126314285Y-110900357D01*
X126242857Y-110757500D01*
X126100000Y-110686071D01*
X125814285Y-110686071D01*
X125671428Y-110757500D01*
X125600000Y-110900357D01*
X125600000Y-111043214D01*
X126314285Y-111186071D01*
X124314285Y-111614642D02*
X124457142Y-111686071D01*
X124742857Y-111686071D01*
X124885714Y-111614642D01*
X124957142Y-111543214D01*
X125028571Y-111400357D01*
X125028571Y-110971785D01*
X124957142Y-110828928D01*
X124885714Y-110757500D01*
X124742857Y-110686071D01*
X124457142Y-110686071D01*
X124314285Y-110757500D01*
X123885714Y-110686071D02*
X123314285Y-110686071D01*
X123671428Y-110186071D02*
X123671428Y-111471785D01*
X123600000Y-111614642D01*
X123457142Y-111686071D01*
X123314285Y-111686071D01*
X122814285Y-111686071D02*
X122814285Y-110686071D01*
X122814285Y-110971785D02*
X122742857Y-110828928D01*
X122671428Y-110757500D01*
X122528571Y-110686071D01*
X122385714Y-110686071D01*
X121671428Y-111686071D02*
X121814285Y-111614642D01*
X121885714Y-111543214D01*
X121957142Y-111400357D01*
X121957142Y-110971785D01*
X121885714Y-110828928D01*
X121814285Y-110757500D01*
X121671428Y-110686071D01*
X121457142Y-110686071D01*
X121314285Y-110757500D01*
X121242857Y-110828928D01*
X121171428Y-110971785D01*
X121171428Y-111400357D01*
X121242857Y-111543214D01*
X121314285Y-111614642D01*
X121457142Y-111686071D01*
X121671428Y-111686071D01*
X120528571Y-110686071D02*
X120528571Y-111686071D01*
X120528571Y-110828928D02*
X120457142Y-110757500D01*
X120314285Y-110686071D01*
X120100000Y-110686071D01*
X119957142Y-110757500D01*
X119885714Y-110900357D01*
X119885714Y-111686071D01*
X119171428Y-111686071D02*
X119171428Y-110686071D01*
X119171428Y-110186071D02*
X119242857Y-110257500D01*
X119171428Y-110328928D01*
X119100000Y-110257500D01*
X119171428Y-110186071D01*
X119171428Y-110328928D01*
X117814285Y-111614642D02*
X117957142Y-111686071D01*
X118242857Y-111686071D01*
X118385714Y-111614642D01*
X118457142Y-111543214D01*
X118528571Y-111400357D01*
X118528571Y-110971785D01*
X118457142Y-110828928D01*
X118385714Y-110757500D01*
X118242857Y-110686071D01*
X117957142Y-110686071D01*
X117814285Y-110757500D01*
X117242857Y-111614642D02*
X117100000Y-111686071D01*
X116814285Y-111686071D01*
X116671428Y-111614642D01*
X116600000Y-111471785D01*
X116600000Y-111400357D01*
X116671428Y-111257500D01*
X116814285Y-111186071D01*
X117028571Y-111186071D01*
X117171428Y-111114642D01*
X117242857Y-110971785D01*
X117242857Y-110900357D01*
X117171428Y-110757500D01*
X117028571Y-110686071D01*
X116814285Y-110686071D01*
X116671428Y-110757500D01*
X132100000Y-113958214D02*
X132171428Y-114029642D01*
X132385714Y-114101071D01*
X132528571Y-114101071D01*
X132742857Y-114029642D01*
X132885714Y-113886785D01*
X132957142Y-113743928D01*
X133028571Y-113458214D01*
X133028571Y-113243928D01*
X132957142Y-112958214D01*
X132885714Y-112815357D01*
X132742857Y-112672500D01*
X132528571Y-112601071D01*
X132385714Y-112601071D01*
X132171428Y-112672500D01*
X132100000Y-112743928D01*
X131457142Y-113315357D02*
X130957142Y-113315357D01*
X130742857Y-114101071D02*
X131457142Y-114101071D01*
X131457142Y-112601071D01*
X130742857Y-112601071D01*
X129242857Y-114101071D02*
X129742857Y-113386785D01*
X130100000Y-114101071D02*
X130100000Y-112601071D01*
X129528571Y-112601071D01*
X129385714Y-112672500D01*
X129314285Y-112743928D01*
X129242857Y-112886785D01*
X129242857Y-113101071D01*
X129314285Y-113243928D01*
X129385714Y-113315357D01*
X129528571Y-113386785D01*
X130100000Y-113386785D01*
X128600000Y-114101071D02*
X128600000Y-112601071D01*
X127742857Y-114101071D01*
X127742857Y-112601071D01*
X125600000Y-112601071D02*
X125314285Y-112601071D01*
X125171428Y-112672500D01*
X125028571Y-112815357D01*
X124957142Y-113101071D01*
X124957142Y-113601071D01*
X125028571Y-113886785D01*
X125171428Y-114029642D01*
X125314285Y-114101071D01*
X125600000Y-114101071D01*
X125742857Y-114029642D01*
X125885714Y-113886785D01*
X125957142Y-113601071D01*
X125957142Y-113101071D01*
X125885714Y-112815357D01*
X125742857Y-112672500D01*
X125600000Y-112601071D01*
X124314285Y-114101071D02*
X124314285Y-112601071D01*
X124314285Y-113315357D02*
X123457142Y-113315357D01*
X123457142Y-114101071D02*
X123457142Y-112601071D01*
X122028571Y-114101071D02*
X122742857Y-114101071D01*
X122742857Y-112601071D01*
M02*
