%TF.GenerationSoftware,KiCad,Pcbnew,(6.0.6)*%
%TF.CreationDate,2022-12-06T18:53:10+01:00*%
%TF.ProjectId,sa_amp,73615f61-6d70-42e6-9b69-6361645f7063,rev?*%
%TF.SameCoordinates,Original*%
%TF.FileFunction,Copper,L4,Bot*%
%TF.FilePolarity,Positive*%
%FSLAX46Y46*%
G04 Gerber Fmt 4.6, Leading zero omitted, Abs format (unit mm)*
G04 Created by KiCad (PCBNEW (6.0.6)) date 2022-12-06 18:53:10*
%MOMM*%
%LPD*%
G01*
G04 APERTURE LIST*
%TA.AperFunction,ComponentPad*%
%ADD10C,3.100000*%
%TD*%
%TA.AperFunction,ComponentPad*%
%ADD11R,1.350000X1.350000*%
%TD*%
%TA.AperFunction,ComponentPad*%
%ADD12O,1.350000X1.350000*%
%TD*%
%TA.AperFunction,ComponentPad*%
%ADD13C,2.850000*%
%TD*%
%TA.AperFunction,ViaPad*%
%ADD14C,0.700000*%
%TD*%
%TA.AperFunction,Conductor*%
%ADD15C,1.000000*%
%TD*%
%TA.AperFunction,Conductor*%
%ADD16C,0.500000*%
%TD*%
%TA.AperFunction,Conductor*%
%ADD17C,0.300000*%
%TD*%
G04 APERTURE END LIST*
D10*
%TO.P,H2,1,1*%
%TO.N,GND*%
X156500000Y-103500000D03*
%TD*%
D11*
%TO.P,BT1,1,+*%
%TO.N,Net-(BT1-Pad1)*%
X138600000Y-115000000D03*
D12*
%TO.P,BT1,2,-*%
%TO.N,GND*%
X138600000Y-117000000D03*
%TD*%
D10*
%TO.P,H1,1,1*%
%TO.N,GND*%
X103500000Y-103500000D03*
%TD*%
%TO.P,H3,1,1*%
%TO.N,GND*%
X156500000Y-116500000D03*
%TD*%
%TO.P,H4,1,1*%
%TO.N,GND*%
X103500000Y-116500000D03*
%TD*%
D11*
%TO.P,BT2,1,+*%
%TO.N,GND*%
X109900000Y-115500000D03*
D12*
%TO.P,BT2,2,-*%
%TO.N,Net-(BT2-Pad2)*%
X109900000Y-117500000D03*
%TD*%
D13*
%TO.P,SW1,1,A*%
%TO.N,unconnected-(SW1-Pad1)*%
X141810000Y-114450000D03*
%TO.P,SW1,2,B*%
%TO.N,Net-(BT1-Pad1)*%
X146500000Y-114450000D03*
%TO.P,SW1,3,C*%
%TO.N,+9V*%
X151190000Y-114450000D03*
%TO.P,SW1,4,A*%
%TO.N,unconnected-(SW1-Pad4)*%
X141810000Y-118260000D03*
%TO.P,SW1,5,B*%
%TO.N,Net-(BT2-Pad2)*%
X146500000Y-118260000D03*
%TO.P,SW1,6,C*%
%TO.N,-9V*%
X151190000Y-118260000D03*
%TO.P,SW1,7,SHLD*%
%TO.N,GND*%
X143960000Y-101750000D03*
%TO.P,SW1,8,SHLD*%
X149040000Y-101750000D03*
%TD*%
D14*
%TO.N,+9V*%
X107800000Y-105200000D03*
X140100000Y-109550000D03*
X129150000Y-110200000D03*
X128312500Y-114650000D03*
X109900000Y-105200000D03*
X118200000Y-103900000D03*
X122663057Y-110175159D03*
X140100000Y-105550000D03*
X116962500Y-115750000D03*
X140100000Y-107550000D03*
X109000000Y-106200000D03*
X132500000Y-107250000D03*
%TO.N,GND*%
X119462500Y-118900000D03*
X132650000Y-103400000D03*
X117812500Y-113600000D03*
X156600000Y-110300000D03*
X113850000Y-103350000D03*
X124500000Y-118900000D03*
X130000000Y-101650000D03*
X134300000Y-114400000D03*
X123400000Y-107000000D03*
X124962500Y-113850000D03*
X156600000Y-108300000D03*
X124362500Y-110200000D03*
X136300000Y-109550000D03*
X131662500Y-115700000D03*
X132700000Y-105500000D03*
X136300000Y-107550000D03*
X116500000Y-101600000D03*
X123412500Y-113400000D03*
X110150000Y-103400000D03*
X136350000Y-103350000D03*
X136300000Y-105550000D03*
X131250000Y-103375000D03*
X129100000Y-107250000D03*
X139150000Y-103400000D03*
X116962500Y-118250000D03*
X125712500Y-118900000D03*
X139000000Y-101600000D03*
X107500000Y-101700000D03*
X116650000Y-103350000D03*
X156600000Y-112300000D03*
X108750000Y-103375000D03*
X115250000Y-103375000D03*
X133750000Y-106550000D03*
X113012500Y-113400000D03*
X121900000Y-107000000D03*
X137750000Y-103375000D03*
X110562500Y-109450000D03*
X107350000Y-103350000D03*
X129850000Y-103350000D03*
%TO.N,-9V*%
X152650000Y-110300000D03*
X127400000Y-101200000D03*
X131600000Y-117900000D03*
X152650000Y-108300000D03*
X114412500Y-112850000D03*
X126300000Y-109350000D03*
X126300000Y-110200000D03*
X127200000Y-111050000D03*
X109200000Y-112300000D03*
X123450000Y-117100000D03*
X152600000Y-112350000D03*
X134450000Y-108400000D03*
X111600000Y-112300000D03*
X134450000Y-109500000D03*
X126300000Y-111050000D03*
X126750000Y-107800000D03*
X127200000Y-109350000D03*
X133550000Y-108400000D03*
X133550000Y-109500000D03*
X127200000Y-110200000D03*
X120500000Y-105700000D03*
X126750000Y-112600000D03*
X110400000Y-112300000D03*
%TO.N,Net-(R7-Pad1)*%
X121800000Y-112000000D03*
X124900000Y-107400000D03*
%TO.N,Net-(D1-Pad1)*%
X133300000Y-111400000D03*
X130900000Y-105500000D03*
%TD*%
D15*
%TO.N,Net-(BT1-Pad1)*%
X138600000Y-115000000D02*
X138600000Y-113900000D01*
X138600000Y-113900000D02*
X140400000Y-112100000D01*
X140400000Y-112100000D02*
X144150000Y-112100000D01*
X144150000Y-112100000D02*
X146500000Y-114450000D01*
%TO.N,Net-(BT2-Pad2)*%
X123850000Y-118100000D02*
X123864214Y-118100000D01*
X123864214Y-118100000D02*
X124114214Y-117850000D01*
X109900000Y-117500000D02*
X115200000Y-117500000D01*
X129500000Y-119000000D02*
X137500000Y-119000000D01*
D16*
X139900000Y-117100000D02*
X139900000Y-117700000D01*
X140650000Y-116350000D02*
X139900000Y-117100000D01*
X146500000Y-118260000D02*
X144590000Y-116350000D01*
D15*
X120250000Y-117000000D02*
X121950000Y-118700000D01*
X115200000Y-117500000D02*
X115700000Y-117000000D01*
D16*
X144590000Y-116350000D02*
X140650000Y-116350000D01*
D15*
X121950000Y-118700000D02*
X123250000Y-118700000D01*
X128350000Y-117850000D02*
X129500000Y-119000000D01*
D16*
X139900000Y-117700000D02*
X138600000Y-119000000D01*
D15*
X124114214Y-117850000D02*
X128350000Y-117850000D01*
X123250000Y-118700000D02*
X123850000Y-118100000D01*
X115700000Y-117000000D02*
X120250000Y-117000000D01*
D16*
X138600000Y-119000000D02*
X137500000Y-119000000D01*
D17*
%TO.N,Net-(R7-Pad1)*%
X121800000Y-112000000D02*
X122300000Y-112000000D01*
X123600000Y-108700000D02*
X124900000Y-107400000D01*
X123600000Y-110700000D02*
X123600000Y-108700000D01*
X122300000Y-112000000D02*
X123600000Y-110700000D01*
%TO.N,Net-(D1-Pad1)*%
X130900000Y-109000000D02*
X133300000Y-111400000D01*
X130900000Y-105500000D02*
X130900000Y-109000000D01*
%TD*%
%TA.AperFunction,Conductor*%
%TO.N,GND*%
G36*
X158651975Y-100514278D02*
G01*
X158695864Y-100540809D01*
X158801142Y-100604452D01*
X158810980Y-100611243D01*
X159020132Y-100775103D01*
X159029081Y-100783030D01*
X159216970Y-100970919D01*
X159224897Y-100979868D01*
X159388757Y-101189020D01*
X159395548Y-101198858D01*
X159533008Y-101426244D01*
X159538563Y-101436827D01*
X159611553Y-101599006D01*
X159647613Y-101679127D01*
X159651852Y-101690305D01*
X159713123Y-101886928D01*
X159730900Y-101943977D01*
X159733759Y-101955578D01*
X159781656Y-102216944D01*
X159783095Y-102228796D01*
X159794071Y-102410246D01*
X159797547Y-102467712D01*
X159796724Y-102477628D01*
X159796862Y-102477628D01*
X159796842Y-102488776D01*
X159794344Y-102499641D01*
X159796804Y-102510513D01*
X159797059Y-102511638D01*
X159799500Y-102533488D01*
X159799500Y-117465983D01*
X159796982Y-117488169D01*
X159794344Y-117499641D01*
X159796805Y-117510517D01*
X159796786Y-117521664D01*
X159796757Y-117521664D01*
X159797578Y-117531772D01*
X159793309Y-117602349D01*
X159783781Y-117759874D01*
X159783096Y-117771197D01*
X159781656Y-117783056D01*
X159733761Y-118044415D01*
X159730902Y-118056015D01*
X159666639Y-118262244D01*
X159651852Y-118309695D01*
X159647613Y-118320873D01*
X159540023Y-118559929D01*
X159538564Y-118563170D01*
X159533008Y-118573756D01*
X159395548Y-118801142D01*
X159388757Y-118810980D01*
X159224897Y-119020132D01*
X159216970Y-119029081D01*
X159029081Y-119216970D01*
X159020132Y-119224897D01*
X158810980Y-119388757D01*
X158801142Y-119395548D01*
X158651975Y-119485722D01*
X158600760Y-119500000D01*
X153599000Y-119500000D01*
X153540809Y-119481093D01*
X153504845Y-119431593D01*
X153500000Y-119401000D01*
X153500000Y-118125405D01*
X155239634Y-118125405D01*
X155240088Y-118128276D01*
X155242283Y-118131030D01*
X155284925Y-118166686D01*
X155290368Y-118170640D01*
X155522357Y-118316166D01*
X155528293Y-118319350D01*
X155777889Y-118432046D01*
X155784198Y-118434393D01*
X156046780Y-118512173D01*
X156053341Y-118513639D01*
X156324055Y-118555064D01*
X156330761Y-118555627D01*
X156604596Y-118559929D01*
X156611300Y-118559578D01*
X156883180Y-118526677D01*
X156889803Y-118525413D01*
X157154692Y-118455920D01*
X157161062Y-118453777D01*
X157414088Y-118348970D01*
X157420105Y-118345983D01*
X157656564Y-118207808D01*
X157662119Y-118204033D01*
X157752186Y-118133411D01*
X157759625Y-118122341D01*
X157759549Y-118120266D01*
X157756891Y-118116101D01*
X156511086Y-116870296D01*
X156499203Y-116864242D01*
X156494172Y-116865038D01*
X155245688Y-118113522D01*
X155239634Y-118125405D01*
X153500000Y-118125405D01*
X153500000Y-116481768D01*
X154437498Y-116481768D01*
X154453263Y-116755179D01*
X154454105Y-116761842D01*
X154506831Y-117030588D01*
X154508571Y-117037080D01*
X154597281Y-117296184D01*
X154599885Y-117302379D01*
X154722942Y-117547048D01*
X154726361Y-117552829D01*
X154864770Y-117754217D01*
X154875351Y-117762336D01*
X154875750Y-117762347D01*
X154882399Y-117758391D01*
X156129704Y-116511086D01*
X156134946Y-116500797D01*
X156864242Y-116500797D01*
X156865038Y-116505828D01*
X158113223Y-117754013D01*
X158125106Y-117760067D01*
X158126327Y-117759874D01*
X158131169Y-117755760D01*
X158239692Y-117608024D01*
X158243294Y-117602349D01*
X158373971Y-117361671D01*
X158376772Y-117355553D01*
X158473577Y-117099367D01*
X158475519Y-117092932D01*
X158536658Y-116825985D01*
X158537712Y-116819333D01*
X158562185Y-116545128D01*
X158562377Y-116541271D01*
X158562789Y-116501937D01*
X158562677Y-116498065D01*
X158543953Y-116223410D01*
X158543040Y-116216741D01*
X158487503Y-115948566D01*
X158485698Y-115942101D01*
X158394277Y-115683935D01*
X158391606Y-115677762D01*
X158266003Y-115434413D01*
X158262510Y-115428644D01*
X158134522Y-115246535D01*
X158123854Y-115238525D01*
X158123176Y-115238515D01*
X158116942Y-115242268D01*
X156870296Y-116488914D01*
X156864242Y-116500797D01*
X156134946Y-116500797D01*
X156135758Y-116499203D01*
X156134962Y-116494172D01*
X154886261Y-115245471D01*
X154874378Y-115239417D01*
X154873433Y-115239566D01*
X154868260Y-115244008D01*
X154748807Y-115410246D01*
X154745255Y-115415974D01*
X154617109Y-115657998D01*
X154614369Y-115664152D01*
X154520257Y-115921329D01*
X154518380Y-115927790D01*
X154460038Y-116195364D01*
X154459056Y-116202016D01*
X154437569Y-116475035D01*
X154437498Y-116481768D01*
X153500000Y-116481768D01*
X153500000Y-114877477D01*
X155240257Y-114877477D01*
X155240368Y-114879827D01*
X155242793Y-114883583D01*
X156488914Y-116129704D01*
X156500797Y-116135758D01*
X156505828Y-116134962D01*
X157753862Y-114886928D01*
X157759916Y-114875045D01*
X157759505Y-114872448D01*
X157756996Y-114869334D01*
X157697553Y-114820681D01*
X157692069Y-114816784D01*
X157458566Y-114673693D01*
X157452609Y-114670578D01*
X157201835Y-114560496D01*
X157195508Y-114558219D01*
X156932134Y-114483194D01*
X156925535Y-114481792D01*
X156654419Y-114443207D01*
X156647704Y-114442713D01*
X156373835Y-114441279D01*
X156367141Y-114441700D01*
X156095622Y-114477447D01*
X156089009Y-114478780D01*
X155824869Y-114551041D01*
X155818503Y-114553258D01*
X155566613Y-114660698D01*
X155560605Y-114663759D01*
X155325623Y-114804393D01*
X155320095Y-114808235D01*
X155247579Y-114866330D01*
X155240257Y-114877477D01*
X153500000Y-114877477D01*
X153500000Y-105125405D01*
X155239634Y-105125405D01*
X155240088Y-105128276D01*
X155242283Y-105131030D01*
X155284925Y-105166686D01*
X155290368Y-105170640D01*
X155522357Y-105316166D01*
X155528293Y-105319350D01*
X155777889Y-105432046D01*
X155784198Y-105434393D01*
X156046780Y-105512173D01*
X156053341Y-105513639D01*
X156324055Y-105555064D01*
X156330761Y-105555627D01*
X156604596Y-105559929D01*
X156611300Y-105559578D01*
X156883180Y-105526677D01*
X156889803Y-105525413D01*
X157154692Y-105455920D01*
X157161062Y-105453777D01*
X157414088Y-105348970D01*
X157420105Y-105345983D01*
X157656564Y-105207808D01*
X157662119Y-105204033D01*
X157752186Y-105133411D01*
X157759625Y-105122341D01*
X157759549Y-105120266D01*
X157756891Y-105116101D01*
X156511086Y-103870296D01*
X156499203Y-103864242D01*
X156494172Y-103865038D01*
X155245688Y-105113522D01*
X155239634Y-105125405D01*
X153500000Y-105125405D01*
X153500000Y-103481768D01*
X154437498Y-103481768D01*
X154453263Y-103755179D01*
X154454105Y-103761842D01*
X154506831Y-104030588D01*
X154508571Y-104037080D01*
X154597281Y-104296184D01*
X154599885Y-104302379D01*
X154722942Y-104547048D01*
X154726361Y-104552829D01*
X154864770Y-104754217D01*
X154875351Y-104762336D01*
X154875750Y-104762347D01*
X154882399Y-104758391D01*
X156129704Y-103511086D01*
X156134946Y-103500797D01*
X156864242Y-103500797D01*
X156865038Y-103505828D01*
X158113223Y-104754013D01*
X158125106Y-104760067D01*
X158126327Y-104759874D01*
X158131169Y-104755760D01*
X158239692Y-104608024D01*
X158243294Y-104602349D01*
X158373971Y-104361671D01*
X158376772Y-104355553D01*
X158473577Y-104099367D01*
X158475519Y-104092932D01*
X158536658Y-103825985D01*
X158537712Y-103819333D01*
X158562185Y-103545128D01*
X158562377Y-103541271D01*
X158562789Y-103501937D01*
X158562677Y-103498065D01*
X158543953Y-103223410D01*
X158543040Y-103216741D01*
X158487503Y-102948566D01*
X158485698Y-102942101D01*
X158394277Y-102683935D01*
X158391606Y-102677762D01*
X158266003Y-102434413D01*
X158262510Y-102428644D01*
X158134522Y-102246535D01*
X158123854Y-102238525D01*
X158123176Y-102238515D01*
X158116942Y-102242268D01*
X156870296Y-103488914D01*
X156864242Y-103500797D01*
X156134946Y-103500797D01*
X156135758Y-103499203D01*
X156134962Y-103494172D01*
X154886261Y-102245471D01*
X154874378Y-102239417D01*
X154873433Y-102239566D01*
X154868260Y-102244008D01*
X154748807Y-102410246D01*
X154745255Y-102415974D01*
X154617109Y-102657998D01*
X154614369Y-102664152D01*
X154520257Y-102921329D01*
X154518380Y-102927790D01*
X154460038Y-103195364D01*
X154459056Y-103202016D01*
X154437569Y-103475035D01*
X154437498Y-103481768D01*
X153500000Y-103481768D01*
X153500000Y-101877477D01*
X155240257Y-101877477D01*
X155240368Y-101879827D01*
X155242793Y-101883583D01*
X156488914Y-103129704D01*
X156500797Y-103135758D01*
X156505828Y-103134962D01*
X157753862Y-101886928D01*
X157759916Y-101875045D01*
X157759505Y-101872448D01*
X157756996Y-101869334D01*
X157697553Y-101820681D01*
X157692069Y-101816784D01*
X157458566Y-101673693D01*
X157452609Y-101670578D01*
X157201835Y-101560496D01*
X157195508Y-101558219D01*
X156932134Y-101483194D01*
X156925535Y-101481792D01*
X156654419Y-101443207D01*
X156647704Y-101442713D01*
X156373835Y-101441279D01*
X156367141Y-101441700D01*
X156095622Y-101477447D01*
X156089009Y-101478780D01*
X155824869Y-101551041D01*
X155818503Y-101553258D01*
X155566613Y-101660698D01*
X155560605Y-101663759D01*
X155325623Y-101804393D01*
X155320095Y-101808235D01*
X155247579Y-101866330D01*
X155240257Y-101877477D01*
X153500000Y-101877477D01*
X153500000Y-100599000D01*
X153518907Y-100540809D01*
X153568407Y-100504845D01*
X153599000Y-100500000D01*
X158600760Y-100500000D01*
X158651975Y-100514278D01*
G37*
%TD.AperFunction*%
%TD*%
%TA.AperFunction,Conductor*%
%TO.N,GND*%
G36*
X106459191Y-100518907D02*
G01*
X106495155Y-100568407D01*
X106500000Y-100599000D01*
X106500000Y-119401000D01*
X106481093Y-119459191D01*
X106431593Y-119495155D01*
X106401000Y-119500000D01*
X101399240Y-119500000D01*
X101348025Y-119485722D01*
X101198858Y-119395548D01*
X101189020Y-119388757D01*
X100979868Y-119224897D01*
X100970919Y-119216970D01*
X100783030Y-119029081D01*
X100775103Y-119020132D01*
X100611243Y-118810980D01*
X100604452Y-118801142D01*
X100466992Y-118573756D01*
X100461436Y-118563170D01*
X100459978Y-118559929D01*
X100352387Y-118320873D01*
X100348148Y-118309695D01*
X100333361Y-118262244D01*
X100290721Y-118125405D01*
X102239634Y-118125405D01*
X102240088Y-118128276D01*
X102242283Y-118131030D01*
X102284925Y-118166686D01*
X102290368Y-118170640D01*
X102522357Y-118316166D01*
X102528293Y-118319350D01*
X102777889Y-118432046D01*
X102784198Y-118434393D01*
X103046780Y-118512173D01*
X103053341Y-118513639D01*
X103324055Y-118555064D01*
X103330761Y-118555627D01*
X103604596Y-118559929D01*
X103611300Y-118559578D01*
X103883180Y-118526677D01*
X103889803Y-118525413D01*
X104154692Y-118455920D01*
X104161062Y-118453777D01*
X104414088Y-118348970D01*
X104420105Y-118345983D01*
X104656564Y-118207808D01*
X104662119Y-118204033D01*
X104752186Y-118133411D01*
X104759625Y-118122341D01*
X104759549Y-118120266D01*
X104756891Y-118116101D01*
X103511086Y-116870296D01*
X103499203Y-116864242D01*
X103494172Y-116865038D01*
X102245688Y-118113522D01*
X102239634Y-118125405D01*
X100290721Y-118125405D01*
X100269098Y-118056015D01*
X100266239Y-118044415D01*
X100218344Y-117783056D01*
X100216904Y-117771197D01*
X100216220Y-117759874D01*
X100206691Y-117602349D01*
X100202469Y-117532548D01*
X100204207Y-117511810D01*
X100203747Y-117511757D01*
X100204389Y-117506179D01*
X100205655Y-117500718D01*
X100205656Y-117500000D01*
X100204412Y-117494545D01*
X100202980Y-117488266D01*
X100200500Y-117466248D01*
X100200500Y-116481768D01*
X101437498Y-116481768D01*
X101453263Y-116755179D01*
X101454105Y-116761842D01*
X101506831Y-117030588D01*
X101508571Y-117037080D01*
X101597281Y-117296184D01*
X101599885Y-117302379D01*
X101722942Y-117547048D01*
X101726361Y-117552829D01*
X101864770Y-117754217D01*
X101875351Y-117762336D01*
X101875750Y-117762347D01*
X101882399Y-117758391D01*
X103129704Y-116511086D01*
X103134946Y-116500797D01*
X103864242Y-116500797D01*
X103865038Y-116505828D01*
X105113223Y-117754013D01*
X105125106Y-117760067D01*
X105126327Y-117759874D01*
X105131169Y-117755760D01*
X105239692Y-117608024D01*
X105243294Y-117602349D01*
X105373971Y-117361671D01*
X105376772Y-117355553D01*
X105473577Y-117099367D01*
X105475519Y-117092932D01*
X105536658Y-116825985D01*
X105537712Y-116819333D01*
X105562185Y-116545128D01*
X105562377Y-116541271D01*
X105562789Y-116501937D01*
X105562677Y-116498065D01*
X105543953Y-116223410D01*
X105543040Y-116216741D01*
X105487503Y-115948566D01*
X105485698Y-115942101D01*
X105394277Y-115683935D01*
X105391606Y-115677762D01*
X105266003Y-115434413D01*
X105262510Y-115428644D01*
X105134522Y-115246535D01*
X105123854Y-115238525D01*
X105123176Y-115238515D01*
X105116942Y-115242268D01*
X103870296Y-116488914D01*
X103864242Y-116500797D01*
X103134946Y-116500797D01*
X103135758Y-116499203D01*
X103134962Y-116494172D01*
X101886261Y-115245471D01*
X101874378Y-115239417D01*
X101873433Y-115239566D01*
X101868260Y-115244008D01*
X101748807Y-115410246D01*
X101745255Y-115415974D01*
X101617109Y-115657998D01*
X101614369Y-115664152D01*
X101520257Y-115921329D01*
X101518380Y-115927790D01*
X101460038Y-116195364D01*
X101459056Y-116202016D01*
X101437569Y-116475035D01*
X101437498Y-116481768D01*
X100200500Y-116481768D01*
X100200500Y-114877477D01*
X102240257Y-114877477D01*
X102240368Y-114879827D01*
X102242793Y-114883583D01*
X103488914Y-116129704D01*
X103500797Y-116135758D01*
X103505828Y-116134962D01*
X104753862Y-114886928D01*
X104759916Y-114875045D01*
X104759505Y-114872448D01*
X104756996Y-114869334D01*
X104697553Y-114820681D01*
X104692069Y-114816784D01*
X104458566Y-114673693D01*
X104452609Y-114670578D01*
X104201835Y-114560496D01*
X104195508Y-114558219D01*
X103932134Y-114483194D01*
X103925535Y-114481792D01*
X103654419Y-114443207D01*
X103647704Y-114442713D01*
X103373835Y-114441279D01*
X103367141Y-114441700D01*
X103095622Y-114477447D01*
X103089009Y-114478780D01*
X102824869Y-114551041D01*
X102818503Y-114553258D01*
X102566613Y-114660698D01*
X102560605Y-114663759D01*
X102325623Y-114804393D01*
X102320095Y-114808235D01*
X102247579Y-114866330D01*
X102240257Y-114877477D01*
X100200500Y-114877477D01*
X100200500Y-105125405D01*
X102239634Y-105125405D01*
X102240088Y-105128276D01*
X102242283Y-105131030D01*
X102284925Y-105166686D01*
X102290368Y-105170640D01*
X102522357Y-105316166D01*
X102528293Y-105319350D01*
X102777889Y-105432046D01*
X102784198Y-105434393D01*
X103046780Y-105512173D01*
X103053341Y-105513639D01*
X103324055Y-105555064D01*
X103330761Y-105555627D01*
X103604596Y-105559929D01*
X103611300Y-105559578D01*
X103883180Y-105526677D01*
X103889803Y-105525413D01*
X104154692Y-105455920D01*
X104161062Y-105453777D01*
X104414088Y-105348970D01*
X104420105Y-105345983D01*
X104656564Y-105207808D01*
X104662119Y-105204033D01*
X104752186Y-105133411D01*
X104759625Y-105122341D01*
X104759549Y-105120266D01*
X104756891Y-105116101D01*
X103511086Y-103870296D01*
X103499203Y-103864242D01*
X103494172Y-103865038D01*
X102245688Y-105113522D01*
X102239634Y-105125405D01*
X100200500Y-105125405D01*
X100200500Y-103481768D01*
X101437498Y-103481768D01*
X101453263Y-103755179D01*
X101454105Y-103761842D01*
X101506831Y-104030588D01*
X101508571Y-104037080D01*
X101597281Y-104296184D01*
X101599885Y-104302379D01*
X101722942Y-104547048D01*
X101726361Y-104552829D01*
X101864770Y-104754217D01*
X101875351Y-104762336D01*
X101875750Y-104762347D01*
X101882399Y-104758391D01*
X103129704Y-103511086D01*
X103134946Y-103500797D01*
X103864242Y-103500797D01*
X103865038Y-103505828D01*
X105113223Y-104754013D01*
X105125106Y-104760067D01*
X105126327Y-104759874D01*
X105131169Y-104755760D01*
X105239692Y-104608024D01*
X105243294Y-104602349D01*
X105373971Y-104361671D01*
X105376772Y-104355553D01*
X105473577Y-104099367D01*
X105475519Y-104092932D01*
X105536658Y-103825985D01*
X105537712Y-103819333D01*
X105562185Y-103545128D01*
X105562377Y-103541271D01*
X105562789Y-103501937D01*
X105562677Y-103498065D01*
X105543953Y-103223410D01*
X105543040Y-103216741D01*
X105487503Y-102948566D01*
X105485698Y-102942101D01*
X105394277Y-102683935D01*
X105391606Y-102677762D01*
X105266003Y-102434413D01*
X105262510Y-102428644D01*
X105134522Y-102246535D01*
X105123854Y-102238525D01*
X105123176Y-102238515D01*
X105116942Y-102242268D01*
X103870296Y-103488914D01*
X103864242Y-103500797D01*
X103134946Y-103500797D01*
X103135758Y-103499203D01*
X103134962Y-103494172D01*
X101886261Y-102245471D01*
X101874378Y-102239417D01*
X101873433Y-102239566D01*
X101868260Y-102244008D01*
X101748807Y-102410246D01*
X101745255Y-102415974D01*
X101617109Y-102657998D01*
X101614369Y-102664152D01*
X101520257Y-102921329D01*
X101518380Y-102927790D01*
X101460038Y-103195364D01*
X101459056Y-103202016D01*
X101437569Y-103475035D01*
X101437498Y-103481768D01*
X100200500Y-103481768D01*
X100200500Y-102534281D01*
X100203057Y-102511926D01*
X100204388Y-102506183D01*
X100205655Y-102500718D01*
X100205656Y-102500000D01*
X100204413Y-102494549D01*
X100203791Y-102488995D01*
X100204159Y-102488954D01*
X100202438Y-102467973D01*
X100215896Y-102245471D01*
X100216905Y-102228797D01*
X100218345Y-102216936D01*
X100266241Y-101955578D01*
X100269100Y-101943977D01*
X100286878Y-101886928D01*
X100289823Y-101877477D01*
X102240257Y-101877477D01*
X102240368Y-101879827D01*
X102242793Y-101883583D01*
X103488914Y-103129704D01*
X103500797Y-103135758D01*
X103505828Y-103134962D01*
X104753862Y-101886928D01*
X104759916Y-101875045D01*
X104759505Y-101872448D01*
X104756996Y-101869334D01*
X104697553Y-101820681D01*
X104692069Y-101816784D01*
X104458566Y-101673693D01*
X104452609Y-101670578D01*
X104201835Y-101560496D01*
X104195508Y-101558219D01*
X103932134Y-101483194D01*
X103925535Y-101481792D01*
X103654419Y-101443207D01*
X103647704Y-101442713D01*
X103373835Y-101441279D01*
X103367141Y-101441700D01*
X103095622Y-101477447D01*
X103089009Y-101478780D01*
X102824869Y-101551041D01*
X102818503Y-101553258D01*
X102566613Y-101660698D01*
X102560605Y-101663759D01*
X102325623Y-101804393D01*
X102320095Y-101808235D01*
X102247579Y-101866330D01*
X102240257Y-101877477D01*
X100289823Y-101877477D01*
X100348148Y-101690305D01*
X100352387Y-101679127D01*
X100388447Y-101599006D01*
X100461437Y-101436827D01*
X100466992Y-101426244D01*
X100604452Y-101198858D01*
X100611243Y-101189020D01*
X100775103Y-100979868D01*
X100783030Y-100970919D01*
X100970919Y-100783030D01*
X100979868Y-100775103D01*
X101189020Y-100611243D01*
X101198858Y-100604452D01*
X101226984Y-100587449D01*
X101348025Y-100514278D01*
X101399240Y-100500000D01*
X106401000Y-100500000D01*
X106459191Y-100518907D01*
G37*
%TD.AperFunction*%
%TD*%
%TA.AperFunction,Conductor*%
%TO.N,-9V*%
G36*
X130459191Y-100518907D02*
G01*
X130495155Y-100568407D01*
X130500000Y-100599000D01*
X130500000Y-101139021D01*
X130481093Y-101197212D01*
X130431593Y-101233176D01*
X130370407Y-101233176D01*
X130340732Y-101217563D01*
X130282774Y-101173090D01*
X130277625Y-101169139D01*
X130143709Y-101113670D01*
X130137280Y-101112824D01*
X130137278Y-101112823D01*
X130006433Y-101095597D01*
X130000000Y-101094750D01*
X129993567Y-101095597D01*
X129862722Y-101112823D01*
X129862720Y-101112824D01*
X129856291Y-101113670D01*
X129722375Y-101169139D01*
X129607379Y-101257379D01*
X129603428Y-101262528D01*
X129597226Y-101270610D01*
X129519139Y-101372375D01*
X129463670Y-101506291D01*
X129444750Y-101650000D01*
X129445597Y-101656433D01*
X129458426Y-101753875D01*
X129463670Y-101793709D01*
X129519139Y-101927625D01*
X129523090Y-101932774D01*
X129599565Y-102032437D01*
X129607379Y-102042621D01*
X129722375Y-102130861D01*
X129856291Y-102186330D01*
X129862720Y-102187176D01*
X129862722Y-102187177D01*
X129993567Y-102204403D01*
X130000000Y-102205250D01*
X130006433Y-102204403D01*
X130137278Y-102187177D01*
X130137280Y-102187176D01*
X130143709Y-102186330D01*
X130277625Y-102130861D01*
X130340732Y-102082437D01*
X130398408Y-102062013D01*
X130457074Y-102079390D01*
X130494321Y-102127932D01*
X130500000Y-102160979D01*
X130500000Y-102500000D01*
X138500000Y-102500000D01*
X138500000Y-102110979D01*
X138518907Y-102052788D01*
X138568407Y-102016824D01*
X138629593Y-102016824D01*
X138659268Y-102032437D01*
X138722375Y-102080861D01*
X138856291Y-102136330D01*
X138862720Y-102137176D01*
X138862722Y-102137177D01*
X138993567Y-102154403D01*
X139000000Y-102155250D01*
X139006433Y-102154403D01*
X139137278Y-102137177D01*
X139137280Y-102137176D01*
X139143709Y-102136330D01*
X139277625Y-102080861D01*
X139392621Y-101992621D01*
X139480861Y-101877625D01*
X139536330Y-101743709D01*
X139555250Y-101600000D01*
X139551593Y-101572221D01*
X139537177Y-101462722D01*
X139537176Y-101462720D01*
X139536330Y-101456291D01*
X139480861Y-101322375D01*
X139401645Y-101219139D01*
X139396572Y-101212528D01*
X139392621Y-101207379D01*
X139277625Y-101119139D01*
X139143709Y-101063670D01*
X139137280Y-101062824D01*
X139137278Y-101062823D01*
X139006433Y-101045597D01*
X139000000Y-101044750D01*
X138993567Y-101045597D01*
X138862722Y-101062823D01*
X138862720Y-101062824D01*
X138856291Y-101063670D01*
X138722375Y-101119139D01*
X138661106Y-101166153D01*
X138659268Y-101167563D01*
X138601592Y-101187987D01*
X138542926Y-101170610D01*
X138505679Y-101122068D01*
X138500000Y-101089021D01*
X138500000Y-100599000D01*
X138518907Y-100540809D01*
X138568407Y-100504845D01*
X138599000Y-100500000D01*
X142675180Y-100500000D01*
X142733371Y-100518907D01*
X142769335Y-100568407D01*
X142769335Y-100629593D01*
X142750460Y-100663295D01*
X142640877Y-100791601D01*
X142507191Y-101009757D01*
X142409278Y-101246140D01*
X142408372Y-101249915D01*
X142408371Y-101249917D01*
X142390975Y-101322375D01*
X142349548Y-101494930D01*
X142349244Y-101498795D01*
X142349243Y-101498800D01*
X142337850Y-101643567D01*
X142329474Y-101750000D01*
X142329779Y-101753875D01*
X142345556Y-101954343D01*
X142349548Y-102005070D01*
X142369820Y-102089508D01*
X142397608Y-102205250D01*
X142409278Y-102253860D01*
X142507191Y-102490243D01*
X142640877Y-102708399D01*
X142807044Y-102902956D01*
X143001601Y-103069123D01*
X143219757Y-103202809D01*
X143456140Y-103300722D01*
X143459915Y-103301628D01*
X143459917Y-103301629D01*
X143593099Y-103333603D01*
X143704930Y-103360452D01*
X143708795Y-103360756D01*
X143708800Y-103360757D01*
X143956125Y-103380221D01*
X143960000Y-103380526D01*
X143963875Y-103380221D01*
X144211200Y-103360757D01*
X144211205Y-103360756D01*
X144215070Y-103360452D01*
X144326901Y-103333603D01*
X144460083Y-103301629D01*
X144460085Y-103301628D01*
X144463860Y-103300722D01*
X144700243Y-103202809D01*
X144918399Y-103069123D01*
X145112956Y-102902956D01*
X145279123Y-102708399D01*
X145412809Y-102490243D01*
X145510722Y-102253860D01*
X145522393Y-102205250D01*
X145550180Y-102089508D01*
X145570452Y-102005070D01*
X145574445Y-101954343D01*
X145590221Y-101753875D01*
X145590526Y-101750000D01*
X145582150Y-101643567D01*
X145570757Y-101498800D01*
X145570756Y-101498795D01*
X145570452Y-101494930D01*
X145529025Y-101322375D01*
X145511629Y-101249917D01*
X145511628Y-101249915D01*
X145510722Y-101246140D01*
X145412809Y-101009757D01*
X145279123Y-100791601D01*
X145169540Y-100663295D01*
X145146125Y-100606767D01*
X145160409Y-100547272D01*
X145206935Y-100507536D01*
X145244820Y-100500000D01*
X147755180Y-100500000D01*
X147813371Y-100518907D01*
X147849335Y-100568407D01*
X147849335Y-100629593D01*
X147830460Y-100663295D01*
X147720877Y-100791601D01*
X147587191Y-101009757D01*
X147489278Y-101246140D01*
X147488372Y-101249915D01*
X147488371Y-101249917D01*
X147470975Y-101322375D01*
X147429548Y-101494930D01*
X147429244Y-101498795D01*
X147429243Y-101498800D01*
X147417850Y-101643567D01*
X147409474Y-101750000D01*
X147409779Y-101753875D01*
X147425556Y-101954343D01*
X147429548Y-102005070D01*
X147449820Y-102089508D01*
X147477608Y-102205250D01*
X147489278Y-102253860D01*
X147587191Y-102490243D01*
X147720877Y-102708399D01*
X147887044Y-102902956D01*
X148081601Y-103069123D01*
X148299757Y-103202809D01*
X148536140Y-103300722D01*
X148539915Y-103301628D01*
X148539917Y-103301629D01*
X148673099Y-103333603D01*
X148784930Y-103360452D01*
X148788795Y-103360756D01*
X148788800Y-103360757D01*
X149036125Y-103380221D01*
X149040000Y-103380526D01*
X149043875Y-103380221D01*
X149291200Y-103360757D01*
X149291205Y-103360756D01*
X149295070Y-103360452D01*
X149406901Y-103333603D01*
X149540083Y-103301629D01*
X149540085Y-103301628D01*
X149543860Y-103300722D01*
X149780243Y-103202809D01*
X149998399Y-103069123D01*
X150192956Y-102902956D01*
X150359123Y-102708399D01*
X150492809Y-102490243D01*
X150590722Y-102253860D01*
X150602393Y-102205250D01*
X150630180Y-102089508D01*
X150650452Y-102005070D01*
X150654445Y-101954343D01*
X150670221Y-101753875D01*
X150670526Y-101750000D01*
X150662150Y-101643567D01*
X150650757Y-101498800D01*
X150650756Y-101498795D01*
X150650452Y-101494930D01*
X150609025Y-101322375D01*
X150591629Y-101249917D01*
X150591628Y-101249915D01*
X150590722Y-101246140D01*
X150492809Y-101009757D01*
X150359123Y-100791601D01*
X150249540Y-100663295D01*
X150226125Y-100606767D01*
X150240409Y-100547272D01*
X150286935Y-100507536D01*
X150324820Y-100500000D01*
X152901000Y-100500000D01*
X152959191Y-100518907D01*
X152995155Y-100568407D01*
X153000000Y-100599000D01*
X153000000Y-114210708D01*
X152981093Y-114268899D01*
X152931593Y-114304863D01*
X152870407Y-114304863D01*
X152820907Y-114268899D01*
X152802305Y-114218475D01*
X152800757Y-114198800D01*
X152800756Y-114198795D01*
X152800452Y-114194930D01*
X152756661Y-114012528D01*
X152741629Y-113949917D01*
X152741628Y-113949915D01*
X152740722Y-113946140D01*
X152642809Y-113709757D01*
X152509123Y-113491601D01*
X152478966Y-113456291D01*
X152357156Y-113313670D01*
X152342956Y-113297044D01*
X152237972Y-113207379D01*
X152151359Y-113133405D01*
X152151358Y-113133405D01*
X152148399Y-113130877D01*
X151930243Y-112997191D01*
X151693860Y-112899278D01*
X151690085Y-112898372D01*
X151690083Y-112898371D01*
X151542016Y-112862823D01*
X151445070Y-112839548D01*
X151441205Y-112839244D01*
X151441200Y-112839243D01*
X151193875Y-112819779D01*
X151190000Y-112819474D01*
X151186125Y-112819779D01*
X150938800Y-112839243D01*
X150938795Y-112839244D01*
X150934930Y-112839548D01*
X150837984Y-112862823D01*
X150689917Y-112898371D01*
X150689915Y-112898372D01*
X150686140Y-112899278D01*
X150449757Y-112997191D01*
X150231601Y-113130877D01*
X150228642Y-113133405D01*
X150228641Y-113133405D01*
X150142028Y-113207379D01*
X150037044Y-113297044D01*
X150022844Y-113313670D01*
X149901035Y-113456291D01*
X149870877Y-113491601D01*
X149737191Y-113709757D01*
X149639278Y-113946140D01*
X149638372Y-113949915D01*
X149638371Y-113949917D01*
X149623339Y-114012528D01*
X149579548Y-114194930D01*
X149579244Y-114198795D01*
X149579243Y-114198800D01*
X149570483Y-114310110D01*
X149559474Y-114450000D01*
X149559779Y-114453875D01*
X149578249Y-114688558D01*
X149579548Y-114705070D01*
X149580454Y-114708843D01*
X149634216Y-114932774D01*
X149639278Y-114953860D01*
X149737191Y-115190243D01*
X149870877Y-115408399D01*
X150037044Y-115602956D01*
X150231601Y-115769123D01*
X150449757Y-115902809D01*
X150686140Y-116000722D01*
X150689915Y-116001628D01*
X150689917Y-116001629D01*
X150819644Y-116032774D01*
X150934930Y-116060452D01*
X150938795Y-116060756D01*
X150938800Y-116060757D01*
X151186125Y-116080221D01*
X151190000Y-116080526D01*
X151193875Y-116080221D01*
X151441200Y-116060757D01*
X151441205Y-116060756D01*
X151445070Y-116060452D01*
X151560356Y-116032774D01*
X151690083Y-116001629D01*
X151690085Y-116001628D01*
X151693860Y-116000722D01*
X151930243Y-115902809D01*
X152148399Y-115769123D01*
X152342956Y-115602956D01*
X152509123Y-115408399D01*
X152642809Y-115190243D01*
X152740722Y-114953860D01*
X152745785Y-114932774D01*
X152799546Y-114708843D01*
X152800452Y-114705070D01*
X152801752Y-114688558D01*
X152802305Y-114681525D01*
X152825720Y-114624997D01*
X152877889Y-114593027D01*
X152938886Y-114597828D01*
X152985411Y-114637565D01*
X153000000Y-114689292D01*
X153000000Y-118027076D01*
X152981093Y-118085267D01*
X152931593Y-118121231D01*
X152870407Y-118121231D01*
X152820907Y-118085267D01*
X152802305Y-118034843D01*
X152800262Y-118008878D01*
X152799051Y-118001235D01*
X152741153Y-117760072D01*
X152738759Y-117752704D01*
X152643851Y-117523577D01*
X152640329Y-117516665D01*
X152510750Y-117305212D01*
X152506195Y-117298941D01*
X152483076Y-117271872D01*
X152471704Y-117264904D01*
X152468527Y-117265154D01*
X152466001Y-117266842D01*
X151260004Y-118472839D01*
X151205487Y-118500616D01*
X151145055Y-118491045D01*
X151119996Y-118472839D01*
X149918193Y-117271036D01*
X149906310Y-117264982D01*
X149903165Y-117265480D01*
X149900774Y-117267365D01*
X149873805Y-117298941D01*
X149869250Y-117305212D01*
X149739671Y-117516665D01*
X149736149Y-117523577D01*
X149641241Y-117752704D01*
X149638847Y-117760072D01*
X149580949Y-118001235D01*
X149579738Y-118008878D01*
X149560280Y-118256125D01*
X149560280Y-118263875D01*
X149579738Y-118511122D01*
X149580949Y-118518765D01*
X149638847Y-118759928D01*
X149641241Y-118767296D01*
X149736149Y-118996423D01*
X149739671Y-119003335D01*
X149869248Y-119214785D01*
X149873810Y-119221065D01*
X149972576Y-119336705D01*
X149995991Y-119393233D01*
X149981707Y-119452727D01*
X149935182Y-119492464D01*
X149897296Y-119500000D01*
X147793360Y-119500000D01*
X147735169Y-119481093D01*
X147699205Y-119431593D01*
X147699205Y-119370407D01*
X147718080Y-119336705D01*
X147727783Y-119325345D01*
X147809802Y-119229312D01*
X147816595Y-119221359D01*
X147816595Y-119221358D01*
X147819123Y-119218399D01*
X147952809Y-119000243D01*
X148050722Y-118763860D01*
X148058645Y-118730861D01*
X148102479Y-118548281D01*
X148110452Y-118515070D01*
X148111058Y-118507379D01*
X148130221Y-118263875D01*
X148130526Y-118260000D01*
X148126140Y-118204272D01*
X148110757Y-118008800D01*
X148110756Y-118008795D01*
X148110452Y-118004930D01*
X148071974Y-117844658D01*
X148051629Y-117759917D01*
X148051628Y-117759915D01*
X148050722Y-117756140D01*
X147952809Y-117519757D01*
X147819123Y-117301601D01*
X147807005Y-117287412D01*
X147686972Y-117146872D01*
X147652956Y-117107044D01*
X147512467Y-116987055D01*
X147502211Y-116978296D01*
X150194904Y-116978296D01*
X150195154Y-116981473D01*
X150196842Y-116983999D01*
X151178914Y-117966071D01*
X151190797Y-117972125D01*
X151195828Y-117971329D01*
X152178964Y-116988193D01*
X152185018Y-116976310D01*
X152184520Y-116973165D01*
X152182635Y-116970774D01*
X152151059Y-116943805D01*
X152144788Y-116939250D01*
X151933335Y-116809671D01*
X151926423Y-116806149D01*
X151697296Y-116711241D01*
X151689928Y-116708847D01*
X151448765Y-116650949D01*
X151441122Y-116649738D01*
X151193875Y-116630280D01*
X151186125Y-116630280D01*
X150938878Y-116649738D01*
X150931235Y-116650949D01*
X150690072Y-116708847D01*
X150682704Y-116711241D01*
X150453577Y-116806149D01*
X150446665Y-116809671D01*
X150235212Y-116939250D01*
X150228941Y-116943805D01*
X150201872Y-116966924D01*
X150194904Y-116978296D01*
X147502211Y-116978296D01*
X147461359Y-116943405D01*
X147461358Y-116943405D01*
X147458399Y-116940877D01*
X147240243Y-116807191D01*
X147003860Y-116709278D01*
X147000085Y-116708372D01*
X147000083Y-116708371D01*
X146866901Y-116676397D01*
X146755070Y-116649548D01*
X146751205Y-116649244D01*
X146751200Y-116649243D01*
X146503875Y-116629779D01*
X146500000Y-116629474D01*
X146496125Y-116629779D01*
X146248800Y-116649243D01*
X146248795Y-116649244D01*
X146244930Y-116649548D01*
X146133099Y-116676397D01*
X145999917Y-116708371D01*
X145999915Y-116708372D01*
X145996140Y-116709278D01*
X145767511Y-116803979D01*
X145706515Y-116808780D01*
X145659622Y-116782519D01*
X144931619Y-116054516D01*
X144923877Y-116045803D01*
X144909547Y-116027625D01*
X144901872Y-116017890D01*
X144853251Y-115984286D01*
X144850728Y-115982483D01*
X144809139Y-115951764D01*
X144809137Y-115951763D01*
X144803184Y-115947366D01*
X144796368Y-115944973D01*
X144790431Y-115940869D01*
X144783372Y-115938636D01*
X144783371Y-115938636D01*
X144763027Y-115932202D01*
X144734071Y-115923044D01*
X144731186Y-115922082D01*
X144675369Y-115902481D01*
X144669327Y-115902244D01*
X144666653Y-115901723D01*
X144661270Y-115900020D01*
X144654663Y-115899500D01*
X144601459Y-115899500D01*
X144597572Y-115899424D01*
X144547397Y-115897452D01*
X144547394Y-115897452D01*
X144540006Y-115897162D01*
X144533228Y-115898959D01*
X144523403Y-115899500D01*
X142884098Y-115899500D01*
X142825907Y-115880593D01*
X142789943Y-115831093D01*
X142789943Y-115769907D01*
X142819803Y-115725220D01*
X142959989Y-115605490D01*
X142962956Y-115602956D01*
X143129123Y-115408399D01*
X143262809Y-115190243D01*
X143360722Y-114953860D01*
X143365785Y-114932774D01*
X143419546Y-114708843D01*
X143420452Y-114705070D01*
X143421752Y-114688558D01*
X143440221Y-114453875D01*
X143440526Y-114450000D01*
X143429517Y-114310110D01*
X143420757Y-114198800D01*
X143420756Y-114198795D01*
X143420452Y-114194930D01*
X143376661Y-114012528D01*
X143361629Y-113949917D01*
X143361628Y-113949915D01*
X143360722Y-113946140D01*
X143262809Y-113709757D01*
X143129123Y-113491601D01*
X143098966Y-113456291D01*
X142977156Y-113313670D01*
X142962956Y-113297044D01*
X142857972Y-113207379D01*
X142771359Y-113133405D01*
X142771358Y-113133405D01*
X142768399Y-113130877D01*
X142550243Y-112997191D01*
X142535210Y-112990964D01*
X142488684Y-112951227D01*
X142474401Y-112891732D01*
X142497816Y-112835204D01*
X142549986Y-112803235D01*
X142573096Y-112800500D01*
X143818836Y-112800500D01*
X143877027Y-112819407D01*
X143888840Y-112829496D01*
X144920955Y-113861612D01*
X144948732Y-113916129D01*
X144947216Y-113954727D01*
X144913599Y-114094750D01*
X144889548Y-114194930D01*
X144889244Y-114198795D01*
X144889243Y-114198800D01*
X144880483Y-114310110D01*
X144869474Y-114450000D01*
X144869779Y-114453875D01*
X144888249Y-114688558D01*
X144889548Y-114705070D01*
X144890454Y-114708843D01*
X144944216Y-114932774D01*
X144949278Y-114953860D01*
X145047191Y-115190243D01*
X145180877Y-115408399D01*
X145347044Y-115602956D01*
X145541601Y-115769123D01*
X145759757Y-115902809D01*
X145996140Y-116000722D01*
X145999915Y-116001628D01*
X145999917Y-116001629D01*
X146129644Y-116032774D01*
X146244930Y-116060452D01*
X146248795Y-116060756D01*
X146248800Y-116060757D01*
X146496125Y-116080221D01*
X146500000Y-116080526D01*
X146503875Y-116080221D01*
X146751200Y-116060757D01*
X146751205Y-116060756D01*
X146755070Y-116060452D01*
X146870356Y-116032774D01*
X147000083Y-116001629D01*
X147000085Y-116001628D01*
X147003860Y-116000722D01*
X147240243Y-115902809D01*
X147458399Y-115769123D01*
X147652956Y-115602956D01*
X147819123Y-115408399D01*
X147952809Y-115190243D01*
X148050722Y-114953860D01*
X148055785Y-114932774D01*
X148109546Y-114708843D01*
X148110452Y-114705070D01*
X148111752Y-114688558D01*
X148130221Y-114453875D01*
X148130526Y-114450000D01*
X148119517Y-114310110D01*
X148110757Y-114198800D01*
X148110756Y-114198795D01*
X148110452Y-114194930D01*
X148066661Y-114012528D01*
X148051629Y-113949917D01*
X148051628Y-113949915D01*
X148050722Y-113946140D01*
X147952809Y-113709757D01*
X147819123Y-113491601D01*
X147788966Y-113456291D01*
X147667156Y-113313670D01*
X147652956Y-113297044D01*
X147547972Y-113207379D01*
X147461359Y-113133405D01*
X147461358Y-113133405D01*
X147458399Y-113130877D01*
X147240243Y-112997191D01*
X147003860Y-112899278D01*
X147000085Y-112898372D01*
X147000083Y-112898371D01*
X146852016Y-112862823D01*
X146755070Y-112839548D01*
X146751205Y-112839244D01*
X146751200Y-112839243D01*
X146503875Y-112819779D01*
X146500000Y-112819474D01*
X146496125Y-112819779D01*
X146248800Y-112839243D01*
X146248795Y-112839244D01*
X146244930Y-112839548D01*
X146172376Y-112856967D01*
X146004727Y-112897216D01*
X145943730Y-112892415D01*
X145911612Y-112870955D01*
X144664923Y-111624266D01*
X144660324Y-111619342D01*
X144626092Y-111580101D01*
X144622169Y-111575604D01*
X144569939Y-111538897D01*
X144565786Y-111535812D01*
X144564149Y-111534528D01*
X144541355Y-111516655D01*
X144520242Y-111500100D01*
X144520239Y-111500098D01*
X144515543Y-111496416D01*
X144510099Y-111493958D01*
X144507165Y-111492633D01*
X144490972Y-111483398D01*
X144483453Y-111478113D01*
X144477894Y-111475946D01*
X144477891Y-111475944D01*
X144423973Y-111454922D01*
X144419197Y-111452914D01*
X144390920Y-111440147D01*
X144361016Y-111426645D01*
X144351975Y-111424969D01*
X144334062Y-111419867D01*
X144325487Y-111416524D01*
X144262181Y-111408190D01*
X144257086Y-111407384D01*
X144224913Y-111401420D01*
X144200180Y-111396836D01*
X144200177Y-111396836D01*
X144194308Y-111395748D01*
X144133203Y-111399271D01*
X144132076Y-111399336D01*
X144126378Y-111399500D01*
X140427724Y-111399500D01*
X140420990Y-111399271D01*
X140363070Y-111395322D01*
X140357199Y-111396347D01*
X140357194Y-111396347D01*
X140300180Y-111406298D01*
X140295053Y-111407055D01*
X140237604Y-111414007D01*
X140237603Y-111414007D01*
X140231680Y-111414724D01*
X140223068Y-111417978D01*
X140205105Y-111422892D01*
X140196046Y-111424473D01*
X140190584Y-111426871D01*
X140190583Y-111426871D01*
X140137593Y-111450132D01*
X140132795Y-111452090D01*
X140073077Y-111474655D01*
X140068160Y-111478035D01*
X140068157Y-111478036D01*
X140065498Y-111479864D01*
X140049220Y-111488925D01*
X140040797Y-111492622D01*
X140015302Y-111512185D01*
X139990153Y-111531482D01*
X139985961Y-111534528D01*
X139963882Y-111549703D01*
X139933349Y-111570688D01*
X139929382Y-111575141D01*
X139929378Y-111575144D01*
X139891893Y-111617217D01*
X139887980Y-111621363D01*
X138124265Y-113385078D01*
X138119341Y-113389677D01*
X138075604Y-113427831D01*
X138054838Y-113457379D01*
X138038903Y-113480052D01*
X138035818Y-113484205D01*
X137996416Y-113534457D01*
X137993958Y-113539900D01*
X137993958Y-113539901D01*
X137992633Y-113542835D01*
X137983398Y-113559028D01*
X137978113Y-113566547D01*
X137975946Y-113572106D01*
X137975944Y-113572109D01*
X137954922Y-113626027D01*
X137952914Y-113630803D01*
X137926645Y-113688984D01*
X137925558Y-113694851D01*
X137924969Y-113698026D01*
X137919867Y-113715938D01*
X137916524Y-113724513D01*
X137915745Y-113730432D01*
X137908192Y-113787808D01*
X137907384Y-113792914D01*
X137895748Y-113855692D01*
X137899263Y-113916655D01*
X137899336Y-113917924D01*
X137899500Y-113923622D01*
X137899500Y-114050201D01*
X137880593Y-114108392D01*
X137846297Y-114135427D01*
X137846769Y-114136133D01*
X137780448Y-114180448D01*
X137736133Y-114246769D01*
X137734231Y-114256332D01*
X137734230Y-114256334D01*
X137731731Y-114268899D01*
X137724500Y-114305252D01*
X137724500Y-115694748D01*
X137729721Y-115720995D01*
X137734211Y-115743567D01*
X137736133Y-115753231D01*
X137780448Y-115819552D01*
X137846769Y-115863867D01*
X137856332Y-115865769D01*
X137856334Y-115865770D01*
X137879005Y-115870279D01*
X137905252Y-115875500D01*
X139294748Y-115875500D01*
X139320995Y-115870279D01*
X139343666Y-115865770D01*
X139343668Y-115865769D01*
X139353231Y-115863867D01*
X139419552Y-115819552D01*
X139463867Y-115753231D01*
X139465790Y-115743567D01*
X139470279Y-115720995D01*
X139475500Y-115694748D01*
X139475500Y-114305252D01*
X139468269Y-114268899D01*
X139465770Y-114256334D01*
X139465769Y-114256332D01*
X139463867Y-114246769D01*
X139420894Y-114182456D01*
X139404285Y-114123569D01*
X139425462Y-114066166D01*
X139433205Y-114057451D01*
X140661160Y-112829496D01*
X140715677Y-112801719D01*
X140731164Y-112800500D01*
X141046904Y-112800500D01*
X141105095Y-112819407D01*
X141141059Y-112868907D01*
X141141059Y-112930093D01*
X141105095Y-112979593D01*
X141084790Y-112990964D01*
X141069757Y-112997191D01*
X140851601Y-113130877D01*
X140848642Y-113133405D01*
X140848641Y-113133405D01*
X140762028Y-113207379D01*
X140657044Y-113297044D01*
X140642844Y-113313670D01*
X140521035Y-113456291D01*
X140490877Y-113491601D01*
X140357191Y-113709757D01*
X140259278Y-113946140D01*
X140258372Y-113949915D01*
X140258371Y-113949917D01*
X140243339Y-114012528D01*
X140199548Y-114194930D01*
X140199244Y-114198795D01*
X140199243Y-114198800D01*
X140190483Y-114310110D01*
X140179474Y-114450000D01*
X140179779Y-114453875D01*
X140198249Y-114688558D01*
X140199548Y-114705070D01*
X140200454Y-114708843D01*
X140254216Y-114932774D01*
X140259278Y-114953860D01*
X140357191Y-115190243D01*
X140490877Y-115408399D01*
X140657044Y-115602956D01*
X140660011Y-115605490D01*
X140800197Y-115725220D01*
X140832167Y-115777389D01*
X140827366Y-115838386D01*
X140787629Y-115884911D01*
X140735902Y-115899500D01*
X140682626Y-115899500D01*
X140670990Y-115898814D01*
X140669453Y-115898632D01*
X140635689Y-115894636D01*
X140628413Y-115895965D01*
X140628409Y-115895965D01*
X140577573Y-115905250D01*
X140574505Y-115905761D01*
X140527493Y-115912829D01*
X140516038Y-115914551D01*
X140509525Y-115917679D01*
X140502427Y-115918975D01*
X140468656Y-115936517D01*
X140450002Y-115946207D01*
X140447236Y-115947590D01*
X140393921Y-115973191D01*
X140389481Y-115977295D01*
X140387218Y-115978820D01*
X140382211Y-115981421D01*
X140377172Y-115985725D01*
X140339540Y-116023357D01*
X140336737Y-116026051D01*
X140299876Y-116060124D01*
X140299874Y-116060127D01*
X140294444Y-116065146D01*
X140290922Y-116071210D01*
X140284362Y-116078535D01*
X139604516Y-116758381D01*
X139595801Y-116766124D01*
X139586953Y-116773099D01*
X139529549Y-116794276D01*
X139470661Y-116777667D01*
X139431510Y-116725945D01*
X139405820Y-116646880D01*
X139405816Y-116646870D01*
X139404214Y-116641941D01*
X139401622Y-116637452D01*
X139401620Y-116637447D01*
X139314790Y-116487055D01*
X139312195Y-116482560D01*
X139308727Y-116478708D01*
X139308723Y-116478703D01*
X139192520Y-116349646D01*
X139192516Y-116349642D01*
X139189050Y-116345793D01*
X139040161Y-116237619D01*
X139035429Y-116235512D01*
X139035427Y-116235511D01*
X138876774Y-116164874D01*
X138876771Y-116164873D01*
X138872034Y-116162764D01*
X138692019Y-116124500D01*
X138507981Y-116124500D01*
X138327966Y-116162764D01*
X138323229Y-116164873D01*
X138323226Y-116164874D01*
X138164573Y-116235511D01*
X138164571Y-116235512D01*
X138159839Y-116237619D01*
X138010950Y-116345793D01*
X138007484Y-116349642D01*
X138007480Y-116349646D01*
X137891277Y-116478703D01*
X137891273Y-116478708D01*
X137887805Y-116482560D01*
X137885210Y-116487055D01*
X137798380Y-116637447D01*
X137798378Y-116637452D01*
X137795786Y-116641941D01*
X137789020Y-116662764D01*
X137740517Y-116812039D01*
X137740516Y-116812044D01*
X137738915Y-116816971D01*
X137719678Y-117000000D01*
X137738915Y-117183029D01*
X137740516Y-117187956D01*
X137740517Y-117187961D01*
X137767510Y-117271036D01*
X137795786Y-117358059D01*
X137798378Y-117362548D01*
X137798380Y-117362553D01*
X137862128Y-117472967D01*
X137887805Y-117517440D01*
X137891273Y-117521292D01*
X137891277Y-117521297D01*
X138007480Y-117650354D01*
X138007484Y-117650358D01*
X138010950Y-117654207D01*
X138159839Y-117762381D01*
X138164571Y-117764488D01*
X138164573Y-117764489D01*
X138323226Y-117835126D01*
X138323229Y-117835127D01*
X138327966Y-117837236D01*
X138402731Y-117853128D01*
X138502905Y-117874421D01*
X138507981Y-117875500D01*
X138692019Y-117875500D01*
X138697090Y-117874422D01*
X138697101Y-117874421D01*
X138867205Y-117838263D01*
X138928055Y-117844658D01*
X138973525Y-117885599D01*
X138986247Y-117945447D01*
X138957793Y-118005103D01*
X138442393Y-118520504D01*
X138387876Y-118548281D01*
X138372389Y-118549500D01*
X138081645Y-118549500D01*
X138023454Y-118530593D01*
X138007042Y-118515580D01*
X137976092Y-118480101D01*
X137972169Y-118475604D01*
X137859842Y-118396659D01*
X137838335Y-118381544D01*
X137838334Y-118381544D01*
X137833453Y-118378113D01*
X137675487Y-118316524D01*
X137669572Y-118315745D01*
X137669571Y-118315745D01*
X137549387Y-118299923D01*
X137546174Y-118299500D01*
X129831165Y-118299500D01*
X129772974Y-118280593D01*
X129761161Y-118270504D01*
X128864922Y-117374265D01*
X128860323Y-117369341D01*
X128826092Y-117330101D01*
X128822169Y-117325604D01*
X128809886Y-117316971D01*
X128769948Y-117288903D01*
X128765786Y-117285812D01*
X128764149Y-117284528D01*
X128739856Y-117265480D01*
X128720242Y-117250100D01*
X128720239Y-117250098D01*
X128715543Y-117246416D01*
X128710099Y-117243958D01*
X128707165Y-117242633D01*
X128690972Y-117233398D01*
X128683453Y-117228113D01*
X128677894Y-117225946D01*
X128677891Y-117225944D01*
X128623973Y-117204922D01*
X128619197Y-117202914D01*
X128590920Y-117190147D01*
X128561016Y-117176645D01*
X128551975Y-117174969D01*
X128534062Y-117169867D01*
X128525487Y-117166524D01*
X128462181Y-117158190D01*
X128457086Y-117157384D01*
X128424913Y-117151420D01*
X128400180Y-117146836D01*
X128400177Y-117146836D01*
X128394308Y-117145748D01*
X128333203Y-117149271D01*
X128332076Y-117149336D01*
X128326378Y-117149500D01*
X124141938Y-117149500D01*
X124135204Y-117149271D01*
X124077284Y-117145322D01*
X124071413Y-117146347D01*
X124071408Y-117146347D01*
X124014394Y-117156298D01*
X124009267Y-117157055D01*
X123951818Y-117164007D01*
X123951817Y-117164007D01*
X123945894Y-117164724D01*
X123937282Y-117167978D01*
X123919319Y-117172892D01*
X123910260Y-117174473D01*
X123904798Y-117176871D01*
X123904797Y-117176871D01*
X123851807Y-117200132D01*
X123847009Y-117202090D01*
X123787291Y-117224655D01*
X123782374Y-117228035D01*
X123782371Y-117228036D01*
X123779712Y-117229864D01*
X123763434Y-117238925D01*
X123755011Y-117242622D01*
X123729516Y-117262185D01*
X123704367Y-117281482D01*
X123700175Y-117284528D01*
X123670080Y-117305212D01*
X123647563Y-117320688D01*
X123643596Y-117325141D01*
X123643592Y-117325144D01*
X123606107Y-117367217D01*
X123602194Y-117371363D01*
X123452995Y-117520562D01*
X123443259Y-117529100D01*
X123440143Y-117531491D01*
X123435950Y-117534536D01*
X123383349Y-117570688D01*
X123379381Y-117575142D01*
X123341877Y-117617235D01*
X123337963Y-117621381D01*
X122988839Y-117970504D01*
X122934323Y-117998281D01*
X122918836Y-117999500D01*
X122281164Y-117999500D01*
X122222973Y-117980593D01*
X122211160Y-117970504D01*
X121490757Y-117250100D01*
X120764923Y-116524266D01*
X120760324Y-116519342D01*
X120726092Y-116480101D01*
X120722169Y-116475604D01*
X120669939Y-116438897D01*
X120665786Y-116435812D01*
X120660271Y-116431487D01*
X120646868Y-116420978D01*
X120620242Y-116400100D01*
X120620239Y-116400098D01*
X120615543Y-116396416D01*
X120610099Y-116393958D01*
X120607165Y-116392633D01*
X120590972Y-116383398D01*
X120583453Y-116378113D01*
X120577894Y-116375946D01*
X120577891Y-116375944D01*
X120523973Y-116354922D01*
X120519197Y-116352914D01*
X120490920Y-116340147D01*
X120461016Y-116326645D01*
X120451975Y-116324969D01*
X120434062Y-116319867D01*
X120425487Y-116316524D01*
X120362181Y-116308190D01*
X120357086Y-116307384D01*
X120324913Y-116301420D01*
X120300180Y-116296836D01*
X120300177Y-116296836D01*
X120294308Y-116295748D01*
X120233203Y-116299271D01*
X120232076Y-116299336D01*
X120226378Y-116299500D01*
X117435496Y-116299500D01*
X117377305Y-116280593D01*
X117341341Y-116231093D01*
X117341341Y-116169907D01*
X117356954Y-116140232D01*
X117368199Y-116125578D01*
X117443361Y-116027625D01*
X117498830Y-115893709D01*
X117499989Y-115884911D01*
X117516903Y-115756433D01*
X117517750Y-115750000D01*
X117511167Y-115700000D01*
X131107250Y-115700000D01*
X131108097Y-115706433D01*
X131122990Y-115819552D01*
X131126170Y-115843709D01*
X131181639Y-115977625D01*
X131269879Y-116092621D01*
X131384875Y-116180861D01*
X131518791Y-116236330D01*
X131525220Y-116237176D01*
X131525222Y-116237177D01*
X131634721Y-116251593D01*
X131647165Y-116253231D01*
X131656067Y-116254403D01*
X131662500Y-116255250D01*
X131668933Y-116254403D01*
X131677836Y-116253231D01*
X131690279Y-116251593D01*
X131799778Y-116237177D01*
X131799780Y-116237176D01*
X131806209Y-116236330D01*
X131940125Y-116180861D01*
X132055121Y-116092621D01*
X132143361Y-115977625D01*
X132198830Y-115843709D01*
X132202011Y-115819552D01*
X132216903Y-115706433D01*
X132217750Y-115700000D01*
X132214093Y-115672221D01*
X132199677Y-115562722D01*
X132199676Y-115562720D01*
X132198830Y-115556291D01*
X132143361Y-115422375D01*
X132055121Y-115307379D01*
X131940125Y-115219139D01*
X131806209Y-115163670D01*
X131799780Y-115162824D01*
X131799778Y-115162823D01*
X131668933Y-115145597D01*
X131662500Y-115144750D01*
X131656067Y-115145597D01*
X131525222Y-115162823D01*
X131525220Y-115162824D01*
X131518791Y-115163670D01*
X131384875Y-115219139D01*
X131269879Y-115307379D01*
X131181639Y-115422375D01*
X131126170Y-115556291D01*
X131125324Y-115562720D01*
X131125323Y-115562722D01*
X131110907Y-115672221D01*
X131107250Y-115700000D01*
X117511167Y-115700000D01*
X117498830Y-115606291D01*
X117443361Y-115472375D01*
X117355121Y-115357379D01*
X117240125Y-115269139D01*
X117106209Y-115213670D01*
X117099780Y-115212824D01*
X117099778Y-115212823D01*
X116968933Y-115195597D01*
X116962500Y-115194750D01*
X116956067Y-115195597D01*
X116825222Y-115212823D01*
X116825220Y-115212824D01*
X116818791Y-115213670D01*
X116684875Y-115269139D01*
X116569879Y-115357379D01*
X116481639Y-115472375D01*
X116426170Y-115606291D01*
X116407250Y-115750000D01*
X116408097Y-115756433D01*
X116425012Y-115884911D01*
X116426170Y-115893709D01*
X116481639Y-116027625D01*
X116556802Y-116125578D01*
X116568046Y-116140232D01*
X116588470Y-116197908D01*
X116571093Y-116256574D01*
X116522551Y-116293821D01*
X116489504Y-116299500D01*
X115727729Y-116299500D01*
X115720995Y-116299271D01*
X115720683Y-116299250D01*
X115663070Y-116295322D01*
X115619960Y-116302846D01*
X115600182Y-116306297D01*
X115595057Y-116307054D01*
X115537602Y-116314007D01*
X115537599Y-116314008D01*
X115531680Y-116314724D01*
X115523079Y-116317974D01*
X115505105Y-116322891D01*
X115501929Y-116323445D01*
X115501926Y-116323446D01*
X115496047Y-116324472D01*
X115490579Y-116326872D01*
X115490580Y-116326872D01*
X115437590Y-116350132D01*
X115432794Y-116352090D01*
X115373077Y-116374655D01*
X115368160Y-116378034D01*
X115368157Y-116378036D01*
X115365501Y-116379862D01*
X115349219Y-116388925D01*
X115340798Y-116392621D01*
X115336066Y-116396252D01*
X115336061Y-116396255D01*
X115290146Y-116431487D01*
X115285954Y-116434533D01*
X115233349Y-116470688D01*
X115229382Y-116475141D01*
X115229378Y-116475144D01*
X115191877Y-116517235D01*
X115187963Y-116521381D01*
X114938839Y-116770504D01*
X114884323Y-116798281D01*
X114868836Y-116799500D01*
X110457501Y-116799500D01*
X110399310Y-116780593D01*
X110344352Y-116740664D01*
X110340161Y-116737619D01*
X110335429Y-116735512D01*
X110335427Y-116735511D01*
X110176774Y-116664874D01*
X110176771Y-116664873D01*
X110172034Y-116662764D01*
X110052929Y-116637447D01*
X109997091Y-116625578D01*
X109997090Y-116625578D01*
X109992019Y-116624500D01*
X109807981Y-116624500D01*
X109802910Y-116625578D01*
X109802909Y-116625578D01*
X109747071Y-116637447D01*
X109627966Y-116662764D01*
X109623229Y-116664873D01*
X109623226Y-116664874D01*
X109464573Y-116735511D01*
X109464571Y-116735512D01*
X109459839Y-116737619D01*
X109310950Y-116845793D01*
X109307484Y-116849642D01*
X109307480Y-116849646D01*
X109191277Y-116978703D01*
X109191273Y-116978708D01*
X109187805Y-116982560D01*
X109177736Y-117000000D01*
X109098380Y-117137447D01*
X109098378Y-117137452D01*
X109095786Y-117141941D01*
X109084112Y-117177871D01*
X109040517Y-117312039D01*
X109040516Y-117312044D01*
X109038915Y-117316971D01*
X109019678Y-117500000D01*
X109038915Y-117683029D01*
X109040516Y-117687956D01*
X109040517Y-117687961D01*
X109066894Y-117769139D01*
X109095786Y-117858059D01*
X109098378Y-117862548D01*
X109098380Y-117862553D01*
X109111686Y-117885599D01*
X109187805Y-118017440D01*
X109191273Y-118021292D01*
X109191277Y-118021297D01*
X109307480Y-118150354D01*
X109307484Y-118150358D01*
X109310950Y-118154207D01*
X109459839Y-118262381D01*
X109464571Y-118264488D01*
X109464573Y-118264489D01*
X109623226Y-118335126D01*
X109623229Y-118335127D01*
X109627966Y-118337236D01*
X109633039Y-118338314D01*
X109633038Y-118338314D01*
X109764008Y-118366153D01*
X109807981Y-118375500D01*
X109992019Y-118375500D01*
X110035993Y-118366153D01*
X110166962Y-118338314D01*
X110166961Y-118338314D01*
X110172034Y-118337236D01*
X110176771Y-118335127D01*
X110176774Y-118335126D01*
X110335427Y-118264489D01*
X110335429Y-118264488D01*
X110340161Y-118262381D01*
X110399309Y-118219407D01*
X110457501Y-118200500D01*
X115172271Y-118200500D01*
X115179005Y-118200729D01*
X115236930Y-118204678D01*
X115242801Y-118203653D01*
X115242806Y-118203653D01*
X115299820Y-118193702D01*
X115304947Y-118192945D01*
X115362396Y-118185993D01*
X115362397Y-118185993D01*
X115368320Y-118185276D01*
X115376932Y-118182022D01*
X115394895Y-118177108D01*
X115403954Y-118175527D01*
X115445584Y-118157253D01*
X115462404Y-118149870D01*
X115467202Y-118147912D01*
X115521339Y-118127455D01*
X115526923Y-118125345D01*
X115531838Y-118121967D01*
X115531846Y-118121963D01*
X115534505Y-118120135D01*
X115550778Y-118111077D01*
X115553739Y-118109777D01*
X115559202Y-118107379D01*
X115563934Y-118103748D01*
X115563939Y-118103745D01*
X115609854Y-118068513D01*
X115614046Y-118065467D01*
X115661732Y-118032693D01*
X115661733Y-118032692D01*
X115666651Y-118029312D01*
X115670618Y-118024859D01*
X115670622Y-118024856D01*
X115708123Y-117982765D01*
X115712037Y-117978619D01*
X115961161Y-117729496D01*
X116015677Y-117701719D01*
X116031164Y-117700500D01*
X116489504Y-117700500D01*
X116547695Y-117719407D01*
X116583659Y-117768907D01*
X116583659Y-117830093D01*
X116568046Y-117859767D01*
X116481639Y-117972375D01*
X116426170Y-118106291D01*
X116425324Y-118112720D01*
X116425323Y-118112722D01*
X116414720Y-118193257D01*
X116407250Y-118250000D01*
X116408097Y-118256433D01*
X116424117Y-118378113D01*
X116426170Y-118393709D01*
X116481639Y-118527625D01*
X116569879Y-118642621D01*
X116684875Y-118730861D01*
X116818791Y-118786330D01*
X116825220Y-118787176D01*
X116825222Y-118787177D01*
X116956067Y-118804403D01*
X116962500Y-118805250D01*
X116968933Y-118804403D01*
X117099778Y-118787177D01*
X117099780Y-118787176D01*
X117106209Y-118786330D01*
X117240125Y-118730861D01*
X117355121Y-118642621D01*
X117443361Y-118527625D01*
X117498830Y-118393709D01*
X117500884Y-118378113D01*
X117516903Y-118256433D01*
X117517750Y-118250000D01*
X117510280Y-118193257D01*
X117499677Y-118112722D01*
X117499676Y-118112720D01*
X117498830Y-118106291D01*
X117443361Y-117972375D01*
X117356954Y-117859768D01*
X117336530Y-117802092D01*
X117353907Y-117743426D01*
X117402449Y-117706179D01*
X117435496Y-117700500D01*
X119918836Y-117700500D01*
X119977027Y-117719407D01*
X119988840Y-117729496D01*
X120731515Y-118472172D01*
X121435077Y-119175734D01*
X121439676Y-119180658D01*
X121477831Y-119224396D01*
X121489637Y-119232693D01*
X121530056Y-119261100D01*
X121534216Y-119264190D01*
X121575515Y-119296572D01*
X121584457Y-119303583D01*
X121592842Y-119307369D01*
X121609022Y-119316599D01*
X121613868Y-119320005D01*
X121650604Y-119368934D01*
X121651564Y-119430112D01*
X121616381Y-119480170D01*
X121556941Y-119500000D01*
X119876505Y-119500000D01*
X119818314Y-119481093D01*
X119782350Y-119431593D01*
X119782350Y-119370407D01*
X119816237Y-119322458D01*
X119849972Y-119296572D01*
X119855121Y-119292621D01*
X119943361Y-119177625D01*
X119998830Y-119043709D01*
X120004146Y-119003335D01*
X120016903Y-118906433D01*
X120017750Y-118900000D01*
X120005164Y-118804403D01*
X119999677Y-118762722D01*
X119999676Y-118762720D01*
X119998830Y-118756291D01*
X119943361Y-118622375D01*
X119855121Y-118507379D01*
X119740125Y-118419139D01*
X119606209Y-118363670D01*
X119599780Y-118362824D01*
X119599778Y-118362823D01*
X119468933Y-118345597D01*
X119462500Y-118344750D01*
X119456067Y-118345597D01*
X119325222Y-118362823D01*
X119325220Y-118362824D01*
X119318791Y-118363670D01*
X119184875Y-118419139D01*
X119069879Y-118507379D01*
X118981639Y-118622375D01*
X118926170Y-118756291D01*
X118925324Y-118762720D01*
X118925323Y-118762722D01*
X118919836Y-118804403D01*
X118907250Y-118900000D01*
X118908097Y-118906433D01*
X118920855Y-119003335D01*
X118926170Y-119043709D01*
X118981639Y-119177625D01*
X119069879Y-119292621D01*
X119075028Y-119296572D01*
X119108763Y-119322458D01*
X119143418Y-119372883D01*
X119141816Y-119434047D01*
X119104569Y-119482589D01*
X119048495Y-119500000D01*
X107099000Y-119500000D01*
X107040809Y-119481093D01*
X107004845Y-119431593D01*
X107000000Y-119401000D01*
X107000000Y-116194748D01*
X109024500Y-116194748D01*
X109025448Y-116199512D01*
X109033028Y-116237619D01*
X109036133Y-116253231D01*
X109080448Y-116319552D01*
X109146769Y-116363867D01*
X109156332Y-116365769D01*
X109156334Y-116365770D01*
X109179005Y-116370279D01*
X109205252Y-116375500D01*
X110594748Y-116375500D01*
X110620995Y-116370279D01*
X110643666Y-116365770D01*
X110643668Y-116365769D01*
X110653231Y-116363867D01*
X110719552Y-116319552D01*
X110763867Y-116253231D01*
X110766973Y-116237619D01*
X110774552Y-116199512D01*
X110775500Y-116194748D01*
X110775500Y-114805252D01*
X110763867Y-114746769D01*
X110719552Y-114680448D01*
X110673984Y-114650000D01*
X127757250Y-114650000D01*
X127758097Y-114656433D01*
X127768923Y-114738660D01*
X127776170Y-114793709D01*
X127831639Y-114927625D01*
X127919879Y-115042621D01*
X128034875Y-115130861D01*
X128168791Y-115186330D01*
X128175220Y-115187176D01*
X128175222Y-115187177D01*
X128306067Y-115204403D01*
X128312500Y-115205250D01*
X128318933Y-115204403D01*
X128449778Y-115187177D01*
X128449780Y-115187176D01*
X128456209Y-115186330D01*
X128590125Y-115130861D01*
X128705121Y-115042621D01*
X128793361Y-114927625D01*
X128848830Y-114793709D01*
X128856078Y-114738660D01*
X128866903Y-114656433D01*
X128867750Y-114650000D01*
X128860249Y-114593027D01*
X128849677Y-114512722D01*
X128849676Y-114512720D01*
X128848830Y-114506291D01*
X128804803Y-114400000D01*
X133744750Y-114400000D01*
X133745597Y-114406433D01*
X133757955Y-114500297D01*
X133763670Y-114543709D01*
X133819139Y-114677625D01*
X133907379Y-114792621D01*
X134022375Y-114880861D01*
X134156291Y-114936330D01*
X134162720Y-114937176D01*
X134162722Y-114937177D01*
X134293567Y-114954403D01*
X134300000Y-114955250D01*
X134306433Y-114954403D01*
X134437278Y-114937177D01*
X134437280Y-114937176D01*
X134443709Y-114936330D01*
X134577625Y-114880861D01*
X134692621Y-114792621D01*
X134780861Y-114677625D01*
X134836330Y-114543709D01*
X134842046Y-114500297D01*
X134854403Y-114406433D01*
X134855250Y-114400000D01*
X134836330Y-114256291D01*
X134780861Y-114122375D01*
X134692621Y-114007379D01*
X134682618Y-113999703D01*
X134582774Y-113923090D01*
X134577625Y-113919139D01*
X134443709Y-113863670D01*
X134437280Y-113862824D01*
X134437278Y-113862823D01*
X134306433Y-113845597D01*
X134300000Y-113844750D01*
X134293567Y-113845597D01*
X134162722Y-113862823D01*
X134162720Y-113862824D01*
X134156291Y-113863670D01*
X134022375Y-113919139D01*
X134017226Y-113923090D01*
X133917383Y-113999703D01*
X133907379Y-114007379D01*
X133819139Y-114122375D01*
X133763670Y-114256291D01*
X133744750Y-114400000D01*
X128804803Y-114400000D01*
X128793361Y-114372375D01*
X128705121Y-114257379D01*
X128590125Y-114169139D01*
X128456209Y-114113670D01*
X128449780Y-114112824D01*
X128449778Y-114112823D01*
X128318933Y-114095597D01*
X128312500Y-114094750D01*
X128306067Y-114095597D01*
X128175222Y-114112823D01*
X128175220Y-114112824D01*
X128168791Y-114113670D01*
X128034875Y-114169139D01*
X127919879Y-114257379D01*
X127831639Y-114372375D01*
X127776170Y-114506291D01*
X127775324Y-114512720D01*
X127775323Y-114512722D01*
X127764751Y-114593027D01*
X127757250Y-114650000D01*
X110673984Y-114650000D01*
X110653231Y-114636133D01*
X110643668Y-114634231D01*
X110643666Y-114634230D01*
X110620995Y-114629721D01*
X110594748Y-114624500D01*
X109205252Y-114624500D01*
X109179005Y-114629721D01*
X109156334Y-114634230D01*
X109156332Y-114634231D01*
X109146769Y-114636133D01*
X109080448Y-114680448D01*
X109036133Y-114746769D01*
X109024500Y-114805252D01*
X109024500Y-116194748D01*
X107000000Y-116194748D01*
X107000000Y-113400000D01*
X112457250Y-113400000D01*
X112476170Y-113543709D01*
X112531639Y-113677625D01*
X112619879Y-113792621D01*
X112734875Y-113880861D01*
X112868791Y-113936330D01*
X112875220Y-113937176D01*
X112875222Y-113937177D01*
X113006067Y-113954403D01*
X113012500Y-113955250D01*
X113018933Y-113954403D01*
X113149778Y-113937177D01*
X113149780Y-113937176D01*
X113156209Y-113936330D01*
X113290125Y-113880861D01*
X113405121Y-113792621D01*
X113493361Y-113677625D01*
X113525514Y-113600000D01*
X117257250Y-113600000D01*
X117258097Y-113606433D01*
X117273643Y-113724513D01*
X117276170Y-113743709D01*
X117331639Y-113877625D01*
X117419879Y-113992621D01*
X117534875Y-114080861D01*
X117668791Y-114136330D01*
X117675220Y-114137176D01*
X117675222Y-114137177D01*
X117806067Y-114154403D01*
X117812500Y-114155250D01*
X117818933Y-114154403D01*
X117949778Y-114137177D01*
X117949780Y-114137176D01*
X117956209Y-114136330D01*
X118090125Y-114080861D01*
X118205121Y-113992621D01*
X118293361Y-113877625D01*
X118348830Y-113743709D01*
X118351358Y-113724513D01*
X118366903Y-113606433D01*
X118367750Y-113600000D01*
X118352506Y-113484214D01*
X118349677Y-113462722D01*
X118349676Y-113462720D01*
X118348830Y-113456291D01*
X118325514Y-113400000D01*
X122857250Y-113400000D01*
X122876170Y-113543709D01*
X122931639Y-113677625D01*
X123019879Y-113792621D01*
X123134875Y-113880861D01*
X123268791Y-113936330D01*
X123275220Y-113937176D01*
X123275222Y-113937177D01*
X123406067Y-113954403D01*
X123412500Y-113955250D01*
X123418933Y-113954403D01*
X123549778Y-113937177D01*
X123549780Y-113937176D01*
X123556209Y-113936330D01*
X123690125Y-113880861D01*
X123730344Y-113850000D01*
X124407250Y-113850000D01*
X124408097Y-113856433D01*
X124421107Y-113955250D01*
X124426170Y-113993709D01*
X124481639Y-114127625D01*
X124569879Y-114242621D01*
X124575028Y-114246572D01*
X124583963Y-114253428D01*
X124684875Y-114330861D01*
X124818791Y-114386330D01*
X124825220Y-114387176D01*
X124825222Y-114387177D01*
X124956067Y-114404403D01*
X124962500Y-114405250D01*
X124968933Y-114404403D01*
X125099778Y-114387177D01*
X125099780Y-114387176D01*
X125106209Y-114386330D01*
X125240125Y-114330861D01*
X125341037Y-114253428D01*
X125349972Y-114246572D01*
X125355121Y-114242621D01*
X125443361Y-114127625D01*
X125498830Y-113993709D01*
X125503894Y-113955250D01*
X125516903Y-113856433D01*
X125517750Y-113850000D01*
X125510716Y-113796572D01*
X125499677Y-113712722D01*
X125499676Y-113712720D01*
X125498830Y-113706291D01*
X125443361Y-113572375D01*
X125355121Y-113457379D01*
X125316614Y-113427831D01*
X125271960Y-113393567D01*
X125240125Y-113369139D01*
X125106209Y-113313670D01*
X125099780Y-113312824D01*
X125099778Y-113312823D01*
X124968933Y-113295597D01*
X124962500Y-113294750D01*
X124956067Y-113295597D01*
X124825222Y-113312823D01*
X124825220Y-113312824D01*
X124818791Y-113313670D01*
X124684875Y-113369139D01*
X124653040Y-113393567D01*
X124608387Y-113427831D01*
X124569879Y-113457379D01*
X124481639Y-113572375D01*
X124426170Y-113706291D01*
X124425324Y-113712720D01*
X124425323Y-113712722D01*
X124414284Y-113796572D01*
X124407250Y-113850000D01*
X123730344Y-113850000D01*
X123805121Y-113792621D01*
X123893361Y-113677625D01*
X123948830Y-113543709D01*
X123967750Y-113400000D01*
X123957530Y-113322375D01*
X123949677Y-113262722D01*
X123949676Y-113262720D01*
X123948830Y-113256291D01*
X123893361Y-113122375D01*
X123805121Y-113007379D01*
X123690125Y-112919139D01*
X123556209Y-112863670D01*
X123549780Y-112862824D01*
X123549778Y-112862823D01*
X123418933Y-112845597D01*
X123412500Y-112844750D01*
X123406067Y-112845597D01*
X123275222Y-112862823D01*
X123275220Y-112862824D01*
X123268791Y-112863670D01*
X123134875Y-112919139D01*
X123019879Y-113007379D01*
X122931639Y-113122375D01*
X122876170Y-113256291D01*
X122875324Y-113262720D01*
X122875323Y-113262722D01*
X122867470Y-113322375D01*
X122857250Y-113400000D01*
X118325514Y-113400000D01*
X118293361Y-113322375D01*
X118205121Y-113207379D01*
X118090125Y-113119139D01*
X117956209Y-113063670D01*
X117949780Y-113062824D01*
X117949778Y-113062823D01*
X117818933Y-113045597D01*
X117812500Y-113044750D01*
X117806067Y-113045597D01*
X117675222Y-113062823D01*
X117675220Y-113062824D01*
X117668791Y-113063670D01*
X117534875Y-113119139D01*
X117419879Y-113207379D01*
X117331639Y-113322375D01*
X117276170Y-113456291D01*
X117275324Y-113462720D01*
X117275323Y-113462722D01*
X117272494Y-113484214D01*
X117257250Y-113600000D01*
X113525514Y-113600000D01*
X113548830Y-113543709D01*
X113567750Y-113400000D01*
X113557530Y-113322375D01*
X113549677Y-113262722D01*
X113549676Y-113262720D01*
X113548830Y-113256291D01*
X113493361Y-113122375D01*
X113405121Y-113007379D01*
X113290125Y-112919139D01*
X113156209Y-112863670D01*
X113149780Y-112862824D01*
X113149778Y-112862823D01*
X113018933Y-112845597D01*
X113012500Y-112844750D01*
X113006067Y-112845597D01*
X112875222Y-112862823D01*
X112875220Y-112862824D01*
X112868791Y-112863670D01*
X112734875Y-112919139D01*
X112619879Y-113007379D01*
X112531639Y-113122375D01*
X112476170Y-113256291D01*
X112475324Y-113262720D01*
X112475323Y-113262722D01*
X112467470Y-113322375D01*
X112457250Y-113400000D01*
X107000000Y-113400000D01*
X107000000Y-112000000D01*
X121244750Y-112000000D01*
X121263670Y-112143709D01*
X121319139Y-112277625D01*
X121407379Y-112392621D01*
X121522375Y-112480861D01*
X121656291Y-112536330D01*
X121662720Y-112537176D01*
X121662722Y-112537177D01*
X121793567Y-112554403D01*
X121800000Y-112555250D01*
X121806433Y-112554403D01*
X121937278Y-112537177D01*
X121937280Y-112537176D01*
X121943709Y-112536330D01*
X122077625Y-112480861D01*
X122192621Y-112392621D01*
X122196572Y-112387472D01*
X122201159Y-112382885D01*
X122203250Y-112384976D01*
X122243601Y-112357246D01*
X122275820Y-112353349D01*
X122283261Y-112354951D01*
X122315071Y-112351186D01*
X122320963Y-112350839D01*
X122320963Y-112350836D01*
X122325030Y-112350500D01*
X122329115Y-112350500D01*
X122333141Y-112349830D01*
X122333152Y-112349829D01*
X122347119Y-112347504D01*
X122351726Y-112346848D01*
X122374689Y-112344130D01*
X122391012Y-112342198D01*
X122391013Y-112342198D01*
X122399138Y-112341236D01*
X122406122Y-112337882D01*
X122407454Y-112337461D01*
X122415103Y-112336188D01*
X122457160Y-112313495D01*
X122461283Y-112311395D01*
X122498717Y-112293420D01*
X122498721Y-112293418D01*
X122504326Y-112290726D01*
X122508274Y-112287408D01*
X122509782Y-112285900D01*
X122511071Y-112284718D01*
X122512097Y-112283852D01*
X122517794Y-112280778D01*
X122523345Y-112274773D01*
X122523350Y-112274769D01*
X122551809Y-112243982D01*
X122554503Y-112241179D01*
X123813937Y-110981745D01*
X123830240Y-110968580D01*
X123832274Y-110967267D01*
X123832278Y-110967264D01*
X123839152Y-110962825D01*
X123858984Y-110937668D01*
X123862900Y-110933262D01*
X123862899Y-110933261D01*
X123865550Y-110930132D01*
X123868429Y-110927253D01*
X123871404Y-110923090D01*
X123879037Y-110912409D01*
X123881836Y-110908681D01*
X123892669Y-110894939D01*
X123911392Y-110871189D01*
X123913957Y-110863886D01*
X123914609Y-110862631D01*
X123919111Y-110856330D01*
X123932791Y-110810588D01*
X123934232Y-110806154D01*
X123947992Y-110766971D01*
X123947993Y-110766965D01*
X123950055Y-110761094D01*
X123950500Y-110755956D01*
X123950500Y-110755321D01*
X123951234Y-110751912D01*
X123981966Y-110699004D01*
X124037927Y-110674265D01*
X124085901Y-110681286D01*
X124218791Y-110736330D01*
X124225220Y-110737176D01*
X124225222Y-110737177D01*
X124356067Y-110754403D01*
X124362500Y-110755250D01*
X124368933Y-110754403D01*
X124499778Y-110737177D01*
X124499780Y-110737176D01*
X124506209Y-110736330D01*
X124640125Y-110680861D01*
X124755121Y-110592621D01*
X124843361Y-110477625D01*
X124898830Y-110343709D01*
X124901312Y-110324862D01*
X124916903Y-110206433D01*
X124917750Y-110200000D01*
X128594750Y-110200000D01*
X128595597Y-110206433D01*
X128611189Y-110324862D01*
X128613670Y-110343709D01*
X128669139Y-110477625D01*
X128757379Y-110592621D01*
X128872375Y-110680861D01*
X129006291Y-110736330D01*
X129012720Y-110737176D01*
X129012722Y-110737177D01*
X129143567Y-110754403D01*
X129150000Y-110755250D01*
X129156433Y-110754403D01*
X129287278Y-110737177D01*
X129287280Y-110737176D01*
X129293709Y-110736330D01*
X129427625Y-110680861D01*
X129542621Y-110592621D01*
X129630861Y-110477625D01*
X129686330Y-110343709D01*
X129688812Y-110324862D01*
X129704403Y-110206433D01*
X129705250Y-110200000D01*
X129692664Y-110104403D01*
X129687177Y-110062722D01*
X129687176Y-110062720D01*
X129686330Y-110056291D01*
X129630861Y-109922375D01*
X129542621Y-109807379D01*
X129427625Y-109719139D01*
X129293709Y-109663670D01*
X129287280Y-109662824D01*
X129287278Y-109662823D01*
X129156433Y-109645597D01*
X129150000Y-109644750D01*
X129143567Y-109645597D01*
X129012722Y-109662823D01*
X129012720Y-109662824D01*
X129006291Y-109663670D01*
X128872375Y-109719139D01*
X128757379Y-109807379D01*
X128669139Y-109922375D01*
X128613670Y-110056291D01*
X128612824Y-110062720D01*
X128612823Y-110062722D01*
X128607336Y-110104403D01*
X128594750Y-110200000D01*
X124917750Y-110200000D01*
X124905164Y-110104403D01*
X124899677Y-110062722D01*
X124899676Y-110062720D01*
X124898830Y-110056291D01*
X124843361Y-109922375D01*
X124755121Y-109807379D01*
X124640125Y-109719139D01*
X124506209Y-109663670D01*
X124499780Y-109662824D01*
X124499778Y-109662823D01*
X124368933Y-109645597D01*
X124362500Y-109644750D01*
X124356067Y-109645597D01*
X124225222Y-109662823D01*
X124225220Y-109662824D01*
X124218791Y-109663670D01*
X124161795Y-109687278D01*
X124087385Y-109718099D01*
X124026388Y-109722899D01*
X123974219Y-109690930D01*
X123950805Y-109634402D01*
X123950500Y-109626635D01*
X123950500Y-108886190D01*
X123969407Y-108827999D01*
X123979496Y-108816186D01*
X124812840Y-107982842D01*
X124867357Y-107955065D01*
X124887078Y-107954806D01*
X124887078Y-107954403D01*
X124893566Y-107954403D01*
X124900000Y-107955250D01*
X124906433Y-107954403D01*
X125037278Y-107937177D01*
X125037280Y-107937176D01*
X125043709Y-107936330D01*
X125177625Y-107880861D01*
X125292621Y-107792621D01*
X125380861Y-107677625D01*
X125436330Y-107543709D01*
X125437302Y-107536330D01*
X125454403Y-107406433D01*
X125455250Y-107400000D01*
X125436330Y-107256291D01*
X125433724Y-107250000D01*
X128544750Y-107250000D01*
X128563670Y-107393709D01*
X128619139Y-107527625D01*
X128707379Y-107642621D01*
X128822375Y-107730861D01*
X128956291Y-107786330D01*
X128962720Y-107787176D01*
X128962722Y-107787177D01*
X129093567Y-107804403D01*
X129100000Y-107805250D01*
X129106433Y-107804403D01*
X129237278Y-107787177D01*
X129237280Y-107787176D01*
X129243709Y-107786330D01*
X129377625Y-107730861D01*
X129492621Y-107642621D01*
X129580861Y-107527625D01*
X129636330Y-107393709D01*
X129655250Y-107250000D01*
X129642536Y-107153428D01*
X129637177Y-107112722D01*
X129637176Y-107112720D01*
X129636330Y-107106291D01*
X129580861Y-106972375D01*
X129492621Y-106857379D01*
X129377625Y-106769139D01*
X129243709Y-106713670D01*
X129237280Y-106712824D01*
X129237278Y-106712823D01*
X129106433Y-106695597D01*
X129100000Y-106694750D01*
X129093567Y-106695597D01*
X128962722Y-106712823D01*
X128962720Y-106712824D01*
X128956291Y-106713670D01*
X128822375Y-106769139D01*
X128707379Y-106857379D01*
X128619139Y-106972375D01*
X128563670Y-107106291D01*
X128562824Y-107112720D01*
X128562823Y-107112722D01*
X128557464Y-107153428D01*
X128544750Y-107250000D01*
X125433724Y-107250000D01*
X125380861Y-107122375D01*
X125292621Y-107007379D01*
X125177625Y-106919139D01*
X125043709Y-106863670D01*
X125037280Y-106862824D01*
X125037278Y-106862823D01*
X124906433Y-106845597D01*
X124900000Y-106844750D01*
X124893567Y-106845597D01*
X124762722Y-106862823D01*
X124762720Y-106862824D01*
X124756291Y-106863670D01*
X124622375Y-106919139D01*
X124507379Y-107007379D01*
X124419139Y-107122375D01*
X124363670Y-107256291D01*
X124344750Y-107400000D01*
X124345597Y-107406433D01*
X124345597Y-107412922D01*
X124343699Y-107412922D01*
X124334152Y-107464403D01*
X124317158Y-107487160D01*
X123386063Y-108418255D01*
X123369760Y-108431420D01*
X123367726Y-108432733D01*
X123367722Y-108432736D01*
X123360848Y-108437175D01*
X123341015Y-108462332D01*
X123337101Y-108466737D01*
X123337102Y-108466738D01*
X123334449Y-108469869D01*
X123331572Y-108472746D01*
X123320956Y-108487601D01*
X123318170Y-108491312D01*
X123288608Y-108528811D01*
X123286042Y-108536118D01*
X123285395Y-108537363D01*
X123280889Y-108543669D01*
X123278545Y-108551508D01*
X123267208Y-108589415D01*
X123265767Y-108593851D01*
X123249945Y-108638906D01*
X123249500Y-108644044D01*
X123249500Y-108646182D01*
X123249426Y-108647901D01*
X123249311Y-108649262D01*
X123247456Y-108655464D01*
X123247777Y-108663635D01*
X123249424Y-108705554D01*
X123249500Y-108709441D01*
X123249500Y-109743486D01*
X123230593Y-109801677D01*
X123181093Y-109837641D01*
X123119907Y-109837641D01*
X123071959Y-109803754D01*
X123059634Y-109787692D01*
X123059629Y-109787687D01*
X123055678Y-109782538D01*
X122940682Y-109694298D01*
X122806766Y-109638829D01*
X122800337Y-109637983D01*
X122800335Y-109637982D01*
X122669490Y-109620756D01*
X122663057Y-109619909D01*
X122656624Y-109620756D01*
X122525779Y-109637982D01*
X122525777Y-109637983D01*
X122519348Y-109638829D01*
X122385432Y-109694298D01*
X122270436Y-109782538D01*
X122182196Y-109897534D01*
X122126727Y-110031450D01*
X122125881Y-110037879D01*
X122125880Y-110037881D01*
X122119502Y-110086330D01*
X122107807Y-110175159D01*
X122126727Y-110318868D01*
X122182196Y-110452784D01*
X122270436Y-110567780D01*
X122385432Y-110656020D01*
X122519348Y-110711489D01*
X122525777Y-110712335D01*
X122525779Y-110712336D01*
X122656624Y-110729562D01*
X122663057Y-110730409D01*
X122669490Y-110729562D01*
X122800335Y-110712336D01*
X122800337Y-110712335D01*
X122806766Y-110711489D01*
X122835286Y-110699676D01*
X122896281Y-110694875D01*
X122948450Y-110726845D01*
X122971865Y-110783372D01*
X122957581Y-110842867D01*
X122943174Y-110861144D01*
X122256456Y-111547862D01*
X122201939Y-111575639D01*
X122141507Y-111566068D01*
X122126184Y-111556400D01*
X122117457Y-111549703D01*
X122077625Y-111519139D01*
X121943709Y-111463670D01*
X121937280Y-111462824D01*
X121937278Y-111462823D01*
X121806433Y-111445597D01*
X121800000Y-111444750D01*
X121793567Y-111445597D01*
X121662722Y-111462823D01*
X121662720Y-111462824D01*
X121656291Y-111463670D01*
X121522375Y-111519139D01*
X121407379Y-111607379D01*
X121319139Y-111722375D01*
X121263670Y-111856291D01*
X121244750Y-112000000D01*
X107000000Y-112000000D01*
X107000000Y-109450000D01*
X110007250Y-109450000D01*
X110008097Y-109456433D01*
X110019569Y-109543567D01*
X110026170Y-109593709D01*
X110081639Y-109727625D01*
X110169879Y-109842621D01*
X110284875Y-109930861D01*
X110418791Y-109986330D01*
X110425220Y-109987176D01*
X110425222Y-109987177D01*
X110556067Y-110004403D01*
X110562500Y-110005250D01*
X110568933Y-110004403D01*
X110699778Y-109987177D01*
X110699780Y-109987176D01*
X110706209Y-109986330D01*
X110840125Y-109930861D01*
X110955121Y-109842621D01*
X111043361Y-109727625D01*
X111098830Y-109593709D01*
X111105432Y-109543567D01*
X111116903Y-109456433D01*
X111117750Y-109450000D01*
X111112842Y-109412722D01*
X111099677Y-109312722D01*
X111099676Y-109312720D01*
X111098830Y-109306291D01*
X111043361Y-109172375D01*
X110955121Y-109057379D01*
X110840125Y-108969139D01*
X110706209Y-108913670D01*
X110699780Y-108912824D01*
X110699778Y-108912823D01*
X110568933Y-108895597D01*
X110562500Y-108894750D01*
X110556067Y-108895597D01*
X110425222Y-108912823D01*
X110425220Y-108912824D01*
X110418791Y-108913670D01*
X110284875Y-108969139D01*
X110169879Y-109057379D01*
X110081639Y-109172375D01*
X110026170Y-109306291D01*
X110025324Y-109312720D01*
X110025323Y-109312722D01*
X110012158Y-109412722D01*
X110007250Y-109450000D01*
X107000000Y-109450000D01*
X107000000Y-107000000D01*
X121344750Y-107000000D01*
X121346399Y-107012528D01*
X121358607Y-107105250D01*
X121363670Y-107143709D01*
X121419139Y-107277625D01*
X121507379Y-107392621D01*
X121512528Y-107396572D01*
X121525194Y-107406291D01*
X121622375Y-107480861D01*
X121756291Y-107536330D01*
X121762720Y-107537176D01*
X121762722Y-107537177D01*
X121893567Y-107554403D01*
X121900000Y-107555250D01*
X121906433Y-107554403D01*
X122037278Y-107537177D01*
X122037280Y-107537176D01*
X122043709Y-107536330D01*
X122177625Y-107480861D01*
X122274806Y-107406291D01*
X122287472Y-107396572D01*
X122292621Y-107392621D01*
X122380861Y-107277625D01*
X122436330Y-107143709D01*
X122441394Y-107105250D01*
X122453601Y-107012528D01*
X122455250Y-107000000D01*
X122844750Y-107000000D01*
X122846399Y-107012528D01*
X122858607Y-107105250D01*
X122863670Y-107143709D01*
X122919139Y-107277625D01*
X123007379Y-107392621D01*
X123012528Y-107396572D01*
X123025194Y-107406291D01*
X123122375Y-107480861D01*
X123256291Y-107536330D01*
X123262720Y-107537176D01*
X123262722Y-107537177D01*
X123393567Y-107554403D01*
X123400000Y-107555250D01*
X123406433Y-107554403D01*
X123537278Y-107537177D01*
X123537280Y-107537176D01*
X123543709Y-107536330D01*
X123677625Y-107480861D01*
X123774806Y-107406291D01*
X123787472Y-107396572D01*
X123792621Y-107392621D01*
X123880861Y-107277625D01*
X123936330Y-107143709D01*
X123941394Y-107105250D01*
X123953601Y-107012528D01*
X123955250Y-107000000D01*
X123947018Y-106937472D01*
X123937177Y-106862722D01*
X123937176Y-106862720D01*
X123936330Y-106856291D01*
X123880861Y-106722375D01*
X123792621Y-106607379D01*
X123677625Y-106519139D01*
X123543709Y-106463670D01*
X123537280Y-106462824D01*
X123537278Y-106462823D01*
X123406433Y-106445597D01*
X123400000Y-106444750D01*
X123393567Y-106445597D01*
X123262722Y-106462823D01*
X123262720Y-106462824D01*
X123256291Y-106463670D01*
X123122375Y-106519139D01*
X123007379Y-106607379D01*
X122919139Y-106722375D01*
X122863670Y-106856291D01*
X122862824Y-106862720D01*
X122862823Y-106862722D01*
X122852982Y-106937472D01*
X122844750Y-107000000D01*
X122455250Y-107000000D01*
X122447018Y-106937472D01*
X122437177Y-106862722D01*
X122437176Y-106862720D01*
X122436330Y-106856291D01*
X122380861Y-106722375D01*
X122292621Y-106607379D01*
X122177625Y-106519139D01*
X122043709Y-106463670D01*
X122037280Y-106462824D01*
X122037278Y-106462823D01*
X121906433Y-106445597D01*
X121900000Y-106444750D01*
X121893567Y-106445597D01*
X121762722Y-106462823D01*
X121762720Y-106462824D01*
X121756291Y-106463670D01*
X121622375Y-106519139D01*
X121507379Y-106607379D01*
X121419139Y-106722375D01*
X121363670Y-106856291D01*
X121362824Y-106862720D01*
X121362823Y-106862722D01*
X121352982Y-106937472D01*
X121344750Y-107000000D01*
X107000000Y-107000000D01*
X107000000Y-106200000D01*
X108444750Y-106200000D01*
X108445597Y-106206433D01*
X108454279Y-106272375D01*
X108463670Y-106343709D01*
X108519139Y-106477625D01*
X108607379Y-106592621D01*
X108722375Y-106680861D01*
X108856291Y-106736330D01*
X108862720Y-106737176D01*
X108862722Y-106737177D01*
X108993567Y-106754403D01*
X109000000Y-106755250D01*
X109006433Y-106754403D01*
X109137278Y-106737177D01*
X109137280Y-106737176D01*
X109143709Y-106736330D01*
X109277625Y-106680861D01*
X109392621Y-106592621D01*
X109480861Y-106477625D01*
X109536330Y-106343709D01*
X109545722Y-106272375D01*
X109554403Y-106206433D01*
X109555250Y-106200000D01*
X109542664Y-106104403D01*
X109537177Y-106062722D01*
X109537176Y-106062720D01*
X109536330Y-106056291D01*
X109480861Y-105922375D01*
X109392621Y-105807379D01*
X109277625Y-105719139D01*
X109143709Y-105663670D01*
X109137280Y-105662824D01*
X109137278Y-105662823D01*
X109006433Y-105645597D01*
X109000000Y-105644750D01*
X108993567Y-105645597D01*
X108862722Y-105662823D01*
X108862720Y-105662824D01*
X108856291Y-105663670D01*
X108722375Y-105719139D01*
X108607379Y-105807379D01*
X108519139Y-105922375D01*
X108463670Y-106056291D01*
X108462824Y-106062720D01*
X108462823Y-106062722D01*
X108457336Y-106104403D01*
X108444750Y-106200000D01*
X107000000Y-106200000D01*
X107000000Y-105200000D01*
X107244750Y-105200000D01*
X107245597Y-105206433D01*
X107254279Y-105272375D01*
X107263670Y-105343709D01*
X107319139Y-105477625D01*
X107407379Y-105592621D01*
X107522375Y-105680861D01*
X107656291Y-105736330D01*
X107662720Y-105737176D01*
X107662722Y-105737177D01*
X107793567Y-105754403D01*
X107800000Y-105755250D01*
X107806433Y-105754403D01*
X107937278Y-105737177D01*
X107937280Y-105737176D01*
X107943709Y-105736330D01*
X108077625Y-105680861D01*
X108192621Y-105592621D01*
X108280861Y-105477625D01*
X108336330Y-105343709D01*
X108345722Y-105272375D01*
X108354403Y-105206433D01*
X108355250Y-105200000D01*
X109344750Y-105200000D01*
X109345597Y-105206433D01*
X109354279Y-105272375D01*
X109363670Y-105343709D01*
X109419139Y-105477625D01*
X109507379Y-105592621D01*
X109622375Y-105680861D01*
X109756291Y-105736330D01*
X109762720Y-105737176D01*
X109762722Y-105737177D01*
X109893567Y-105754403D01*
X109900000Y-105755250D01*
X109906433Y-105754403D01*
X110037278Y-105737177D01*
X110037280Y-105737176D01*
X110043709Y-105736330D01*
X110177625Y-105680861D01*
X110292621Y-105592621D01*
X110363692Y-105500000D01*
X130344750Y-105500000D01*
X130363670Y-105643709D01*
X130419139Y-105777625D01*
X130507379Y-105892621D01*
X130512528Y-105896572D01*
X130517115Y-105901159D01*
X130515773Y-105902501D01*
X130545426Y-105945656D01*
X130549500Y-105973764D01*
X130549500Y-108952052D01*
X130547282Y-108972888D01*
X130545049Y-108983261D01*
X130546011Y-108991386D01*
X130548814Y-109015071D01*
X130549161Y-109020963D01*
X130549164Y-109020963D01*
X130549500Y-109025030D01*
X130549500Y-109029115D01*
X130550170Y-109033141D01*
X130550171Y-109033152D01*
X130552496Y-109047119D01*
X130553152Y-109051726D01*
X130558764Y-109099138D01*
X130562118Y-109106122D01*
X130562539Y-109107454D01*
X130563812Y-109115103D01*
X130586505Y-109157160D01*
X130588605Y-109161283D01*
X130606580Y-109198717D01*
X130606582Y-109198721D01*
X130609274Y-109204326D01*
X130612592Y-109208274D01*
X130614100Y-109209782D01*
X130615282Y-109211071D01*
X130616148Y-109212097D01*
X130619222Y-109217794D01*
X130625227Y-109223345D01*
X130625231Y-109223350D01*
X130656018Y-109251809D01*
X130658821Y-109254503D01*
X132717158Y-111312840D01*
X132744935Y-111367357D01*
X132745194Y-111387078D01*
X132745597Y-111387078D01*
X132745597Y-111393566D01*
X132744750Y-111400000D01*
X132746823Y-111415745D01*
X132757929Y-111500100D01*
X132763670Y-111543709D01*
X132819139Y-111677625D01*
X132907379Y-111792621D01*
X133022375Y-111880861D01*
X133156291Y-111936330D01*
X133162720Y-111937176D01*
X133162722Y-111937177D01*
X133293567Y-111954403D01*
X133300000Y-111955250D01*
X133306433Y-111954403D01*
X133437278Y-111937177D01*
X133437280Y-111937176D01*
X133443709Y-111936330D01*
X133577625Y-111880861D01*
X133692621Y-111792621D01*
X133780861Y-111677625D01*
X133836330Y-111543709D01*
X133842072Y-111500100D01*
X133853177Y-111415745D01*
X133855250Y-111400000D01*
X133836330Y-111256291D01*
X133780861Y-111122375D01*
X133692621Y-111007379D01*
X133577625Y-110919139D01*
X133443709Y-110863670D01*
X133437280Y-110862824D01*
X133437278Y-110862823D01*
X133306433Y-110845597D01*
X133300000Y-110844750D01*
X133293566Y-110845597D01*
X133287078Y-110845597D01*
X133287078Y-110843699D01*
X133235597Y-110834152D01*
X133212840Y-110817158D01*
X131945682Y-109550000D01*
X135744750Y-109550000D01*
X135745597Y-109556433D01*
X135759604Y-109662823D01*
X135763670Y-109693709D01*
X135819139Y-109827625D01*
X135907379Y-109942621D01*
X136022375Y-110030861D01*
X136156291Y-110086330D01*
X136162720Y-110087176D01*
X136162722Y-110087177D01*
X136293567Y-110104403D01*
X136300000Y-110105250D01*
X136306433Y-110104403D01*
X136437278Y-110087177D01*
X136437280Y-110087176D01*
X136443709Y-110086330D01*
X136577625Y-110030861D01*
X136692621Y-109942621D01*
X136780861Y-109827625D01*
X136836330Y-109693709D01*
X136840397Y-109662823D01*
X136854403Y-109556433D01*
X136855250Y-109550000D01*
X139544750Y-109550000D01*
X139545597Y-109556433D01*
X139559604Y-109662823D01*
X139563670Y-109693709D01*
X139619139Y-109827625D01*
X139707379Y-109942621D01*
X139822375Y-110030861D01*
X139956291Y-110086330D01*
X139962720Y-110087176D01*
X139962722Y-110087177D01*
X140093567Y-110104403D01*
X140100000Y-110105250D01*
X140106433Y-110104403D01*
X140237278Y-110087177D01*
X140237280Y-110087176D01*
X140243709Y-110086330D01*
X140377625Y-110030861D01*
X140492621Y-109942621D01*
X140580861Y-109827625D01*
X140636330Y-109693709D01*
X140640397Y-109662823D01*
X140654403Y-109556433D01*
X140655250Y-109550000D01*
X140651593Y-109522221D01*
X140637177Y-109412722D01*
X140637176Y-109412720D01*
X140636330Y-109406291D01*
X140580861Y-109272375D01*
X140492621Y-109157379D01*
X140377625Y-109069139D01*
X140243709Y-109013670D01*
X140237280Y-109012824D01*
X140237278Y-109012823D01*
X140106433Y-108995597D01*
X140100000Y-108994750D01*
X140093567Y-108995597D01*
X139962722Y-109012823D01*
X139962720Y-109012824D01*
X139956291Y-109013670D01*
X139822375Y-109069139D01*
X139707379Y-109157379D01*
X139619139Y-109272375D01*
X139563670Y-109406291D01*
X139562824Y-109412720D01*
X139562823Y-109412722D01*
X139548407Y-109522221D01*
X139544750Y-109550000D01*
X136855250Y-109550000D01*
X136851593Y-109522221D01*
X136837177Y-109412722D01*
X136837176Y-109412720D01*
X136836330Y-109406291D01*
X136780861Y-109272375D01*
X136692621Y-109157379D01*
X136577625Y-109069139D01*
X136443709Y-109013670D01*
X136437280Y-109012824D01*
X136437278Y-109012823D01*
X136306433Y-108995597D01*
X136300000Y-108994750D01*
X136293567Y-108995597D01*
X136162722Y-109012823D01*
X136162720Y-109012824D01*
X136156291Y-109013670D01*
X136022375Y-109069139D01*
X135907379Y-109157379D01*
X135819139Y-109272375D01*
X135763670Y-109406291D01*
X135762824Y-109412720D01*
X135762823Y-109412722D01*
X135748407Y-109522221D01*
X135744750Y-109550000D01*
X131945682Y-109550000D01*
X131279496Y-108883814D01*
X131251719Y-108829297D01*
X131250500Y-108813810D01*
X131250500Y-107250000D01*
X131944750Y-107250000D01*
X131963670Y-107393709D01*
X132019139Y-107527625D01*
X132107379Y-107642621D01*
X132222375Y-107730861D01*
X132356291Y-107786330D01*
X132362720Y-107787176D01*
X132362722Y-107787177D01*
X132493567Y-107804403D01*
X132500000Y-107805250D01*
X132506433Y-107804403D01*
X132637278Y-107787177D01*
X132637280Y-107787176D01*
X132643709Y-107786330D01*
X132777625Y-107730861D01*
X132892621Y-107642621D01*
X132963692Y-107550000D01*
X135744750Y-107550000D01*
X135763670Y-107693709D01*
X135819139Y-107827625D01*
X135907379Y-107942621D01*
X136022375Y-108030861D01*
X136156291Y-108086330D01*
X136162720Y-108087176D01*
X136162722Y-108087177D01*
X136293567Y-108104403D01*
X136300000Y-108105250D01*
X136306433Y-108104403D01*
X136437278Y-108087177D01*
X136437280Y-108087176D01*
X136443709Y-108086330D01*
X136577625Y-108030861D01*
X136692621Y-107942621D01*
X136780861Y-107827625D01*
X136836330Y-107693709D01*
X136855250Y-107550000D01*
X139544750Y-107550000D01*
X139563670Y-107693709D01*
X139619139Y-107827625D01*
X139707379Y-107942621D01*
X139822375Y-108030861D01*
X139956291Y-108086330D01*
X139962720Y-108087176D01*
X139962722Y-108087177D01*
X140093567Y-108104403D01*
X140100000Y-108105250D01*
X140106433Y-108104403D01*
X140237278Y-108087177D01*
X140237280Y-108087176D01*
X140243709Y-108086330D01*
X140377625Y-108030861D01*
X140492621Y-107942621D01*
X140580861Y-107827625D01*
X140636330Y-107693709D01*
X140655250Y-107550000D01*
X140636330Y-107406291D01*
X140580861Y-107272375D01*
X140492621Y-107157379D01*
X140482618Y-107149703D01*
X140382774Y-107073090D01*
X140377625Y-107069139D01*
X140243709Y-107013670D01*
X140237280Y-107012824D01*
X140237278Y-107012823D01*
X140106433Y-106995597D01*
X140100000Y-106994750D01*
X140093567Y-106995597D01*
X139962722Y-107012823D01*
X139962720Y-107012824D01*
X139956291Y-107013670D01*
X139822375Y-107069139D01*
X139817226Y-107073090D01*
X139717383Y-107149703D01*
X139707379Y-107157379D01*
X139619139Y-107272375D01*
X139563670Y-107406291D01*
X139544750Y-107550000D01*
X136855250Y-107550000D01*
X136836330Y-107406291D01*
X136780861Y-107272375D01*
X136692621Y-107157379D01*
X136682618Y-107149703D01*
X136582774Y-107073090D01*
X136577625Y-107069139D01*
X136443709Y-107013670D01*
X136437280Y-107012824D01*
X136437278Y-107012823D01*
X136306433Y-106995597D01*
X136300000Y-106994750D01*
X136293567Y-106995597D01*
X136162722Y-107012823D01*
X136162720Y-107012824D01*
X136156291Y-107013670D01*
X136022375Y-107069139D01*
X136017226Y-107073090D01*
X135917383Y-107149703D01*
X135907379Y-107157379D01*
X135819139Y-107272375D01*
X135763670Y-107406291D01*
X135744750Y-107550000D01*
X132963692Y-107550000D01*
X132980861Y-107527625D01*
X133036330Y-107393709D01*
X133055250Y-107250000D01*
X133042536Y-107153428D01*
X133037177Y-107112722D01*
X133037176Y-107112720D01*
X133036330Y-107106291D01*
X132980861Y-106972375D01*
X132892621Y-106857379D01*
X132777625Y-106769139D01*
X132643709Y-106713670D01*
X132637280Y-106712824D01*
X132637278Y-106712823D01*
X132506433Y-106695597D01*
X132500000Y-106694750D01*
X132493567Y-106695597D01*
X132362722Y-106712823D01*
X132362720Y-106712824D01*
X132356291Y-106713670D01*
X132222375Y-106769139D01*
X132107379Y-106857379D01*
X132019139Y-106972375D01*
X131963670Y-107106291D01*
X131962824Y-107112720D01*
X131962823Y-107112722D01*
X131957464Y-107153428D01*
X131944750Y-107250000D01*
X131250500Y-107250000D01*
X131250500Y-106550000D01*
X133194750Y-106550000D01*
X133195597Y-106556433D01*
X133212306Y-106683345D01*
X133213670Y-106693709D01*
X133269139Y-106827625D01*
X133357379Y-106942621D01*
X133472375Y-107030861D01*
X133606291Y-107086330D01*
X133612720Y-107087176D01*
X133612722Y-107087177D01*
X133743567Y-107104403D01*
X133750000Y-107105250D01*
X133756433Y-107104403D01*
X133887278Y-107087177D01*
X133887280Y-107087176D01*
X133893709Y-107086330D01*
X134027625Y-107030861D01*
X134142621Y-106942621D01*
X134230861Y-106827625D01*
X134286330Y-106693709D01*
X134287695Y-106683345D01*
X134304403Y-106556433D01*
X134305250Y-106550000D01*
X134296399Y-106482774D01*
X134287177Y-106412722D01*
X134287176Y-106412720D01*
X134286330Y-106406291D01*
X134230861Y-106272375D01*
X134142621Y-106157379D01*
X134027625Y-106069139D01*
X133893709Y-106013670D01*
X133887280Y-106012824D01*
X133887278Y-106012823D01*
X133756433Y-105995597D01*
X133750000Y-105994750D01*
X133743567Y-105995597D01*
X133612722Y-106012823D01*
X133612720Y-106012824D01*
X133606291Y-106013670D01*
X133472375Y-106069139D01*
X133357379Y-106157379D01*
X133269139Y-106272375D01*
X133213670Y-106406291D01*
X133212824Y-106412720D01*
X133212823Y-106412722D01*
X133203601Y-106482774D01*
X133194750Y-106550000D01*
X131250500Y-106550000D01*
X131250500Y-105973764D01*
X131269407Y-105915573D01*
X131283170Y-105901444D01*
X131282885Y-105901159D01*
X131287472Y-105896572D01*
X131292621Y-105892621D01*
X131380861Y-105777625D01*
X131436330Y-105643709D01*
X131455250Y-105500000D01*
X132144750Y-105500000D01*
X132163670Y-105643709D01*
X132219139Y-105777625D01*
X132307379Y-105892621D01*
X132422375Y-105980861D01*
X132556291Y-106036330D01*
X132562720Y-106037176D01*
X132562722Y-106037177D01*
X132693567Y-106054403D01*
X132700000Y-106055250D01*
X132706433Y-106054403D01*
X132837278Y-106037177D01*
X132837280Y-106037176D01*
X132843709Y-106036330D01*
X132977625Y-105980861D01*
X133092621Y-105892621D01*
X133180861Y-105777625D01*
X133236330Y-105643709D01*
X133248667Y-105550000D01*
X135744750Y-105550000D01*
X135745597Y-105556433D01*
X135762306Y-105683345D01*
X135763670Y-105693709D01*
X135819139Y-105827625D01*
X135907379Y-105942621D01*
X136022375Y-106030861D01*
X136156291Y-106086330D01*
X136162720Y-106087176D01*
X136162722Y-106087177D01*
X136293567Y-106104403D01*
X136300000Y-106105250D01*
X136306433Y-106104403D01*
X136437278Y-106087177D01*
X136437280Y-106087176D01*
X136443709Y-106086330D01*
X136577625Y-106030861D01*
X136692621Y-105942621D01*
X136780861Y-105827625D01*
X136836330Y-105693709D01*
X136837695Y-105683345D01*
X136854403Y-105556433D01*
X136855250Y-105550000D01*
X139544750Y-105550000D01*
X139545597Y-105556433D01*
X139562306Y-105683345D01*
X139563670Y-105693709D01*
X139619139Y-105827625D01*
X139707379Y-105942621D01*
X139822375Y-106030861D01*
X139956291Y-106086330D01*
X139962720Y-106087176D01*
X139962722Y-106087177D01*
X140093567Y-106104403D01*
X140100000Y-106105250D01*
X140106433Y-106104403D01*
X140237278Y-106087177D01*
X140237280Y-106087176D01*
X140243709Y-106086330D01*
X140377625Y-106030861D01*
X140492621Y-105942621D01*
X140580861Y-105827625D01*
X140636330Y-105693709D01*
X140637695Y-105683345D01*
X140654403Y-105556433D01*
X140655250Y-105550000D01*
X140646399Y-105482774D01*
X140637177Y-105412722D01*
X140637176Y-105412720D01*
X140636330Y-105406291D01*
X140580861Y-105272375D01*
X140492621Y-105157379D01*
X140377625Y-105069139D01*
X140243709Y-105013670D01*
X140237280Y-105012824D01*
X140237278Y-105012823D01*
X140106433Y-104995597D01*
X140100000Y-104994750D01*
X140093567Y-104995597D01*
X139962722Y-105012823D01*
X139962720Y-105012824D01*
X139956291Y-105013670D01*
X139822375Y-105069139D01*
X139707379Y-105157379D01*
X139619139Y-105272375D01*
X139563670Y-105406291D01*
X139562824Y-105412720D01*
X139562823Y-105412722D01*
X139553601Y-105482774D01*
X139544750Y-105550000D01*
X136855250Y-105550000D01*
X136846399Y-105482774D01*
X136837177Y-105412722D01*
X136837176Y-105412720D01*
X136836330Y-105406291D01*
X136780861Y-105272375D01*
X136692621Y-105157379D01*
X136577625Y-105069139D01*
X136443709Y-105013670D01*
X136437280Y-105012824D01*
X136437278Y-105012823D01*
X136306433Y-104995597D01*
X136300000Y-104994750D01*
X136293567Y-104995597D01*
X136162722Y-105012823D01*
X136162720Y-105012824D01*
X136156291Y-105013670D01*
X136022375Y-105069139D01*
X135907379Y-105157379D01*
X135819139Y-105272375D01*
X135763670Y-105406291D01*
X135762824Y-105412720D01*
X135762823Y-105412722D01*
X135753601Y-105482774D01*
X135744750Y-105550000D01*
X133248667Y-105550000D01*
X133255250Y-105500000D01*
X133251515Y-105471627D01*
X133237177Y-105362722D01*
X133237176Y-105362720D01*
X133236330Y-105356291D01*
X133180861Y-105222375D01*
X133092621Y-105107379D01*
X132977625Y-105019139D01*
X132843709Y-104963670D01*
X132837280Y-104962824D01*
X132837278Y-104962823D01*
X132706433Y-104945597D01*
X132700000Y-104944750D01*
X132693567Y-104945597D01*
X132562722Y-104962823D01*
X132562720Y-104962824D01*
X132556291Y-104963670D01*
X132422375Y-105019139D01*
X132307379Y-105107379D01*
X132219139Y-105222375D01*
X132163670Y-105356291D01*
X132162824Y-105362720D01*
X132162823Y-105362722D01*
X132148485Y-105471627D01*
X132144750Y-105500000D01*
X131455250Y-105500000D01*
X131451515Y-105471627D01*
X131437177Y-105362722D01*
X131437176Y-105362720D01*
X131436330Y-105356291D01*
X131380861Y-105222375D01*
X131292621Y-105107379D01*
X131177625Y-105019139D01*
X131043709Y-104963670D01*
X131037280Y-104962824D01*
X131037278Y-104962823D01*
X130906433Y-104945597D01*
X130900000Y-104944750D01*
X130893567Y-104945597D01*
X130762722Y-104962823D01*
X130762720Y-104962824D01*
X130756291Y-104963670D01*
X130622375Y-105019139D01*
X130507379Y-105107379D01*
X130419139Y-105222375D01*
X130363670Y-105356291D01*
X130362824Y-105362720D01*
X130362823Y-105362722D01*
X130348485Y-105471627D01*
X130344750Y-105500000D01*
X110363692Y-105500000D01*
X110380861Y-105477625D01*
X110436330Y-105343709D01*
X110445722Y-105272375D01*
X110454403Y-105206433D01*
X110455250Y-105200000D01*
X110438022Y-105069139D01*
X110437177Y-105062722D01*
X110437176Y-105062720D01*
X110436330Y-105056291D01*
X110380861Y-104922375D01*
X110292621Y-104807379D01*
X110177625Y-104719139D01*
X110043709Y-104663670D01*
X110037280Y-104662824D01*
X110037278Y-104662823D01*
X109906433Y-104645597D01*
X109900000Y-104644750D01*
X109893567Y-104645597D01*
X109762722Y-104662823D01*
X109762720Y-104662824D01*
X109756291Y-104663670D01*
X109622375Y-104719139D01*
X109507379Y-104807379D01*
X109419139Y-104922375D01*
X109363670Y-105056291D01*
X109362824Y-105062720D01*
X109362823Y-105062722D01*
X109361978Y-105069139D01*
X109344750Y-105200000D01*
X108355250Y-105200000D01*
X108338022Y-105069139D01*
X108337177Y-105062722D01*
X108337176Y-105062720D01*
X108336330Y-105056291D01*
X108280861Y-104922375D01*
X108192621Y-104807379D01*
X108077625Y-104719139D01*
X107943709Y-104663670D01*
X107937280Y-104662824D01*
X107937278Y-104662823D01*
X107806433Y-104645597D01*
X107800000Y-104644750D01*
X107793567Y-104645597D01*
X107662722Y-104662823D01*
X107662720Y-104662824D01*
X107656291Y-104663670D01*
X107522375Y-104719139D01*
X107407379Y-104807379D01*
X107319139Y-104922375D01*
X107263670Y-105056291D01*
X107262824Y-105062720D01*
X107262823Y-105062722D01*
X107261978Y-105069139D01*
X107244750Y-105200000D01*
X107000000Y-105200000D01*
X107000000Y-103949046D01*
X107018907Y-103890855D01*
X107068407Y-103854891D01*
X107129593Y-103854891D01*
X107136885Y-103857582D01*
X107179108Y-103875070D01*
X107206291Y-103886330D01*
X107212720Y-103887176D01*
X107212722Y-103887177D01*
X107343567Y-103904403D01*
X107350000Y-103905250D01*
X107356433Y-103904403D01*
X107487278Y-103887177D01*
X107487280Y-103887176D01*
X107493709Y-103886330D01*
X107627625Y-103830861D01*
X107724806Y-103756291D01*
X107737472Y-103746572D01*
X107742621Y-103742621D01*
X107830861Y-103627625D01*
X107886330Y-103493709D01*
X107901959Y-103375000D01*
X108194750Y-103375000D01*
X108195597Y-103381433D01*
X108211168Y-103499703D01*
X108213670Y-103518709D01*
X108269139Y-103652625D01*
X108357379Y-103767621D01*
X108472375Y-103855861D01*
X108606291Y-103911330D01*
X108612720Y-103912176D01*
X108612722Y-103912177D01*
X108743567Y-103929403D01*
X108750000Y-103930250D01*
X108756433Y-103929403D01*
X108887278Y-103912177D01*
X108887280Y-103912176D01*
X108893709Y-103911330D01*
X109027625Y-103855861D01*
X109142621Y-103767621D01*
X109230861Y-103652625D01*
X109286330Y-103518709D01*
X109288833Y-103499703D01*
X109301959Y-103400000D01*
X109594750Y-103400000D01*
X109595597Y-103406433D01*
X109611168Y-103524703D01*
X109613670Y-103543709D01*
X109669139Y-103677625D01*
X109757379Y-103792621D01*
X109872375Y-103880861D01*
X110006291Y-103936330D01*
X110012720Y-103937176D01*
X110012722Y-103937177D01*
X110143567Y-103954403D01*
X110150000Y-103955250D01*
X110156433Y-103954403D01*
X110287278Y-103937177D01*
X110287280Y-103937176D01*
X110293709Y-103936330D01*
X110427625Y-103880861D01*
X110542621Y-103792621D01*
X110630861Y-103677625D01*
X110686330Y-103543709D01*
X110688833Y-103524703D01*
X110704403Y-103406433D01*
X110705250Y-103400000D01*
X110698667Y-103350000D01*
X113294750Y-103350000D01*
X113313670Y-103493709D01*
X113369139Y-103627625D01*
X113457379Y-103742621D01*
X113462528Y-103746572D01*
X113475194Y-103756291D01*
X113572375Y-103830861D01*
X113706291Y-103886330D01*
X113712720Y-103887176D01*
X113712722Y-103887177D01*
X113843567Y-103904403D01*
X113850000Y-103905250D01*
X113856433Y-103904403D01*
X113987278Y-103887177D01*
X113987280Y-103887176D01*
X113993709Y-103886330D01*
X114127625Y-103830861D01*
X114224806Y-103756291D01*
X114237472Y-103746572D01*
X114242621Y-103742621D01*
X114330861Y-103627625D01*
X114386330Y-103493709D01*
X114401959Y-103375000D01*
X114694750Y-103375000D01*
X114695597Y-103381433D01*
X114711168Y-103499703D01*
X114713670Y-103518709D01*
X114769139Y-103652625D01*
X114857379Y-103767621D01*
X114972375Y-103855861D01*
X115106291Y-103911330D01*
X115112720Y-103912176D01*
X115112722Y-103912177D01*
X115243567Y-103929403D01*
X115250000Y-103930250D01*
X115256433Y-103929403D01*
X115387278Y-103912177D01*
X115387280Y-103912176D01*
X115393709Y-103911330D01*
X115527625Y-103855861D01*
X115642621Y-103767621D01*
X115730861Y-103652625D01*
X115786330Y-103518709D01*
X115788833Y-103499703D01*
X115804403Y-103381433D01*
X115805250Y-103375000D01*
X115801959Y-103350000D01*
X116094750Y-103350000D01*
X116113670Y-103493709D01*
X116169139Y-103627625D01*
X116257379Y-103742621D01*
X116262528Y-103746572D01*
X116275194Y-103756291D01*
X116372375Y-103830861D01*
X116506291Y-103886330D01*
X116512720Y-103887176D01*
X116512722Y-103887177D01*
X116643567Y-103904403D01*
X116650000Y-103905250D01*
X116656433Y-103904403D01*
X116689877Y-103900000D01*
X117644750Y-103900000D01*
X117663670Y-104043709D01*
X117719139Y-104177625D01*
X117807379Y-104292621D01*
X117922375Y-104380861D01*
X118056291Y-104436330D01*
X118062720Y-104437176D01*
X118062722Y-104437177D01*
X118193567Y-104454403D01*
X118200000Y-104455250D01*
X118206433Y-104454403D01*
X118337278Y-104437177D01*
X118337280Y-104437176D01*
X118343709Y-104436330D01*
X118477625Y-104380861D01*
X118592621Y-104292621D01*
X118680861Y-104177625D01*
X118736330Y-104043709D01*
X118755250Y-103900000D01*
X118749766Y-103858345D01*
X118737177Y-103762722D01*
X118737176Y-103762720D01*
X118736330Y-103756291D01*
X118680861Y-103622375D01*
X118592621Y-103507379D01*
X118582618Y-103499703D01*
X118482774Y-103423090D01*
X118477625Y-103419139D01*
X118343709Y-103363670D01*
X118337280Y-103362824D01*
X118337278Y-103362823D01*
X118239877Y-103350000D01*
X129294750Y-103350000D01*
X129313670Y-103493709D01*
X129369139Y-103627625D01*
X129457379Y-103742621D01*
X129462528Y-103746572D01*
X129475194Y-103756291D01*
X129572375Y-103830861D01*
X129706291Y-103886330D01*
X129712720Y-103887176D01*
X129712722Y-103887177D01*
X129843567Y-103904403D01*
X129850000Y-103905250D01*
X129856433Y-103904403D01*
X129987278Y-103887177D01*
X129987280Y-103887176D01*
X129993709Y-103886330D01*
X130127625Y-103830861D01*
X130224806Y-103756291D01*
X130237472Y-103746572D01*
X130242621Y-103742621D01*
X130330861Y-103627625D01*
X130386330Y-103493709D01*
X130401959Y-103375000D01*
X130694750Y-103375000D01*
X130695597Y-103381433D01*
X130711168Y-103499703D01*
X130713670Y-103518709D01*
X130769139Y-103652625D01*
X130857379Y-103767621D01*
X130972375Y-103855861D01*
X131106291Y-103911330D01*
X131112720Y-103912176D01*
X131112722Y-103912177D01*
X131243567Y-103929403D01*
X131250000Y-103930250D01*
X131256433Y-103929403D01*
X131387278Y-103912177D01*
X131387280Y-103912176D01*
X131393709Y-103911330D01*
X131527625Y-103855861D01*
X131642621Y-103767621D01*
X131730861Y-103652625D01*
X131786330Y-103518709D01*
X131788833Y-103499703D01*
X131801959Y-103400000D01*
X132094750Y-103400000D01*
X132095597Y-103406433D01*
X132111168Y-103524703D01*
X132113670Y-103543709D01*
X132169139Y-103677625D01*
X132257379Y-103792621D01*
X132372375Y-103880861D01*
X132506291Y-103936330D01*
X132512720Y-103937176D01*
X132512722Y-103937177D01*
X132643567Y-103954403D01*
X132650000Y-103955250D01*
X132656433Y-103954403D01*
X132787278Y-103937177D01*
X132787280Y-103937176D01*
X132793709Y-103936330D01*
X132927625Y-103880861D01*
X133042621Y-103792621D01*
X133130861Y-103677625D01*
X133186330Y-103543709D01*
X133188833Y-103524703D01*
X133204403Y-103406433D01*
X133205250Y-103400000D01*
X133198667Y-103350000D01*
X135794750Y-103350000D01*
X135813670Y-103493709D01*
X135869139Y-103627625D01*
X135957379Y-103742621D01*
X135962528Y-103746572D01*
X135975194Y-103756291D01*
X136072375Y-103830861D01*
X136206291Y-103886330D01*
X136212720Y-103887176D01*
X136212722Y-103887177D01*
X136343567Y-103904403D01*
X136350000Y-103905250D01*
X136356433Y-103904403D01*
X136487278Y-103887177D01*
X136487280Y-103887176D01*
X136493709Y-103886330D01*
X136627625Y-103830861D01*
X136724806Y-103756291D01*
X136737472Y-103746572D01*
X136742621Y-103742621D01*
X136830861Y-103627625D01*
X136886330Y-103493709D01*
X136901959Y-103375000D01*
X137194750Y-103375000D01*
X137195597Y-103381433D01*
X137211168Y-103499703D01*
X137213670Y-103518709D01*
X137269139Y-103652625D01*
X137357379Y-103767621D01*
X137472375Y-103855861D01*
X137606291Y-103911330D01*
X137612720Y-103912176D01*
X137612722Y-103912177D01*
X137743567Y-103929403D01*
X137750000Y-103930250D01*
X137756433Y-103929403D01*
X137887278Y-103912177D01*
X137887280Y-103912176D01*
X137893709Y-103911330D01*
X138027625Y-103855861D01*
X138142621Y-103767621D01*
X138230861Y-103652625D01*
X138286330Y-103518709D01*
X138288833Y-103499703D01*
X138301959Y-103400000D01*
X138594750Y-103400000D01*
X138595597Y-103406433D01*
X138611168Y-103524703D01*
X138613670Y-103543709D01*
X138669139Y-103677625D01*
X138757379Y-103792621D01*
X138872375Y-103880861D01*
X139006291Y-103936330D01*
X139012720Y-103937176D01*
X139012722Y-103937177D01*
X139143567Y-103954403D01*
X139150000Y-103955250D01*
X139156433Y-103954403D01*
X139287278Y-103937177D01*
X139287280Y-103937176D01*
X139293709Y-103936330D01*
X139427625Y-103880861D01*
X139542621Y-103792621D01*
X139630861Y-103677625D01*
X139686330Y-103543709D01*
X139688833Y-103524703D01*
X139704403Y-103406433D01*
X139705250Y-103400000D01*
X139686330Y-103256291D01*
X139630861Y-103122375D01*
X139542621Y-103007379D01*
X139427625Y-102919139D01*
X139293709Y-102863670D01*
X139287280Y-102862824D01*
X139287278Y-102862823D01*
X139156433Y-102845597D01*
X139150000Y-102844750D01*
X139143567Y-102845597D01*
X139012722Y-102862823D01*
X139012720Y-102862824D01*
X139006291Y-102863670D01*
X138872375Y-102919139D01*
X138757379Y-103007379D01*
X138669139Y-103122375D01*
X138613670Y-103256291D01*
X138594750Y-103400000D01*
X138301959Y-103400000D01*
X138304403Y-103381433D01*
X138305250Y-103375000D01*
X138290468Y-103262722D01*
X138287177Y-103237722D01*
X138287176Y-103237720D01*
X138286330Y-103231291D01*
X138230861Y-103097375D01*
X138142621Y-102982379D01*
X138027625Y-102894139D01*
X137893709Y-102838670D01*
X137887280Y-102837824D01*
X137887278Y-102837823D01*
X137756433Y-102820597D01*
X137750000Y-102819750D01*
X137743567Y-102820597D01*
X137612722Y-102837823D01*
X137612720Y-102837824D01*
X137606291Y-102838670D01*
X137472375Y-102894139D01*
X137357379Y-102982379D01*
X137269139Y-103097375D01*
X137213670Y-103231291D01*
X137212824Y-103237720D01*
X137212823Y-103237722D01*
X137209532Y-103262722D01*
X137194750Y-103375000D01*
X136901959Y-103375000D01*
X136905250Y-103350000D01*
X136898567Y-103299235D01*
X136887177Y-103212722D01*
X136887176Y-103212720D01*
X136886330Y-103206291D01*
X136830861Y-103072375D01*
X136742621Y-102957379D01*
X136627625Y-102869139D01*
X136493709Y-102813670D01*
X136487280Y-102812824D01*
X136487278Y-102812823D01*
X136356433Y-102795597D01*
X136350000Y-102794750D01*
X136343567Y-102795597D01*
X136212722Y-102812823D01*
X136212720Y-102812824D01*
X136206291Y-102813670D01*
X136072375Y-102869139D01*
X135957379Y-102957379D01*
X135869139Y-103072375D01*
X135813670Y-103206291D01*
X135812824Y-103212720D01*
X135812823Y-103212722D01*
X135801433Y-103299235D01*
X135794750Y-103350000D01*
X133198667Y-103350000D01*
X133186330Y-103256291D01*
X133130861Y-103122375D01*
X133042621Y-103007379D01*
X132927625Y-102919139D01*
X132793709Y-102863670D01*
X132787280Y-102862824D01*
X132787278Y-102862823D01*
X132656433Y-102845597D01*
X132650000Y-102844750D01*
X132643567Y-102845597D01*
X132512722Y-102862823D01*
X132512720Y-102862824D01*
X132506291Y-102863670D01*
X132372375Y-102919139D01*
X132257379Y-103007379D01*
X132169139Y-103122375D01*
X132113670Y-103256291D01*
X132094750Y-103400000D01*
X131801959Y-103400000D01*
X131804403Y-103381433D01*
X131805250Y-103375000D01*
X131790468Y-103262722D01*
X131787177Y-103237722D01*
X131787176Y-103237720D01*
X131786330Y-103231291D01*
X131730861Y-103097375D01*
X131642621Y-102982379D01*
X131527625Y-102894139D01*
X131393709Y-102838670D01*
X131387280Y-102837824D01*
X131387278Y-102837823D01*
X131256433Y-102820597D01*
X131250000Y-102819750D01*
X131243567Y-102820597D01*
X131112722Y-102837823D01*
X131112720Y-102837824D01*
X131106291Y-102838670D01*
X130972375Y-102894139D01*
X130857379Y-102982379D01*
X130769139Y-103097375D01*
X130713670Y-103231291D01*
X130712824Y-103237720D01*
X130712823Y-103237722D01*
X130709532Y-103262722D01*
X130694750Y-103375000D01*
X130401959Y-103375000D01*
X130405250Y-103350000D01*
X130398567Y-103299235D01*
X130387177Y-103212722D01*
X130387176Y-103212720D01*
X130386330Y-103206291D01*
X130330861Y-103072375D01*
X130242621Y-102957379D01*
X130127625Y-102869139D01*
X129993709Y-102813670D01*
X129987280Y-102812824D01*
X129987278Y-102812823D01*
X129856433Y-102795597D01*
X129850000Y-102794750D01*
X129843567Y-102795597D01*
X129712722Y-102812823D01*
X129712720Y-102812824D01*
X129706291Y-102813670D01*
X129572375Y-102869139D01*
X129457379Y-102957379D01*
X129369139Y-103072375D01*
X129313670Y-103206291D01*
X129312824Y-103212720D01*
X129312823Y-103212722D01*
X129301433Y-103299235D01*
X129294750Y-103350000D01*
X118239877Y-103350000D01*
X118206433Y-103345597D01*
X118200000Y-103344750D01*
X118193567Y-103345597D01*
X118062722Y-103362823D01*
X118062720Y-103362824D01*
X118056291Y-103363670D01*
X117922375Y-103419139D01*
X117917226Y-103423090D01*
X117817383Y-103499703D01*
X117807379Y-103507379D01*
X117719139Y-103622375D01*
X117663670Y-103756291D01*
X117662824Y-103762720D01*
X117662823Y-103762722D01*
X117650234Y-103858345D01*
X117644750Y-103900000D01*
X116689877Y-103900000D01*
X116787278Y-103887177D01*
X116787280Y-103887176D01*
X116793709Y-103886330D01*
X116927625Y-103830861D01*
X117024806Y-103756291D01*
X117037472Y-103746572D01*
X117042621Y-103742621D01*
X117130861Y-103627625D01*
X117186330Y-103493709D01*
X117205250Y-103350000D01*
X117198567Y-103299235D01*
X117187177Y-103212722D01*
X117187176Y-103212720D01*
X117186330Y-103206291D01*
X117130861Y-103072375D01*
X117042621Y-102957379D01*
X116927625Y-102869139D01*
X116793709Y-102813670D01*
X116787280Y-102812824D01*
X116787278Y-102812823D01*
X116656433Y-102795597D01*
X116650000Y-102794750D01*
X116643567Y-102795597D01*
X116512722Y-102812823D01*
X116512720Y-102812824D01*
X116506291Y-102813670D01*
X116372375Y-102869139D01*
X116257379Y-102957379D01*
X116169139Y-103072375D01*
X116113670Y-103206291D01*
X116112824Y-103212720D01*
X116112823Y-103212722D01*
X116101433Y-103299235D01*
X116094750Y-103350000D01*
X115801959Y-103350000D01*
X115790468Y-103262722D01*
X115787177Y-103237722D01*
X115787176Y-103237720D01*
X115786330Y-103231291D01*
X115730861Y-103097375D01*
X115642621Y-102982379D01*
X115527625Y-102894139D01*
X115393709Y-102838670D01*
X115387280Y-102837824D01*
X115387278Y-102837823D01*
X115256433Y-102820597D01*
X115250000Y-102819750D01*
X115243567Y-102820597D01*
X115112722Y-102837823D01*
X115112720Y-102837824D01*
X115106291Y-102838670D01*
X114972375Y-102894139D01*
X114857379Y-102982379D01*
X114769139Y-103097375D01*
X114713670Y-103231291D01*
X114712824Y-103237720D01*
X114712823Y-103237722D01*
X114709532Y-103262722D01*
X114694750Y-103375000D01*
X114401959Y-103375000D01*
X114405250Y-103350000D01*
X114398567Y-103299235D01*
X114387177Y-103212722D01*
X114387176Y-103212720D01*
X114386330Y-103206291D01*
X114330861Y-103072375D01*
X114242621Y-102957379D01*
X114127625Y-102869139D01*
X113993709Y-102813670D01*
X113987280Y-102812824D01*
X113987278Y-102812823D01*
X113856433Y-102795597D01*
X113850000Y-102794750D01*
X113843567Y-102795597D01*
X113712722Y-102812823D01*
X113712720Y-102812824D01*
X113706291Y-102813670D01*
X113572375Y-102869139D01*
X113457379Y-102957379D01*
X113369139Y-103072375D01*
X113313670Y-103206291D01*
X113312824Y-103212720D01*
X113312823Y-103212722D01*
X113301433Y-103299235D01*
X113294750Y-103350000D01*
X110698667Y-103350000D01*
X110686330Y-103256291D01*
X110630861Y-103122375D01*
X110542621Y-103007379D01*
X110427625Y-102919139D01*
X110293709Y-102863670D01*
X110287280Y-102862824D01*
X110287278Y-102862823D01*
X110156433Y-102845597D01*
X110150000Y-102844750D01*
X110143567Y-102845597D01*
X110012722Y-102862823D01*
X110012720Y-102862824D01*
X110006291Y-102863670D01*
X109872375Y-102919139D01*
X109757379Y-103007379D01*
X109669139Y-103122375D01*
X109613670Y-103256291D01*
X109594750Y-103400000D01*
X109301959Y-103400000D01*
X109304403Y-103381433D01*
X109305250Y-103375000D01*
X109290468Y-103262722D01*
X109287177Y-103237722D01*
X109287176Y-103237720D01*
X109286330Y-103231291D01*
X109230861Y-103097375D01*
X109142621Y-102982379D01*
X109027625Y-102894139D01*
X108893709Y-102838670D01*
X108887280Y-102837824D01*
X108887278Y-102837823D01*
X108756433Y-102820597D01*
X108750000Y-102819750D01*
X108743567Y-102820597D01*
X108612722Y-102837823D01*
X108612720Y-102837824D01*
X108606291Y-102838670D01*
X108472375Y-102894139D01*
X108357379Y-102982379D01*
X108269139Y-103097375D01*
X108213670Y-103231291D01*
X108212824Y-103237720D01*
X108212823Y-103237722D01*
X108209532Y-103262722D01*
X108194750Y-103375000D01*
X107901959Y-103375000D01*
X107905250Y-103350000D01*
X107898567Y-103299235D01*
X107887177Y-103212722D01*
X107887176Y-103212720D01*
X107886330Y-103206291D01*
X107830861Y-103072375D01*
X107742621Y-102957379D01*
X107627625Y-102869139D01*
X107493709Y-102813670D01*
X107487280Y-102812824D01*
X107487278Y-102812823D01*
X107356433Y-102795597D01*
X107350000Y-102794750D01*
X107343567Y-102795597D01*
X107212722Y-102812823D01*
X107212720Y-102812824D01*
X107206291Y-102813670D01*
X107179108Y-102824930D01*
X107136885Y-102842418D01*
X107075888Y-102847218D01*
X107023719Y-102815249D01*
X107000305Y-102758720D01*
X107000000Y-102750954D01*
X107000000Y-102210979D01*
X107018907Y-102152788D01*
X107068407Y-102116824D01*
X107129593Y-102116824D01*
X107159268Y-102132437D01*
X107222375Y-102180861D01*
X107356291Y-102236330D01*
X107362720Y-102237176D01*
X107362722Y-102237177D01*
X107493567Y-102254403D01*
X107500000Y-102255250D01*
X107506433Y-102254403D01*
X107637278Y-102237177D01*
X107637280Y-102237176D01*
X107643709Y-102236330D01*
X107777625Y-102180861D01*
X107840732Y-102132437D01*
X107898408Y-102112013D01*
X107957074Y-102129390D01*
X107994321Y-102177932D01*
X108000000Y-102210979D01*
X108000000Y-102500000D01*
X116000000Y-102500000D01*
X116000000Y-102110979D01*
X116018907Y-102052788D01*
X116068407Y-102016824D01*
X116129593Y-102016824D01*
X116159268Y-102032437D01*
X116222375Y-102080861D01*
X116356291Y-102136330D01*
X116362720Y-102137176D01*
X116362722Y-102137177D01*
X116493567Y-102154403D01*
X116500000Y-102155250D01*
X116506433Y-102154403D01*
X116637278Y-102137177D01*
X116637280Y-102137176D01*
X116643709Y-102136330D01*
X116777625Y-102080861D01*
X116892621Y-101992621D01*
X116980861Y-101877625D01*
X117036330Y-101743709D01*
X117055250Y-101600000D01*
X117051593Y-101572221D01*
X117037177Y-101462722D01*
X117037176Y-101462720D01*
X117036330Y-101456291D01*
X116980861Y-101322375D01*
X116901645Y-101219139D01*
X116896572Y-101212528D01*
X116892621Y-101207379D01*
X116777625Y-101119139D01*
X116643709Y-101063670D01*
X116637280Y-101062824D01*
X116637278Y-101062823D01*
X116506433Y-101045597D01*
X116500000Y-101044750D01*
X116493567Y-101045597D01*
X116362722Y-101062823D01*
X116362720Y-101062824D01*
X116356291Y-101063670D01*
X116222375Y-101119139D01*
X116161106Y-101166153D01*
X116159268Y-101167563D01*
X116101592Y-101187987D01*
X116042926Y-101170610D01*
X116005679Y-101122068D01*
X116000000Y-101089021D01*
X116000000Y-100599000D01*
X116018907Y-100540809D01*
X116068407Y-100504845D01*
X116099000Y-100500000D01*
X130401000Y-100500000D01*
X130459191Y-100518907D01*
G37*
%TD.AperFunction*%
%TD*%
M02*
