%TF.GenerationSoftware,KiCad,Pcbnew,(6.0.6)*%
%TF.CreationDate,2022-12-06T18:53:10+01:00*%
%TF.ProjectId,sa_amp,73615f61-6d70-42e6-9b69-6361645f7063,rev?*%
%TF.SameCoordinates,Original*%
%TF.FileFunction,Copper,L1,Top*%
%TF.FilePolarity,Positive*%
%FSLAX46Y46*%
G04 Gerber Fmt 4.6, Leading zero omitted, Abs format (unit mm)*
G04 Created by KiCad (PCBNEW (6.0.6)) date 2022-12-06 18:53:10*
%MOMM*%
%LPD*%
G01*
G04 APERTURE LIST*
G04 Aperture macros list*
%AMRoundRect*
0 Rectangle with rounded corners*
0 $1 Rounding radius*
0 $2 $3 $4 $5 $6 $7 $8 $9 X,Y pos of 4 corners*
0 Add a 4 corners polygon primitive as box body*
4,1,4,$2,$3,$4,$5,$6,$7,$8,$9,$2,$3,0*
0 Add four circle primitives for the rounded corners*
1,1,$1+$1,$2,$3*
1,1,$1+$1,$4,$5*
1,1,$1+$1,$6,$7*
1,1,$1+$1,$8,$9*
0 Add four rect primitives between the rounded corners*
20,1,$1+$1,$2,$3,$4,$5,0*
20,1,$1+$1,$4,$5,$6,$7,0*
20,1,$1+$1,$6,$7,$8,$9,0*
20,1,$1+$1,$8,$9,$2,$3,0*%
G04 Aperture macros list end*
%TA.AperFunction,SMDPad,CuDef*%
%ADD10RoundRect,0.200000X-0.275000X0.200000X-0.275000X-0.200000X0.275000X-0.200000X0.275000X0.200000X0*%
%TD*%
%TA.AperFunction,SMDPad,CuDef*%
%ADD11RoundRect,0.218750X-0.256250X0.218750X-0.256250X-0.218750X0.256250X-0.218750X0.256250X0.218750X0*%
%TD*%
%TA.AperFunction,SMDPad,CuDef*%
%ADD12RoundRect,0.200000X-0.200000X-0.275000X0.200000X-0.275000X0.200000X0.275000X-0.200000X0.275000X0*%
%TD*%
%TA.AperFunction,SMDPad,CuDef*%
%ADD13RoundRect,0.200000X0.275000X-0.200000X0.275000X0.200000X-0.275000X0.200000X-0.275000X-0.200000X0*%
%TD*%
%TA.AperFunction,SMDPad,CuDef*%
%ADD14RoundRect,0.225000X0.250000X-0.225000X0.250000X0.225000X-0.250000X0.225000X-0.250000X-0.225000X0*%
%TD*%
%TA.AperFunction,SMDPad,CuDef*%
%ADD15RoundRect,0.250000X0.250000X0.475000X-0.250000X0.475000X-0.250000X-0.475000X0.250000X-0.475000X0*%
%TD*%
%TA.AperFunction,SMDPad,CuDef*%
%ADD16R,1.600000X1.300000*%
%TD*%
%TA.AperFunction,SMDPad,CuDef*%
%ADD17R,1.600000X2.000000*%
%TD*%
%TA.AperFunction,SMDPad,CuDef*%
%ADD18RoundRect,0.225000X0.225000X0.250000X-0.225000X0.250000X-0.225000X-0.250000X0.225000X-0.250000X0*%
%TD*%
%TA.AperFunction,SMDPad,CuDef*%
%ADD19RoundRect,0.225000X-0.225000X-0.250000X0.225000X-0.250000X0.225000X0.250000X-0.225000X0.250000X0*%
%TD*%
%TA.AperFunction,ComponentPad*%
%ADD20C,3.100000*%
%TD*%
%TA.AperFunction,ConnectorPad*%
%ADD21C,5.400000*%
%TD*%
%TA.AperFunction,SMDPad,CuDef*%
%ADD22R,2.000000X1.500000*%
%TD*%
%TA.AperFunction,SMDPad,CuDef*%
%ADD23R,2.000000X3.800000*%
%TD*%
%TA.AperFunction,ComponentPad*%
%ADD24R,1.350000X1.350000*%
%TD*%
%TA.AperFunction,ComponentPad*%
%ADD25O,1.350000X1.350000*%
%TD*%
%TA.AperFunction,SMDPad,CuDef*%
%ADD26RoundRect,0.250000X-0.262500X-0.450000X0.262500X-0.450000X0.262500X0.450000X-0.262500X0.450000X0*%
%TD*%
%TA.AperFunction,SMDPad,CuDef*%
%ADD27R,0.600000X0.450000*%
%TD*%
%TA.AperFunction,SMDPad,CuDef*%
%ADD28RoundRect,0.218750X0.218750X0.256250X-0.218750X0.256250X-0.218750X-0.256250X0.218750X-0.256250X0*%
%TD*%
%TA.AperFunction,SMDPad,CuDef*%
%ADD29RoundRect,0.150000X-0.725000X-0.150000X0.725000X-0.150000X0.725000X0.150000X-0.725000X0.150000X0*%
%TD*%
%TA.AperFunction,SMDPad,CuDef*%
%ADD30RoundRect,0.225000X-0.250000X0.225000X-0.250000X-0.225000X0.250000X-0.225000X0.250000X0.225000X0*%
%TD*%
%TA.AperFunction,SMDPad,CuDef*%
%ADD31R,2.000000X2.000000*%
%TD*%
%TA.AperFunction,SMDPad,CuDef*%
%ADD32R,2.000000X3.500000*%
%TD*%
%TA.AperFunction,SMDPad,CuDef*%
%ADD33R,3.500000X1.750000*%
%TD*%
%TA.AperFunction,SMDPad,CuDef*%
%ADD34R,1.000000X2.350000*%
%TD*%
%TA.AperFunction,SMDPad,CuDef*%
%ADD35R,1.000000X2.200000*%
%TD*%
%TA.AperFunction,SMDPad,CuDef*%
%ADD36O,0.850000X0.280000*%
%TD*%
%TA.AperFunction,SMDPad,CuDef*%
%ADD37R,0.280000X0.280000*%
%TD*%
%TA.AperFunction,SMDPad,CuDef*%
%ADD38R,0.680000X1.050000*%
%TD*%
%TA.AperFunction,SMDPad,CuDef*%
%ADD39R,0.260000X0.500000*%
%TD*%
%TA.AperFunction,SMDPad,CuDef*%
%ADD40R,1.650000X2.400000*%
%TD*%
%TA.AperFunction,SMDPad,CuDef*%
%ADD41R,0.280000X0.700000*%
%TD*%
%TA.AperFunction,SMDPad,CuDef*%
%ADD42RoundRect,0.062500X-0.062500X0.325000X-0.062500X-0.325000X0.062500X-0.325000X0.062500X0.325000X0*%
%TD*%
%TA.AperFunction,SMDPad,CuDef*%
%ADD43R,1.650000X1.800000*%
%TD*%
%TA.AperFunction,SMDPad,CuDef*%
%ADD44RoundRect,0.150000X-0.587500X-0.150000X0.587500X-0.150000X0.587500X0.150000X-0.587500X0.150000X0*%
%TD*%
%TA.AperFunction,SMDPad,CuDef*%
%ADD45RoundRect,0.200000X0.200000X0.275000X-0.200000X0.275000X-0.200000X-0.275000X0.200000X-0.275000X0*%
%TD*%
%TA.AperFunction,SMDPad,CuDef*%
%ADD46RoundRect,0.100000X-0.637500X-0.100000X0.637500X-0.100000X0.637500X0.100000X-0.637500X0.100000X0*%
%TD*%
%TA.AperFunction,ComponentPad*%
%ADD47C,2.850000*%
%TD*%
%TA.AperFunction,ViaPad*%
%ADD48C,0.700000*%
%TD*%
%TA.AperFunction,Conductor*%
%ADD49C,0.300000*%
%TD*%
%TA.AperFunction,Conductor*%
%ADD50C,0.500000*%
%TD*%
%TA.AperFunction,Conductor*%
%ADD51C,0.250000*%
%TD*%
%TA.AperFunction,Conductor*%
%ADD52C,0.200000*%
%TD*%
%TA.AperFunction,Conductor*%
%ADD53C,2.000000*%
%TD*%
G04 APERTURE END LIST*
D10*
%TO.P,R11,1*%
%TO.N,Net-(D4-Pad2)*%
X158200000Y-111275000D03*
%TO.P,R11,2*%
%TO.N,GND*%
X158200000Y-112925000D03*
%TD*%
D11*
%TO.P,D4,1,K*%
%TO.N,-9V*%
X158200000Y-107912500D03*
%TO.P,D4,2,A*%
%TO.N,Net-(D4-Pad2)*%
X158200000Y-109487500D03*
%TD*%
D12*
%TO.P,R1,1*%
%TO.N,GND*%
X111437500Y-109450000D03*
%TO.P,R1,2*%
%TO.N,Net-(C4-Pad1)*%
X113087500Y-109450000D03*
%TD*%
D13*
%TO.P,R7,1*%
%TO.N,Net-(R7-Pad1)*%
X128400000Y-105825000D03*
%TO.P,R7,2*%
%TO.N,Net-(D1-Pad1)*%
X128400000Y-104175000D03*
%TD*%
D10*
%TO.P,R9,1*%
%TO.N,Net-(C6-Pad1)*%
X126900000Y-104175000D03*
%TO.P,R9,2*%
%TO.N,Net-(R7-Pad1)*%
X126900000Y-105825000D03*
%TD*%
D14*
%TO.P,C6,1*%
%TO.N,Net-(C6-Pad1)*%
X128400000Y-102775000D03*
%TO.P,C6,2*%
%TO.N,-9V*%
X128400000Y-101225000D03*
%TD*%
D15*
%TO.P,C3,1*%
%TO.N,GND*%
X155650000Y-108300000D03*
%TO.P,C3,2*%
%TO.N,-9V*%
X153750000Y-108300000D03*
%TD*%
D16*
%TO.P,RV1,1,1*%
%TO.N,+9V*%
X115662500Y-115750000D03*
D17*
%TO.P,RV1,2,2*%
%TO.N,Net-(C11-Pad1)*%
X118562500Y-117000000D03*
D16*
%TO.P,RV1,3,3*%
%TO.N,GND*%
X115662500Y-118250000D03*
%TD*%
D18*
%TO.P,C15,1*%
%TO.N,+9V*%
X131575000Y-107250000D03*
%TO.P,C15,2*%
%TO.N,GND*%
X130025000Y-107250000D03*
%TD*%
D19*
%TO.P,C12,1*%
%TO.N,GND*%
X126637500Y-118900000D03*
%TO.P,C12,2*%
%TO.N,Net-(C12-Pad2)*%
X128187500Y-118900000D03*
%TD*%
D20*
%TO.P,H2,1,1*%
%TO.N,GND*%
X156500000Y-103500000D03*
D21*
X156500000Y-103500000D03*
%TD*%
D22*
%TO.P,D2,1,A*%
%TO.N,-9V*%
X107800000Y-112300000D03*
%TO.P,D2,2*%
%TO.N,N/C*%
X107800000Y-110000000D03*
%TO.P,D2,3,K*%
%TO.N,+9V*%
X107800000Y-107700000D03*
D23*
%TO.P,D2,4,common*%
%TO.N,GND*%
X101500000Y-110000000D03*
%TD*%
D14*
%TO.P,C2,1*%
%TO.N,+9V*%
X121912500Y-109475000D03*
%TO.P,C2,2*%
%TO.N,GND*%
X121912500Y-107925000D03*
%TD*%
D18*
%TO.P,C17,1*%
%TO.N,GND*%
X123487500Y-118900000D03*
%TO.P,C17,2*%
%TO.N,-9V*%
X121937500Y-118900000D03*
%TD*%
D24*
%TO.P,BT1,1,+*%
%TO.N,Net-(BT1-Pad1)*%
X138600000Y-115000000D03*
D25*
%TO.P,BT1,2,-*%
%TO.N,GND*%
X138600000Y-117000000D03*
%TD*%
D21*
%TO.P,H1,1,1*%
%TO.N,GND*%
X103500000Y-103500000D03*
D20*
X103500000Y-103500000D03*
%TD*%
%TO.P,H3,1,1*%
%TO.N,GND*%
X156500000Y-116500000D03*
D21*
X156500000Y-116500000D03*
%TD*%
D26*
%TO.P,R4,1*%
%TO.N,Net-(R4-Pad1)*%
X129887500Y-111400000D03*
%TO.P,R4,2*%
%TO.N,Net-(R4-Pad2)*%
X131712500Y-111400000D03*
%TD*%
D27*
%TO.P,D3,1,K*%
%TO.N,Net-(D1-Pad1)*%
X129850000Y-105500000D03*
%TO.P,D3,2,A*%
%TO.N,GND*%
X131950000Y-105500000D03*
%TD*%
D15*
%TO.P,C13,1*%
%TO.N,+9V*%
X139150000Y-109550000D03*
%TO.P,C13,2*%
%TO.N,GND*%
X137250000Y-109550000D03*
%TD*%
D12*
%TO.P,R6,1*%
%TO.N,+9V*%
X118175000Y-101300000D03*
%TO.P,R6,2*%
%TO.N,Net-(D1-Pad2)*%
X119825000Y-101300000D03*
%TD*%
D16*
%TO.P,RV2,1,1*%
%TO.N,-9V*%
X132962500Y-118200000D03*
D17*
%TO.P,RV2,2,2*%
%TO.N,Net-(C12-Pad2)*%
X130062500Y-116950000D03*
D16*
%TO.P,RV2,3,3*%
%TO.N,GND*%
X132962500Y-115700000D03*
%TD*%
D28*
%TO.P,D1,1,K*%
%TO.N,Net-(D1-Pad1)*%
X124987500Y-101600000D03*
%TO.P,D1,2,A*%
%TO.N,Net-(D1-Pad2)*%
X123412500Y-101600000D03*
%TD*%
D14*
%TO.P,C10,1*%
%TO.N,GND*%
X123412500Y-112475000D03*
%TO.P,C10,2*%
%TO.N,-9V*%
X123412500Y-110925000D03*
%TD*%
D29*
%TO.P,U1,1,VOS_TRIM*%
%TO.N,unconnected-(U1-Pad1)*%
X114887500Y-108245000D03*
%TO.P,U1,2,IN-*%
%TO.N,Net-(C4-Pad1)*%
X114887500Y-109515000D03*
%TO.P,U1,3,IN+*%
%TO.N,Net-(J1-Pad1)*%
X114887500Y-110785000D03*
%TO.P,U1,4,V-*%
%TO.N,-9V*%
X114887500Y-112055000D03*
%TO.P,U1,5,OVERCOMP*%
%TO.N,unconnected-(U1-Pad5)*%
X120037500Y-112055000D03*
%TO.P,U1,6,OUT*%
%TO.N,Net-(C4-Pad2)*%
X120037500Y-110785000D03*
%TO.P,U1,7,V+*%
%TO.N,+9V*%
X120037500Y-109515000D03*
%TO.P,U1,8,VOS_TRIM*%
%TO.N,unconnected-(U1-Pad8)*%
X120037500Y-108245000D03*
%TD*%
D30*
%TO.P,C11,1*%
%TO.N,Net-(C11-Pad1)*%
X120412500Y-117375000D03*
%TO.P,C11,2*%
%TO.N,GND*%
X120412500Y-118925000D03*
%TD*%
D31*
%TO.P,TP2,1,1*%
%TO.N,Net-(C12-Pad2)*%
X135500000Y-117000000D03*
%TD*%
D19*
%TO.P,C4,1*%
%TO.N,Net-(C4-Pad1)*%
X116687500Y-105200000D03*
%TO.P,C4,2*%
%TO.N,Net-(C4-Pad2)*%
X118237500Y-105200000D03*
%TD*%
D13*
%TO.P,R10,1*%
%TO.N,-9V*%
X121500000Y-105725000D03*
%TO.P,R10,2*%
%TO.N,Net-(Q1-Pad1)*%
X121500000Y-104075000D03*
%TD*%
D18*
%TO.P,C5,1*%
%TO.N,GND*%
X116887500Y-113600000D03*
%TO.P,C5,2*%
%TO.N,-9V*%
X115337500Y-113600000D03*
%TD*%
D32*
%TO.P,J1,1,In*%
%TO.N,Net-(J1-Pad1)*%
X112000000Y-104250000D03*
D33*
%TO.P,J1,2,Ext*%
%TO.N,GND*%
X115250000Y-103375000D03*
D34*
X107500000Y-101675000D03*
D35*
X116500000Y-101600000D03*
D33*
X108750000Y-103375000D03*
%TD*%
D15*
%TO.P,C1,1*%
%TO.N,+9V*%
X139150000Y-105550000D03*
%TO.P,C1,2*%
%TO.N,GND*%
X137250000Y-105550000D03*
%TD*%
D14*
%TO.P,C18,1*%
%TO.N,GND*%
X134250000Y-113475000D03*
%TO.P,C18,2*%
%TO.N,-9V*%
X134250000Y-111925000D03*
%TD*%
D36*
%TO.P,U2,1,+*%
%TO.N,Net-(C4-Pad2)*%
X125275000Y-109200000D03*
D37*
X124990000Y-109200000D03*
D36*
%TO.P,U2,2,V+*%
%TO.N,+9V*%
X125275000Y-109700000D03*
D37*
X124990000Y-109700000D03*
D36*
%TO.P,U2,3,GND*%
%TO.N,GND*%
X125275000Y-110200000D03*
D37*
X124990000Y-110200000D03*
D36*
%TO.P,U2,4,V-*%
%TO.N,-9V*%
X125275000Y-110700000D03*
D37*
X124990000Y-110700000D03*
D36*
%TO.P,U2,5,+*%
%TO.N,Net-(C4-Pad2)*%
X125275000Y-111200000D03*
D37*
X124990000Y-111200000D03*
%TO.P,U2,6,-*%
%TO.N,Net-(R4-Pad1)*%
X128510000Y-111200000D03*
D36*
X128225000Y-111200000D03*
D37*
%TO.P,U2,7*%
X128510000Y-110700000D03*
D36*
X128225000Y-110700000D03*
%TO.P,U2,8,EN*%
%TO.N,+9V*%
X128225000Y-110200000D03*
D37*
X128510000Y-110200000D03*
D36*
%TO.P,U2,9*%
%TO.N,Net-(R5-Pad1)*%
X128225000Y-109700000D03*
D37*
X128510000Y-109700000D03*
D36*
%TO.P,U2,10,-*%
X128225000Y-109200000D03*
D37*
X128510000Y-109200000D03*
D38*
%TO.P,U2,11,V-*%
%TO.N,-9V*%
X126300000Y-110835000D03*
D39*
X127000000Y-108570000D03*
D40*
X126750000Y-110200000D03*
D41*
X127000000Y-111750000D03*
D39*
X126500000Y-108570000D03*
D38*
X127200000Y-109565000D03*
D39*
X126500000Y-111830000D03*
D38*
X126300000Y-109565000D03*
D41*
X127000000Y-108650000D03*
X126500000Y-111750000D03*
D38*
X127200000Y-110835000D03*
D41*
X126500000Y-108650000D03*
D39*
X127000000Y-111830000D03*
%TD*%
D42*
%TO.P,U4,1*%
%TO.N,Net-(J2-Pad1)*%
X134750000Y-107487500D03*
%TO.P,U4,2,NC*%
%TO.N,unconnected-(U4-Pad2)*%
X134250000Y-107487500D03*
%TO.P,U4,3,GND*%
%TO.N,GND*%
X133750000Y-107487500D03*
%TO.P,U4,4,VDD*%
%TO.N,+9V*%
X133250000Y-107487500D03*
%TO.P,U4,5,NC*%
%TO.N,unconnected-(U4-Pad5)*%
X133250000Y-110412500D03*
%TO.P,U4,6*%
%TO.N,Net-(D1-Pad1)*%
X133750000Y-110412500D03*
%TO.P,U4,7,VSS*%
%TO.N,-9V*%
X134250000Y-110412500D03*
%TO.P,U4,8*%
%TO.N,Net-(R4-Pad2)*%
X134750000Y-110412500D03*
D43*
%TO.P,U4,9,VSS*%
%TO.N,-9V*%
X134000000Y-108950000D03*
%TD*%
D15*
%TO.P,C9,1*%
%TO.N,GND*%
X155650000Y-110300000D03*
%TO.P,C9,2*%
%TO.N,-9V*%
X153750000Y-110300000D03*
%TD*%
D32*
%TO.P,J2,1,In*%
%TO.N,Net-(J2-Pad1)*%
X134500000Y-104250000D03*
D34*
%TO.P,J2,2,Ext*%
%TO.N,GND*%
X130000000Y-101675000D03*
D33*
X131250000Y-103375000D03*
D35*
X139000000Y-101600000D03*
D33*
X137750000Y-103375000D03*
%TD*%
D44*
%TO.P,Q1,1,G*%
%TO.N,Net-(Q1-Pad1)*%
X123262500Y-103850000D03*
%TO.P,Q1,2,S*%
%TO.N,GND*%
X123262500Y-105750000D03*
%TO.P,Q1,3,D*%
%TO.N,Net-(D1-Pad1)*%
X125137500Y-104800000D03*
%TD*%
D21*
%TO.P,H4,1,1*%
%TO.N,GND*%
X103500000Y-116500000D03*
D20*
X103500000Y-116500000D03*
%TD*%
D14*
%TO.P,C8,1*%
%TO.N,+9V*%
X123412500Y-109475000D03*
%TO.P,C8,2*%
%TO.N,GND*%
X123412500Y-107925000D03*
%TD*%
D18*
%TO.P,C14,1*%
%TO.N,+9V*%
X127437500Y-113850000D03*
%TO.P,C14,2*%
%TO.N,GND*%
X125887500Y-113850000D03*
%TD*%
D15*
%TO.P,C7,1*%
%TO.N,+9V*%
X139150000Y-107550000D03*
%TO.P,C7,2*%
%TO.N,GND*%
X137250000Y-107550000D03*
%TD*%
D45*
%TO.P,R8,1*%
%TO.N,Net-(Q1-Pad1)*%
X119825000Y-102800000D03*
%TO.P,R8,2*%
%TO.N,+9V*%
X118175000Y-102800000D03*
%TD*%
D10*
%TO.P,R2,1*%
%TO.N,Net-(J1-Pad1)*%
X113012500Y-110875000D03*
%TO.P,R2,2*%
%TO.N,GND*%
X113012500Y-112525000D03*
%TD*%
D15*
%TO.P,C16,1*%
%TO.N,GND*%
X155650000Y-112300000D03*
%TO.P,C16,2*%
%TO.N,-9V*%
X153750000Y-112300000D03*
%TD*%
D46*
%TO.P,U3,1*%
%TO.N,Net-(R7-Pad1)*%
X122200000Y-115375000D03*
%TO.P,U3,2,-*%
%TO.N,Net-(C4-Pad2)*%
X122200000Y-116025000D03*
%TO.P,U3,3,+*%
%TO.N,Net-(C11-Pad1)*%
X122200000Y-116675000D03*
%TO.P,U3,4,V-*%
%TO.N,-9V*%
X122200000Y-117325000D03*
%TO.P,U3,5,+*%
%TO.N,Net-(C4-Pad2)*%
X127925000Y-117325000D03*
%TO.P,U3,6,_*%
%TO.N,Net-(C12-Pad2)*%
X127925000Y-116675000D03*
%TO.P,U3,7*%
%TO.N,Net-(R7-Pad1)*%
X127925000Y-116025000D03*
%TO.P,U3,8,V+*%
%TO.N,+9V*%
X127925000Y-115375000D03*
%TD*%
D26*
%TO.P,R5,1*%
%TO.N,Net-(R5-Pad1)*%
X129887500Y-109000000D03*
%TO.P,R5,2*%
%TO.N,Net-(R4-Pad2)*%
X131712500Y-109000000D03*
%TD*%
D31*
%TO.P,TP1,1,1*%
%TO.N,Net-(C11-Pad1)*%
X113000000Y-116950000D03*
%TD*%
D24*
%TO.P,BT2,1,+*%
%TO.N,GND*%
X109900000Y-115500000D03*
D25*
%TO.P,BT2,2,-*%
%TO.N,Net-(BT2-Pad2)*%
X109900000Y-117500000D03*
%TD*%
D47*
%TO.P,SW1,1,A*%
%TO.N,unconnected-(SW1-Pad1)*%
X141810000Y-114450000D03*
%TO.P,SW1,2,B*%
%TO.N,Net-(BT1-Pad1)*%
X146500000Y-114450000D03*
%TO.P,SW1,3,C*%
%TO.N,+9V*%
X151190000Y-114450000D03*
%TO.P,SW1,4,A*%
%TO.N,unconnected-(SW1-Pad4)*%
X141810000Y-118260000D03*
%TO.P,SW1,5,B*%
%TO.N,Net-(BT2-Pad2)*%
X146500000Y-118260000D03*
%TO.P,SW1,6,C*%
%TO.N,-9V*%
X151190000Y-118260000D03*
%TO.P,SW1,7,SHLD*%
%TO.N,GND*%
X143960000Y-101750000D03*
%TO.P,SW1,8,SHLD*%
X149040000Y-101750000D03*
%TD*%
D12*
%TO.P,R3,1*%
%TO.N,Net-(C4-Pad1)*%
X116637500Y-106700000D03*
%TO.P,R3,2*%
%TO.N,Net-(C4-Pad2)*%
X118287500Y-106700000D03*
%TD*%
D48*
%TO.N,+9V*%
X107800000Y-105200000D03*
X140100000Y-109550000D03*
X129150000Y-110200000D03*
X128312500Y-114650000D03*
X109900000Y-105200000D03*
X118200000Y-103900000D03*
X122663057Y-110175159D03*
X140100000Y-105550000D03*
X116962500Y-115750000D03*
X140100000Y-107550000D03*
X109000000Y-106200000D03*
X132500000Y-107250000D03*
%TO.N,GND*%
X119462500Y-118900000D03*
X132650000Y-103400000D03*
X117812500Y-113600000D03*
X156600000Y-110300000D03*
X113850000Y-103350000D03*
X124500000Y-118900000D03*
X130000000Y-101650000D03*
X134300000Y-114400000D03*
X123400000Y-107000000D03*
X124962500Y-113850000D03*
X156600000Y-108300000D03*
X124362500Y-110200000D03*
X136300000Y-109550000D03*
X131662500Y-115700000D03*
X132700000Y-105500000D03*
X136300000Y-107550000D03*
X116500000Y-101600000D03*
X123412500Y-113400000D03*
X110150000Y-103400000D03*
X136350000Y-103350000D03*
X136300000Y-105550000D03*
X131250000Y-103375000D03*
X129100000Y-107250000D03*
X139150000Y-103400000D03*
X116962500Y-118250000D03*
X125712500Y-118900000D03*
X139000000Y-101600000D03*
X107500000Y-101700000D03*
X116650000Y-103350000D03*
X156600000Y-112300000D03*
X108750000Y-103375000D03*
X115250000Y-103375000D03*
X133750000Y-106550000D03*
X113012500Y-113400000D03*
X121900000Y-107000000D03*
X137750000Y-103375000D03*
X110562500Y-109450000D03*
X107350000Y-103350000D03*
X129850000Y-103350000D03*
%TO.N,-9V*%
X152650000Y-110300000D03*
X127400000Y-101200000D03*
X131600000Y-117900000D03*
X152650000Y-108300000D03*
X114412500Y-112850000D03*
X126300000Y-109350000D03*
X126300000Y-110200000D03*
X127200000Y-111050000D03*
X109200000Y-112300000D03*
X123450000Y-117100000D03*
X152600000Y-112350000D03*
X134450000Y-108400000D03*
X111600000Y-112300000D03*
X134450000Y-109500000D03*
X126300000Y-111050000D03*
X126750000Y-107800000D03*
X127200000Y-109350000D03*
X133550000Y-108400000D03*
X133550000Y-109500000D03*
X127200000Y-110200000D03*
X120500000Y-105700000D03*
X126750000Y-112600000D03*
X110400000Y-112300000D03*
%TO.N,Net-(R7-Pad1)*%
X121800000Y-112000000D03*
X124900000Y-107400000D03*
%TO.N,Net-(D1-Pad1)*%
X133300000Y-111400000D03*
X130900000Y-105500000D03*
%TD*%
D49*
%TO.N,GND*%
X158200000Y-112925000D02*
X158200000Y-114800000D01*
X158200000Y-114800000D02*
X156500000Y-116500000D01*
%TO.N,Net-(D4-Pad2)*%
X158200000Y-109487500D02*
X158200000Y-111275000D01*
D50*
%TO.N,-9V*%
X157187500Y-106900000D02*
X158200000Y-107912500D01*
X154400000Y-106900000D02*
X157187500Y-106900000D01*
X153750000Y-107550000D02*
X154400000Y-106900000D01*
X153750000Y-108300000D02*
X153750000Y-107550000D01*
%TO.N,+9V*%
X107800000Y-107700000D02*
X107800000Y-105200000D01*
D49*
X123637500Y-109700000D02*
X123412500Y-109475000D01*
D50*
X115662500Y-115750000D02*
X116962500Y-115750000D01*
X139150000Y-107550000D02*
X140100000Y-107550000D01*
X121872500Y-109515000D02*
X121912500Y-109475000D01*
D49*
X118175000Y-103875000D02*
X118200000Y-103900000D01*
X124990000Y-109700000D02*
X124781739Y-109700000D01*
D50*
X121962898Y-109475000D02*
X122663057Y-110175159D01*
X107800000Y-107700000D02*
X107800000Y-107400000D01*
X127512500Y-113850000D02*
X128312500Y-114650000D01*
D51*
X133250000Y-107487500D02*
X133250000Y-107150000D01*
D50*
X123363216Y-109475000D02*
X122663057Y-110175159D01*
D49*
X118175000Y-102800000D02*
X118175000Y-103875000D01*
D50*
X127437500Y-113850000D02*
X127512500Y-113850000D01*
D52*
X128225000Y-110200000D02*
X129150000Y-110200000D01*
D51*
X133012500Y-107250000D02*
X132500000Y-107250000D01*
D49*
X123412500Y-109475000D02*
X123363216Y-109475000D01*
D50*
X139150000Y-105550000D02*
X140100000Y-105550000D01*
X139150000Y-109550000D02*
X140100000Y-109550000D01*
X121912500Y-109475000D02*
X121962898Y-109475000D01*
D51*
X133250000Y-107487500D02*
X133012500Y-107250000D01*
D50*
X120037500Y-109515000D02*
X121872500Y-109515000D01*
X131775000Y-107250000D02*
X132050000Y-107250000D01*
D49*
X127925000Y-115037500D02*
X128312500Y-114650000D01*
D50*
X107800000Y-105200000D02*
X109900000Y-105200000D01*
X132050000Y-107250000D02*
X132500000Y-107250000D01*
D49*
X127925000Y-115375000D02*
X127925000Y-115037500D01*
X118175000Y-101300000D02*
X118175000Y-102800000D01*
D50*
X107800000Y-107400000D02*
X109000000Y-106200000D01*
D49*
X124781739Y-109700000D02*
X124556739Y-109475000D01*
X124556739Y-109475000D02*
X123412500Y-109475000D01*
D50*
%TO.N,GND*%
X121912500Y-107925000D02*
X121725000Y-107925000D01*
X113012500Y-112525000D02*
X113012500Y-113400000D01*
D49*
X125275000Y-110200000D02*
X124362500Y-110200000D01*
D50*
X137250000Y-105550000D02*
X136300000Y-105550000D01*
X137250000Y-109550000D02*
X136300000Y-109550000D01*
X125887500Y-113850000D02*
X124962500Y-113850000D01*
X115250000Y-103375000D02*
X116625000Y-103375000D01*
X131250000Y-103375000D02*
X132625000Y-103375000D01*
X123412500Y-112475000D02*
X123412500Y-113400000D01*
X131250000Y-103375000D02*
X129875000Y-103375000D01*
X123400000Y-107000000D02*
X123400000Y-105887500D01*
D53*
X101500000Y-114500000D02*
X103500000Y-116500000D01*
D50*
X115662500Y-118250000D02*
X116962500Y-118250000D01*
X155650000Y-112300000D02*
X156600000Y-112300000D01*
X123412500Y-107925000D02*
X123412500Y-107012500D01*
X137750000Y-103375000D02*
X136375000Y-103375000D01*
X155650000Y-110300000D02*
X156600000Y-110300000D01*
D53*
X101500000Y-105500000D02*
X103500000Y-103500000D01*
D50*
X137750000Y-103375000D02*
X139125000Y-103375000D01*
X116887500Y-113600000D02*
X117812500Y-113600000D01*
X123487500Y-118900000D02*
X124500000Y-118900000D01*
D53*
X101500000Y-110000000D02*
X101500000Y-105500000D01*
D50*
X132625000Y-103375000D02*
X132650000Y-103400000D01*
X134250000Y-114350000D02*
X134250000Y-113475000D01*
X136375000Y-103375000D02*
X136350000Y-103350000D01*
X139125000Y-103375000D02*
X139150000Y-103400000D01*
X129875000Y-103375000D02*
X129850000Y-103350000D01*
X113875000Y-103375000D02*
X113850000Y-103350000D01*
X110125000Y-103375000D02*
X110150000Y-103400000D01*
X134300000Y-114400000D02*
X134250000Y-114350000D01*
X137250000Y-107550000D02*
X136300000Y-107550000D01*
X123412500Y-107012500D02*
X123400000Y-107000000D01*
X121912500Y-107012500D02*
X121900000Y-107000000D01*
X107500000Y-101675000D02*
X107500000Y-101700000D01*
X120412500Y-118925000D02*
X119487500Y-118925000D01*
X130000000Y-101675000D02*
X130000000Y-101650000D01*
X119487500Y-118925000D02*
X119462500Y-118900000D01*
X126637500Y-118900000D02*
X125712500Y-118900000D01*
X111437500Y-109450000D02*
X110562500Y-109450000D01*
X121912500Y-107925000D02*
X121912500Y-107012500D01*
D51*
X133750000Y-107487500D02*
X133750000Y-106550000D01*
D50*
X108750000Y-103375000D02*
X110125000Y-103375000D01*
X155650000Y-108300000D02*
X156600000Y-108300000D01*
X132962500Y-115700000D02*
X131662500Y-115700000D01*
X107375000Y-103375000D02*
X107350000Y-103350000D01*
D53*
X101500000Y-110000000D02*
X101500000Y-114500000D01*
D50*
X108750000Y-103375000D02*
X107375000Y-103375000D01*
D49*
X131950000Y-105500000D02*
X132700000Y-105500000D01*
D50*
X130025000Y-107250000D02*
X129100000Y-107250000D01*
X123400000Y-105887500D02*
X123262500Y-105750000D01*
X116625000Y-103375000D02*
X116650000Y-103350000D01*
X115250000Y-103375000D02*
X113875000Y-103375000D01*
D49*
%TO.N,-9V*%
X121500000Y-105725000D02*
X120525000Y-105725000D01*
X127200000Y-109350000D02*
X126750000Y-109800000D01*
D50*
X115162500Y-113600000D02*
X114412500Y-112850000D01*
D51*
X134000000Y-108950000D02*
X134000000Y-108850000D01*
D49*
X127000000Y-111750000D02*
X127000000Y-112350000D01*
X126500000Y-108050000D02*
X126750000Y-107800000D01*
X126750000Y-110600000D02*
X126750000Y-110200000D01*
D51*
X134000000Y-109050000D02*
X134450000Y-109500000D01*
D49*
X124556739Y-110925000D02*
X123412500Y-110925000D01*
X126750000Y-109800000D02*
X126750000Y-110200000D01*
D50*
X153750000Y-112300000D02*
X152650000Y-112300000D01*
X115337500Y-113600000D02*
X115162500Y-113600000D01*
D49*
X123637500Y-110700000D02*
X123412500Y-110925000D01*
X127200000Y-111050000D02*
X126750000Y-110600000D01*
D50*
X114887500Y-112055000D02*
X114887500Y-112375000D01*
D49*
X127000000Y-108570000D02*
X127000000Y-108050000D01*
D51*
X134250000Y-110412500D02*
X134250000Y-109200000D01*
D49*
X124990000Y-110700000D02*
X124781739Y-110700000D01*
D51*
X134000000Y-108950000D02*
X134000000Y-109050000D01*
D49*
X122200000Y-117325000D02*
X122200000Y-117362500D01*
X123450000Y-117100000D02*
X123225000Y-117325000D01*
D50*
X114887500Y-112375000D02*
X114412500Y-112850000D01*
D49*
X127425000Y-101225000D02*
X127400000Y-101200000D01*
X126500000Y-112350000D02*
X126750000Y-112600000D01*
D50*
X153750000Y-110300000D02*
X152650000Y-110300000D01*
X132662500Y-117900000D02*
X132962500Y-118200000D01*
X153750000Y-108300000D02*
X152650000Y-108300000D01*
D51*
X134250000Y-110412500D02*
X134250000Y-111925000D01*
X134000000Y-108850000D02*
X133550000Y-108400000D01*
D49*
X123225000Y-117325000D02*
X122200000Y-117325000D01*
D51*
X134000000Y-109050000D02*
X133550000Y-109500000D01*
D49*
X126300000Y-109350000D02*
X126750000Y-109800000D01*
X126300000Y-111050000D02*
X126750000Y-110600000D01*
D50*
X107800000Y-112300000D02*
X111600000Y-112300000D01*
D49*
X128400000Y-101225000D02*
X127425000Y-101225000D01*
X120525000Y-105725000D02*
X120500000Y-105700000D01*
D50*
X121937500Y-118662500D02*
X121937500Y-118900000D01*
D49*
X126500000Y-108570000D02*
X126500000Y-108050000D01*
D50*
X123450000Y-117150000D02*
X121937500Y-118662500D01*
X123450000Y-117100000D02*
X123450000Y-117150000D01*
D49*
X126500000Y-111750000D02*
X126500000Y-112350000D01*
X126750000Y-110200000D02*
X127200000Y-110200000D01*
X127000000Y-108050000D02*
X126750000Y-107800000D01*
X124781739Y-110700000D02*
X124556739Y-110925000D01*
D51*
X134250000Y-109200000D02*
X134000000Y-108950000D01*
D49*
X127000000Y-112350000D02*
X126750000Y-112600000D01*
X125275000Y-110700000D02*
X126250000Y-110700000D01*
D50*
X131600000Y-117900000D02*
X132662500Y-117900000D01*
D49*
X126750000Y-110200000D02*
X126300000Y-110200000D01*
D51*
X134000000Y-108850000D02*
X134450000Y-108400000D01*
D49*
X126250000Y-110700000D02*
X126750000Y-110200000D01*
%TO.N,Net-(C4-Pad1)*%
X113152500Y-109515000D02*
X113087500Y-109450000D01*
D50*
X116637500Y-106700000D02*
X116637500Y-108925000D01*
X114887500Y-109515000D02*
X113152500Y-109515000D01*
X116637500Y-108925000D02*
X116047500Y-109515000D01*
X116047500Y-109515000D02*
X114887500Y-109515000D01*
X116687500Y-105200000D02*
X116687500Y-106650000D01*
D49*
X116687500Y-106650000D02*
X116637500Y-106700000D01*
%TO.N,Net-(C4-Pad2)*%
X120015000Y-110762500D02*
X120037500Y-110785000D01*
X121212500Y-108700000D02*
X124775000Y-108700000D01*
X120100000Y-115237500D02*
X120887500Y-116025000D01*
X120887500Y-116025000D02*
X122200000Y-116025000D01*
X122200000Y-116025000D02*
X124337500Y-116025000D01*
X118287500Y-108537500D02*
X118287500Y-108875000D01*
D50*
X118237500Y-105200000D02*
X118237500Y-106650000D01*
D49*
X121037500Y-108875000D02*
X121212500Y-108700000D01*
X124775000Y-111700000D02*
X125275000Y-111200000D01*
X118287500Y-108537500D02*
X118287500Y-110762500D01*
X118237500Y-106650000D02*
X118287500Y-106700000D01*
X118287500Y-110762500D02*
X120015000Y-110762500D01*
X122662500Y-111700000D02*
X124775000Y-111700000D01*
X118287500Y-112425000D02*
X120100000Y-114237500D01*
X118287500Y-108875000D02*
X118300000Y-108887500D01*
X118287500Y-110762500D02*
X118287500Y-112425000D01*
X124337500Y-116025000D02*
X125637500Y-117325000D01*
X120037500Y-110785000D02*
X121747500Y-110785000D01*
X124775000Y-108700000D02*
X125275000Y-109200000D01*
X118287500Y-108875000D02*
X121037500Y-108875000D01*
X120100000Y-114237500D02*
X120100000Y-115237500D01*
X125637500Y-117325000D02*
X127925000Y-117325000D01*
X118287500Y-106700000D02*
X118287500Y-108537500D01*
X121747500Y-110785000D02*
X122662500Y-111700000D01*
D50*
%TO.N,Net-(J1-Pad1)*%
X114887500Y-110785000D02*
X113102500Y-110785000D01*
X113102500Y-110785000D02*
X113012500Y-110875000D01*
X109650000Y-108750000D02*
X112000000Y-106400000D01*
X113012500Y-110875000D02*
X110375000Y-110875000D01*
X112000000Y-106400000D02*
X112000000Y-104200000D01*
X109650000Y-110150000D02*
X109650000Y-108750000D01*
X110375000Y-110875000D02*
X109650000Y-110150000D01*
D49*
%TO.N,Net-(J2-Pad1)*%
X134750000Y-104500000D02*
X134500000Y-104250000D01*
D50*
X134100000Y-104600000D02*
X134500000Y-104200000D01*
D49*
X134750000Y-107487500D02*
X134750000Y-104500000D01*
D50*
%TO.N,Net-(C11-Pad1)*%
X118887500Y-117325000D02*
X118562500Y-117000000D01*
D49*
X118937500Y-117375000D02*
X118562500Y-117000000D01*
X122200000Y-116675000D02*
X121112500Y-116675000D01*
X121112500Y-116675000D02*
X120412500Y-117375000D01*
D50*
X113000000Y-117000000D02*
X118562500Y-117000000D01*
D49*
X120412500Y-117375000D02*
X118937500Y-117375000D01*
D50*
%TO.N,Net-(C12-Pad2)*%
X135500000Y-117000000D02*
X130112500Y-117000000D01*
D49*
X128187500Y-118825000D02*
X130062500Y-116950000D01*
X129787500Y-116675000D02*
X130062500Y-116950000D01*
X127925000Y-116675000D02*
X129787500Y-116675000D01*
D50*
X130112500Y-117000000D02*
X130062500Y-116950000D01*
D49*
X128187500Y-118900000D02*
X128187500Y-118825000D01*
%TO.N,Net-(R4-Pad2)*%
X134900000Y-112700000D02*
X133012500Y-112700000D01*
X135100000Y-112500000D02*
X135100000Y-111400000D01*
X133012500Y-112700000D02*
X131712500Y-111400000D01*
X134900000Y-112700000D02*
X135100000Y-112500000D01*
X131712500Y-109000000D02*
X131712500Y-111400000D01*
X135100000Y-111400000D02*
X134750000Y-111050000D01*
X134750000Y-111050000D02*
X134750000Y-110412500D01*
%TO.N,Net-(C6-Pad1)*%
X126900000Y-104175000D02*
X126900000Y-103800000D01*
X126900000Y-103800000D02*
X127925000Y-102775000D01*
X127925000Y-102775000D02*
X128400000Y-102775000D01*
D50*
%TO.N,Net-(R4-Pad1)*%
X128250000Y-111000000D02*
X128225000Y-110975000D01*
X129887500Y-111387500D02*
X129500000Y-111000000D01*
X129500000Y-111000000D02*
X128250000Y-111000000D01*
D49*
X128225000Y-110700000D02*
X128225000Y-110975000D01*
X128225000Y-110975000D02*
X128225000Y-111200000D01*
D50*
X129887500Y-111400000D02*
X129887500Y-111387500D01*
%TO.N,Net-(R5-Pad1)*%
X129700000Y-109000000D02*
X129300000Y-109400000D01*
D49*
X128225000Y-109200000D02*
X128225000Y-109700000D01*
D50*
X129300000Y-109400000D02*
X128400000Y-109400000D01*
X129887500Y-109000000D02*
X129700000Y-109000000D01*
D49*
%TO.N,Net-(R7-Pad1)*%
X122200000Y-115375000D02*
X125287500Y-115375000D01*
X126475000Y-105825000D02*
X124900000Y-107400000D01*
X125937500Y-116025000D02*
X127925000Y-116025000D01*
X122200000Y-115375000D02*
X121800000Y-114975000D01*
X121800000Y-114975000D02*
X121800000Y-112000000D01*
X128400000Y-105825000D02*
X126900000Y-105825000D01*
X125287500Y-115375000D02*
X125937500Y-116025000D01*
X126900000Y-105825000D02*
X126475000Y-105825000D01*
%TO.N,Net-(Q1-Pad1)*%
X120225000Y-102800000D02*
X121500000Y-104075000D01*
X123262500Y-103850000D02*
X121725000Y-103850000D01*
X121725000Y-103850000D02*
X121500000Y-104075000D01*
X119825000Y-102800000D02*
X120225000Y-102800000D01*
D51*
%TO.N,Net-(D1-Pad1)*%
X133750000Y-110950000D02*
X133300000Y-111400000D01*
D49*
X129850000Y-105500000D02*
X130900000Y-105500000D01*
X124987500Y-104650000D02*
X125137500Y-104800000D01*
X124987500Y-101600000D02*
X124987500Y-104650000D01*
X125137500Y-104800000D02*
X125337500Y-105000000D01*
D51*
X133750000Y-110412500D02*
X133750000Y-110950000D01*
D49*
X127575000Y-105000000D02*
X128400000Y-104175000D01*
X125337500Y-105000000D02*
X127575000Y-105000000D01*
X128400000Y-104175000D02*
X128400000Y-104300000D01*
X128400000Y-104300000D02*
X129600000Y-105500000D01*
X129600000Y-105500000D02*
X129850000Y-105500000D01*
%TO.N,Net-(D1-Pad2)*%
X123112500Y-101300000D02*
X123412500Y-101600000D01*
X119825000Y-101300000D02*
X123112500Y-101300000D01*
%TD*%
%TA.AperFunction,Conductor*%
%TO.N,+9V*%
G36*
X110459191Y-104668907D02*
G01*
X110495155Y-104718407D01*
X110500000Y-104749000D01*
X110500000Y-105958992D01*
X110481093Y-106017183D01*
X110471004Y-106028996D01*
X108950000Y-107550000D01*
X108950000Y-108351000D01*
X108931093Y-108409191D01*
X108881593Y-108445155D01*
X108851000Y-108450000D01*
X106899000Y-108450000D01*
X106840809Y-108431093D01*
X106804845Y-108381593D01*
X106800000Y-108351000D01*
X106800000Y-104749000D01*
X106818907Y-104690809D01*
X106868407Y-104654845D01*
X106899000Y-104650000D01*
X110401000Y-104650000D01*
X110459191Y-104668907D01*
G37*
%TD.AperFunction*%
%TD*%
%TA.AperFunction,Conductor*%
%TO.N,-9V*%
G36*
X112009191Y-111568907D02*
G01*
X112045155Y-111618407D01*
X112050000Y-111649000D01*
X112050000Y-112951000D01*
X112031093Y-113009191D01*
X111981593Y-113045155D01*
X111951000Y-113050000D01*
X106899000Y-113050000D01*
X106840809Y-113031093D01*
X106804845Y-112981593D01*
X106800000Y-112951000D01*
X106800000Y-111649000D01*
X106818907Y-111590809D01*
X106868407Y-111554845D01*
X106899000Y-111550000D01*
X111951000Y-111550000D01*
X112009191Y-111568907D01*
G37*
%TD.AperFunction*%
%TD*%
M02*
