M48
; DRILL file {KiCad (6.0.6)} date Tue Dec  6 18:53:12 2022
; FORMAT={-:-/ absolute / metric / decimal}
; #@! TF.CreationDate,2022-12-06T18:53:12+01:00
; #@! TF.GenerationSoftware,Kicad,Pcbnew,(6.0.6)
; #@! TF.FileFunction,MixedPlating,1,4
FMAT,2
METRIC
; #@! TA.AperFunction,Plated,PTH,ViaDrill
T1C0.300
; #@! TA.AperFunction,Plated,PTH,ComponentDrill
T2C0.800
; #@! TA.AperFunction,Plated,PTH,ComponentDrill
T3C1.850
; #@! TA.AperFunction,Plated,PTH,ComponentDrill
T4C2.700
%
G90
G05
T1
X107.35Y-103.35
X107.5Y-101.7
X107.8Y-105.2
X108.75Y-103.375
X109.0Y-106.2
X109.2Y-112.3
X109.9Y-105.2
X110.15Y-103.4
X110.4Y-112.3
X110.562Y-109.45
X111.6Y-112.3
X113.012Y-113.4
X113.85Y-103.35
X114.412Y-112.85
X115.25Y-103.375
X116.5Y-101.6
X116.65Y-103.35
X116.962Y-115.75
X116.962Y-118.25
X117.812Y-113.6
X118.2Y-103.9
X119.462Y-118.9
X120.5Y-105.7
X121.8Y-112.0
X121.9Y-107.0
X122.663Y-110.175
X123.4Y-107.0
X123.412Y-113.4
X123.45Y-117.1
X124.362Y-110.2
X124.5Y-118.9
X124.9Y-107.4
X124.962Y-113.85
X125.712Y-118.9
X126.3Y-109.35
X126.3Y-110.2
X126.3Y-111.05
X126.75Y-107.8
X126.75Y-112.6
X127.2Y-109.35
X127.2Y-110.2
X127.2Y-111.05
X127.4Y-101.2
X128.312Y-114.65
X129.1Y-107.25
X129.15Y-110.2
X129.85Y-103.35
X130.0Y-101.65
X130.9Y-105.5
X131.25Y-103.375
X131.6Y-117.9
X131.662Y-115.7
X132.5Y-107.25
X132.65Y-103.4
X132.7Y-105.5
X133.3Y-111.4
X133.55Y-108.4
X133.55Y-109.5
X133.75Y-106.55
X134.3Y-114.4
X134.45Y-108.4
X134.45Y-109.5
X136.3Y-105.55
X136.3Y-107.55
X136.3Y-109.55
X136.35Y-103.35
X137.75Y-103.375
X139.0Y-101.6
X139.15Y-103.4
X140.1Y-105.55
X140.1Y-107.55
X140.1Y-109.55
X152.6Y-112.35
X152.65Y-108.3
X152.65Y-110.3
X156.6Y-108.3
X156.6Y-110.3
X156.6Y-112.3
T2
X109.9Y-115.5
X109.9Y-117.5
X138.6Y-115.0
X138.6Y-117.0
T3
X141.81Y-114.45
X141.81Y-118.26
X143.96Y-101.75
X146.5Y-114.45
X146.5Y-118.26
X149.04Y-101.75
X151.19Y-114.45
X151.19Y-118.26
T4
X103.5Y-103.5
X103.5Y-116.5
X156.5Y-103.5
X156.5Y-116.5
T0
M30
